Ezerovo-BoldItalic.ufo
<glyph name="uni0000" format="2">
  <advance width="988"/>
  <unicode hex="0000"/>
  <outline>
    <contour>
      <point x="166" y="-75" type="line"/>
      <point x="968" y="-75" type="line"/>
      <point x="968" y="725" type="line"/>
      <point x="166" y="725" type="line"/>
    </contour>
    <contour>
      <point x="591" y="662" type="line"/>
      <point x="870" y="662" type="line"/>
      <point x="870" y="252" type="line"/>
      <point x="591" y="252" type="line"/>
    </contour>
    <contour>
      <point x="535" y="662" type="line"/>
      <point x="535" y="252" type="line"/>
      <point x="453" y="252" type="line"/>
      <point x="453" y="331" type="line"/>
      <point x="337" y="504" type="line"/>
      <point x="337" y="252" type="line"/>
      <point x="256" y="252" type="line"/>
      <point x="256" y="662" type="line"/>
      <point x="337" y="662" type="line"/>
      <point x="453" y="489" type="line"/>
      <point x="453" y="662" type="line"/>
    </contour>
    <contour>
      <point x="256" y="183" type="line"/>
      <point x="381" y="183" type="line"/>
      <point x="381" y="147" type="line"/>
      <point x="292" y="147" type="line"/>
      <point x="292" y="36" type="line"/>
      <point x="344" y="36" type="line"/>
      <point x="344" y="73" type="line"/>
      <point x="319" y="73" type="line"/>
      <point x="319" y="110" type="line"/>
      <point x="381" y="110" type="line"/>
      <point x="381" y="0" type="line"/>
      <point x="256" y="0" type="line"/>
    </contour>
    <contour>
      <point x="405" y="183" type="line"/>
      <point x="443" y="183" type="line"/>
      <point x="443" y="36" type="line"/>
      <point x="515" y="36" type="line"/>
      <point x="515" y="0" type="line"/>
      <point x="405" y="0" type="line"/>
    </contour>
    <contour>
      <point x="468" y="183" type="line"/>
      <point x="504" y="183" type="line"/>
      <point x="504" y="110" type="line"/>
      <point x="545" y="110" type="line"/>
      <point x="545" y="183" type="line"/>
      <point x="582" y="183" type="line"/>
      <point x="582" y="0" type="line"/>
      <point x="545" y="0" type="line"/>
      <point x="545" y="73" type="line"/>
      <point x="468" y="73" type="line"/>
    </contour>
    <contour>
      <point x="612" y="183" type="line"/>
      <point x="726" y="183" type="line"/>
      <point x="726" y="73" type="line"/>
      <point x="649" y="73" type="line"/>
      <point x="649" y="0" type="line"/>
      <point x="612" y="0" type="line"/>
    </contour>
    <contour>
      <point x="755" y="183" type="line"/>
      <point x="792" y="183" type="line"/>
      <point x="792" y="110" type="line"/>
      <point x="833" y="110" type="line"/>
      <point x="833" y="182" type="line"/>
      <point x="869" y="182" type="line"/>
      <point x="869" y="0" type="line"/>
      <point x="833" y="0" type="line"/>
      <point x="833" y="73" type="line"/>
      <point x="792" y="73" type="line"/>
      <point x="792" y="0" type="line"/>
      <point x="755" y="0" type="line"/>
    </contour>
    <contour>
      <point x="673" y="580" type="line"/>
      <point x="673" y="334" type="line"/>
      <point x="789" y="334" type="line"/>
      <point x="789" y="580" type="line"/>
    </contour>
    <contour>
      <point x="649" y="147" type="line"/>
      <point x="649" y="110" type="line"/>
      <point x="689" y="110" type="line"/>
      <point x="689" y="147" type="line"/>
    </contour>
  </outline>
</glyph>
<glyph name="exclam" format="2">
  <advance width="267"/>
  <unicode hex="0021"/>
  <outline>
    <contour>
      <point x="150" y="204" type="line"/>
      <point x="184" y="567" type="line" smooth="yes"/>
      <point x="191" y="633"/>
      <point x="204" y="665"/>
      <point x="281" y="665" type="curve" smooth="yes"/>
      <point x="331" y="665"/>
      <point x="349" y="652"/>
      <point x="349" y="625" type="curve" smooth="yes"/>
      <point x="349" y="610"/>
      <point x="343" y="591"/>
      <point x="335" y="567" type="curve"/>
      <point x="202" y="204" type="line"/>
    </contour>
    <contour>
      <point x="66" y="63" type="curve" smooth="yes"/>
      <point x="66" y="120"/>
      <point x="106" y="156"/>
      <point x="156" y="156" type="curve" smooth="yes"/>
      <point x="211" y="156"/>
      <point x="235" y="122"/>
      <point x="235" y="83" type="curve" smooth="yes"/>
      <point x="235" y="26"/>
      <point x="196" y="-11"/>
      <point x="148" y="-11" type="curve" smooth="yes"/>
      <point x="92" y="-11"/>
      <point x="66" y="23"/>
    </contour>
  </outline>
</glyph>
<glyph name="quotedbl" format="2">
  <advance width="427"/>
  <unicode hex="0022"/>
  <outline>
    <contour>
      <point x="166" y="383" type="line"/>
      <point x="174" y="592" type="line" smooth="yes"/>
      <point x="176" y="641"/>
      <point x="194" y="665"/>
      <point x="252" y="665" type="curve" smooth="yes"/>
      <point x="292" y="665"/>
      <point x="309" y="654"/>
      <point x="309" y="631" type="curve" smooth="yes"/>
      <point x="309" y="621"/>
      <point x="305" y="608"/>
      <point x="299" y="592" type="curve"/>
      <point x="210" y="383" type="line"/>
    </contour>
    <contour>
      <point x="357" y="383" type="line"/>
      <point x="365" y="592" type="line" smooth="yes"/>
      <point x="367" y="641"/>
      <point x="385" y="665"/>
      <point x="443" y="665" type="curve" smooth="yes"/>
      <point x="483" y="665"/>
      <point x="500" y="654"/>
      <point x="500" y="631" type="curve" smooth="yes"/>
      <point x="500" y="621"/>
      <point x="496" y="608"/>
      <point x="490" y="592" type="curve"/>
      <point x="400" y="383" type="line"/>
    </contour>
  </outline>
</glyph>
<glyph name="numbersign" format="2">
  <advance width="526"/>
  <unicode hex="0023"/>
  <outline>
    <contour>
      <point x="68" y="206" type="line"/>
      <point x="92" y="274" type="line"/>
      <point x="192" y="274" type="line"/>
      <point x="227" y="374" type="line"/>
      <point x="127" y="374" type="line"/>
      <point x="151" y="442" type="line"/>
      <point x="251" y="442" type="line"/>
      <point x="317" y="628" type="line"/>
      <point x="388" y="628" type="line"/>
      <point x="323" y="442" type="line"/>
      <point x="429" y="442" type="line"/>
      <point x="494" y="628" type="line"/>
      <point x="565" y="628" type="line"/>
      <point x="500" y="442" type="line"/>
      <point x="603" y="442" type="line"/>
      <point x="578" y="374" type="line"/>
      <point x="477" y="374" type="line"/>
      <point x="441" y="274" type="line"/>
      <point x="543" y="274" type="line"/>
      <point x="519" y="206" type="line"/>
      <point x="417" y="206" type="line"/>
      <point x="345" y="0" type="line"/>
      <point x="274" y="0" type="line"/>
      <point x="346" y="206" type="line"/>
      <point x="241" y="206" type="line"/>
      <point x="168" y="0" type="line"/>
      <point x="96" y="0" type="line"/>
      <point x="168" y="206" type="line"/>
    </contour>
    <contour>
      <point x="264" y="274" type="line"/>
      <point x="369" y="274" type="line"/>
      <point x="405" y="374" type="line"/>
      <point x="300" y="374" type="line"/>
    </contour>
  </outline>
</glyph>
<glyph name="dollar" format="2">
  <advance width="526"/>
  <unicode hex="0024"/>
  <outline>
    <contour>
      <point x="63" y="113" type="curve" smooth="yes"/>
      <point x="63" y="154"/>
      <point x="97" y="179"/>
      <point x="132" y="179" type="curve" smooth="yes"/>
      <point x="158" y="179"/>
      <point x="168" y="164"/>
      <point x="173" y="148" type="curve" smooth="yes"/>
      <point x="195" y="73"/>
      <point x="221" y="47"/>
      <point x="244" y="46" type="curve"/>
      <point x="296" y="274" type="line"/>
      <point x="179" y="327"/>
      <point x="149" y="388"/>
      <point x="149" y="445" type="curve" smooth="yes"/>
      <point x="149" y="555"/>
      <point x="244" y="628"/>
      <point x="378" y="628" type="curve"/>
      <point x="396" y="703" type="line"/>
      <point x="446" y="703" type="line"/>
      <point x="429" y="626" type="line"/>
      <point x="497" y="621"/>
      <point x="586" y="584"/>
      <point x="586" y="518" type="curve" smooth="yes"/>
      <point x="586" y="491"/>
      <point x="553" y="469"/>
      <point x="519" y="469" type="curve" smooth="yes"/>
      <point x="497" y="469"/>
      <point x="486" y="490"/>
      <point x="482" y="502" type="curve" smooth="yes"/>
      <point x="467" y="550"/>
      <point x="444" y="578"/>
      <point x="418" y="582" type="curve"/>
      <point x="372" y="381" type="line"/>
      <point x="465" y="341"/>
      <point x="535" y="292"/>
      <point x="535" y="186" type="curve" smooth="yes"/>
      <point x="535" y="101"/>
      <point x="474" y="0"/>
      <point x="287" y="0" type="curve"/>
      <point x="265" y="-98" type="line"/>
      <point x="213" y="-98" type="line"/>
      <point x="235" y="2" type="line"/>
      <point x="134" y="8"/>
      <point x="63" y="56"/>
    </contour>
    <contour>
      <point x="264" y="491" type="curve" smooth="yes"/>
      <point x="264" y="452"/>
      <point x="283" y="426"/>
      <point x="326" y="405" type="curve"/>
      <point x="368" y="585" type="line"/>
      <point x="319" y="585"/>
      <point x="264" y="551"/>
    </contour>
    <contour>
      <point x="295" y="43" type="line"/>
      <point x="367" y="43"/>
      <point x="414" y="83"/>
      <point x="414" y="146" type="curve" smooth="yes"/>
      <point x="414" y="195"/>
      <point x="393" y="227"/>
      <point x="342" y="251" type="curve"/>
    </contour>
  </outline>
</glyph>
<glyph name="percent" format="2">
  <advance width="842"/>
  <unicode hex="0025"/>
  <outline>
    <contour>
      <point x="133" y="420" type="curve" smooth="yes"/>
      <point x="133" y="541"/>
      <point x="212" y="639"/>
      <point x="336" y="639" type="curve" smooth="yes"/>
      <point x="372" y="639"/>
      <point x="409" y="627"/>
      <point x="439" y="608" type="curve" smooth="yes"/>
      <point x="451" y="600"/>
      <point x="468" y="595"/>
      <point x="512" y="595" type="curve" smooth="yes"/>
      <point x="627" y="595" type="line" smooth="yes"/>
      <point x="663" y="595"/>
      <point x="691" y="604"/>
      <point x="718" y="636" type="curve" smooth="yes"/>
      <point x="738" y="660" type="line"/>
      <point x="778" y="626" type="line"/>
      <point x="240" y="-29" type="line"/>
      <point x="201" y="7" type="line"/>
      <point x="650" y="553" type="line"/>
      <point x="469" y="553" type="line"/>
      <point x="473" y="533"/>
      <point x="475" y="516"/>
      <point x="475" y="507" type="curve" smooth="yes"/>
      <point x="475" y="383"/>
      <point x="399" y="290"/>
      <point x="270" y="290" type="curve" smooth="yes"/>
      <point x="165" y="290"/>
      <point x="133" y="352"/>
    </contour>
    <contour>
      <point x="235" y="392" type="curve" smooth="yes"/>
      <point x="235" y="358"/>
      <point x="244" y="327"/>
      <point x="277" y="327" type="curve" smooth="yes"/>
      <point x="354" y="327"/>
      <point x="372" y="496"/>
      <point x="372" y="534" type="curve" smooth="yes"/>
      <point x="372" y="567"/>
      <point x="367" y="602"/>
      <point x="332" y="602" type="curve" smooth="yes"/>
      <point x="257" y="602"/>
      <point x="235" y="425"/>
    </contour>
    <contour>
      <point x="499" y="119" type="curve" smooth="yes"/>
      <point x="499" y="240"/>
      <point x="578" y="338"/>
      <point x="702" y="338" type="curve" smooth="yes"/>
      <point x="817" y="338"/>
      <point x="842" y="273"/>
      <point x="842" y="206" type="curve" smooth="yes"/>
      <point x="842" y="80"/>
      <point x="767" y="-11"/>
      <point x="636" y="-11" type="curve" smooth="yes"/>
      <point x="531" y="-11"/>
      <point x="499" y="51"/>
    </contour>
    <contour>
      <point x="602" y="91" type="curve" smooth="yes"/>
      <point x="602" y="57"/>
      <point x="609" y="26"/>
      <point x="645" y="26" type="curve" smooth="yes"/>
      <point x="721" y="26"/>
      <point x="740" y="195"/>
      <point x="740" y="233" type="curve" smooth="yes"/>
      <point x="740" y="266"/>
      <point x="733" y="301"/>
      <point x="698" y="301" type="curve" smooth="yes"/>
      <point x="623" y="301"/>
      <point x="602" y="124"/>
    </contour>
  </outline>
</glyph>
<glyph name="ampersand" format="2">
  <advance width="706"/>
  <unicode hex="0026"/>
  <outline>
    <contour>
      <point x="91" y="161" type="curve" smooth="yes"/>
      <point x="91" y="278"/>
      <point x="193" y="324"/>
      <point x="255" y="352" type="curve"/>
      <point x="241" y="380"/>
      <point x="229" y="418"/>
      <point x="229" y="451" type="curve" smooth="yes"/>
      <point x="229" y="566"/>
      <point x="312" y="639"/>
      <point x="413" y="639" type="curve" smooth="yes"/>
      <point x="500" y="639"/>
      <point x="567" y="590"/>
      <point x="567" y="510" type="curve" smooth="yes"/>
      <point x="567" y="413"/>
      <point x="478" y="377"/>
      <point x="398" y="351" type="curve"/>
      <point x="432" y="296"/>
      <point x="486" y="220"/>
      <point x="540" y="163" type="curve"/>
      <point x="588" y="219"/>
      <point x="603" y="320"/>
      <point x="609" y="392" type="curve"/>
      <point x="634" y="411"/>
      <point x="671" y="418"/>
      <point x="698" y="418" type="curve" smooth="yes"/>
      <point x="715" y="418" type="line"/>
      <point x="722" y="406"/>
      <point x="725" y="389"/>
      <point x="725" y="373" type="curve" smooth="yes"/>
      <point x="725" y="292"/>
      <point x="627" y="179"/>
      <point x="572" y="130" type="curve"/>
      <point x="616" y="83"/>
      <point x="656" y="46"/>
      <point x="706" y="24" type="curve"/>
      <point x="701" y="-7" type="line"/>
      <point x="676" y="-5" type="line" smooth="yes"/>
      <point x="584" y="2"/>
      <point x="532" y="18"/>
      <point x="487" y="54" type="curve"/>
      <point x="437" y="12"/>
      <point x="358" y="-11"/>
      <point x="290" y="-11" type="curve" smooth="yes"/>
      <point x="158" y="-11"/>
      <point x="91" y="71"/>
    </contour>
    <contour>
      <point x="222" y="187" type="curve" smooth="yes"/>
      <point x="222" y="107"/>
      <point x="281" y="54"/>
      <point x="359" y="54" type="curve" smooth="yes"/>
      <point x="393" y="54"/>
      <point x="434" y="67"/>
      <point x="452" y="84" type="curve"/>
      <point x="371" y="151"/>
      <point x="306" y="250"/>
      <point x="275" y="308" type="curve"/>
      <point x="260" y="299"/>
      <point x="222" y="258"/>
    </contour>
    <contour>
      <point x="345" y="489" type="curve" smooth="yes"/>
      <point x="345" y="451"/>
      <point x="361" y="414"/>
      <point x="377" y="389" type="curve"/>
      <point x="423" y="409"/>
      <point x="467" y="462"/>
      <point x="467" y="534" type="curve" smooth="yes"/>
      <point x="467" y="568"/>
      <point x="447" y="596"/>
      <point x="418" y="596" type="curve" smooth="yes"/>
      <point x="380" y="596"/>
      <point x="345" y="558"/>
    </contour>
  </outline>
</glyph>
<glyph name="quotesingle" format="2">
  <advance width="231"/>
  <unicode hex="0027"/>
  <outline>
    <contour>
      <point x="159" y="353" type="line"/>
      <point x="169" y="592" type="line" smooth="yes"/>
      <point x="171" y="641"/>
      <point x="187" y="665"/>
      <point x="245" y="665" type="curve" smooth="yes"/>
      <point x="285" y="665"/>
      <point x="301" y="654"/>
      <point x="301" y="631" type="curve" smooth="yes"/>
      <point x="301" y="621"/>
      <point x="298" y="608"/>
      <point x="292" y="592" type="curve" smooth="yes"/>
      <point x="202" y="353" type="line"/>
    </contour>
  </outline>
</glyph>
<glyph name="parenleft" format="2">
  <advance width="387"/>
  <unicode hex="0028"/>
  <outline>
    <contour>
      <point x="63" y="90" type="curve" smooth="yes"/>
      <point x="63" y="310"/>
      <point x="169" y="757"/>
      <point x="463.5" y="757" type="curve"/>
      <point x="463.5" y="718" type="line"/>
      <point x="270" y="684"/>
      <point x="176" y="239"/>
      <point x="176" y="56" type="curve" smooth="yes"/>
      <point x="176" y="-42"/>
      <point x="195" y="-134"/>
      <point x="257" y="-156" type="curve"/>
      <point x="243" y="-195" type="line"/>
      <point x="99" y="-179"/>
      <point x="63" y="-31"/>
    </contour>
  </outline>
</glyph>
<glyph name="parenright" format="2">
  <advance width="391"/>
  <unicode hex="0029"/>
  <outline>
    <contour>
      <point x="-32" y="-195" type="curve"/>
      <point x="-26" y="-156" type="line"/>
      <point x="167" y="-122"/>
      <point x="255" y="324"/>
      <point x="255" y="506" type="curve" smooth="yes"/>
      <point x="255" y="604"/>
      <point x="238" y="696"/>
      <point x="176" y="718" type="curve"/>
      <point x="186" y="757" type="line"/>
      <point x="331" y="741"/>
      <point x="368" y="593"/>
      <point x="368" y="472" type="curve" smooth="yes"/>
      <point x="368" y="252"/>
      <point x="265" y="-195"/>
    </contour>
  </outline>
</glyph>
<glyph name="asterisk" format="2">
  <advance width="470"/>
  <unicode hex="002A"/>
  <outline>
    <contour>
      <point x="147" y="415" type="curve" smooth="yes"/>
      <point x="147" y="430"/>
      <point x="155" y="442"/>
      <point x="172" y="446" type="curve" smooth="yes"/>
      <point x="281" y="473" type="line" smooth="yes"/>
      <point x="292" y="476"/>
      <point x="298" y="481"/>
      <point x="298" y="486" type="curve" smooth="yes"/>
      <point x="298" y="491"/>
      <point x="292" y="496"/>
      <point x="280" y="500" type="curve"/>
      <point x="206" y="520" type="line"/>
      <point x="190" y="525"/>
      <point x="184" y="536"/>
      <point x="184" y="550" type="curve" smooth="yes"/>
      <point x="184" y="576"/>
      <point x="207" y="604"/>
      <point x="234" y="604" type="curve" smooth="yes"/>
      <point x="242" y="604"/>
      <point x="249" y="601"/>
      <point x="254" y="595" type="curve" smooth="yes"/>
      <point x="306" y="535" type="line" smooth="yes"/>
      <point x="311" y="529"/>
      <point x="316" y="526"/>
      <point x="320" y="526" type="curve" smooth="yes"/>
      <point x="327" y="526"/>
      <point x="331" y="533"/>
      <point x="331" y="544" type="curve"/>
      <point x="323" y="625" type="line"/>
      <point x="319" y="658"/>
      <point x="345" y="665"/>
      <point x="374" y="665" type="curve" smooth="yes"/>
      <point x="403" y="665"/>
      <point x="419" y="655"/>
      <point x="419" y="639" type="curve" smooth="yes"/>
      <point x="419" y="634"/>
      <point x="417" y="628"/>
      <point x="414" y="622" type="curve"/>
      <point x="371" y="545" type="line"/>
      <point x="369" y="541"/>
      <point x="368" y="536"/>
      <point x="368" y="533" type="curve" smooth="yes"/>
      <point x="368" y="527"/>
      <point x="372" y="524"/>
      <point x="377" y="524" type="curve" smooth="yes"/>
      <point x="382" y="524"/>
      <point x="387" y="526"/>
      <point x="394" y="532" type="curve" smooth="yes"/>
      <point x="464" y="593" type="line" smooth="yes"/>
      <point x="471" y="599"/>
      <point x="478" y="601"/>
      <point x="486" y="601" type="curve" smooth="yes"/>
      <point x="511" y="601"/>
      <point x="530" y="573"/>
      <point x="530" y="550" type="curve" smooth="yes"/>
      <point x="530" y="534"/>
      <point x="521" y="521"/>
      <point x="505" y="517" type="curve"/>
      <point x="400" y="496" type="line" smooth="yes"/>
      <point x="386" y="493"/>
      <point x="379" y="487"/>
      <point x="379" y="481" type="curve" smooth="yes"/>
      <point x="379" y="477"/>
      <point x="383" y="473"/>
      <point x="392" y="470" type="curve" smooth="yes"/>
      <point x="468" y="446" type="line" smooth="yes"/>
      <point x="485" y="441"/>
      <point x="493" y="430"/>
      <point x="493" y="417" type="curve" smooth="yes"/>
      <point x="493" y="397"/>
      <point x="471" y="362"/>
      <point x="449" y="362" type="curve" smooth="yes"/>
      <point x="439" y="362"/>
      <point x="429" y="368"/>
      <point x="418" y="380" type="curve"/>
      <point x="369" y="438" type="line"/>
      <point x="365" y="443"/>
      <point x="361" y="445"/>
      <point x="358" y="445" type="curve" smooth="yes"/>
      <point x="347" y="445"/>
      <point x="347" y="427"/>
      <point x="347" y="420" type="curve"/>
      <point x="353" y="336" type="line" smooth="yes"/>
      <point x="355" y="305"/>
      <point x="336" y="296"/>
      <point x="307" y="296" type="curve" smooth="yes"/>
      <point x="277" y="296"/>
      <point x="260" y="308"/>
      <point x="260" y="326" type="curve" smooth="yes"/>
      <point x="260" y="332"/>
      <point x="261" y="337"/>
      <point x="265" y="344" type="curve"/>
      <point x="307" y="425" type="line" smooth="yes"/>
      <point x="309" y="429"/>
      <point x="310" y="433"/>
      <point x="310" y="436" type="curve" smooth="yes"/>
      <point x="310" y="442"/>
      <point x="307" y="446"/>
      <point x="302" y="446" type="curve" smooth="yes"/>
      <point x="298" y="446"/>
      <point x="291" y="443"/>
      <point x="285" y="437" type="curve" smooth="yes"/>
      <point x="220" y="374" type="line"/>
      <point x="210" y="365"/>
      <point x="199" y="360"/>
      <point x="190" y="360" type="curve" smooth="yes"/>
      <point x="165" y="360"/>
      <point x="147" y="393"/>
    </contour>
  </outline>
</glyph>
<glyph name="plus" format="2">
  <advance width="564"/>
  <unicode hex="002B"/>
  <outline>
    <contour>
      <point x="111" y="197" type="line"/>
      <point x="111" y="273" type="line"/>
      <point x="293" y="273" type="line"/>
      <point x="293" y="461" type="line"/>
      <point x="384" y="461" type="line"/>
      <point x="384" y="273" type="line"/>
      <point x="566" y="273" type="line"/>
      <point x="566" y="197" type="line"/>
      <point x="384" y="197" type="line"/>
      <point x="384" y="0" type="line"/>
      <point x="293" y="0" type="line"/>
      <point x="293" y="197" type="line"/>
    </contour>
  </outline>
</glyph>
<glyph name="comma" format="2">
  <advance width="263"/>
  <unicode hex="002C"/>
  <outline>
    <contour>
      <point x="24" y="-130" type="line"/>
      <point x="61" y="-94"/>
      <point x="99" y="-48"/>
      <point x="99" y="1" type="curve" smooth="yes"/>
      <point x="99" y="19"/>
      <point x="92" y="37"/>
      <point x="87" y="47" type="curve" smooth="yes"/>
      <point x="79" y="63"/>
      <point x="75" y="74"/>
      <point x="75" y="93" type="curve" smooth="yes"/>
      <point x="75" y="136"/>
      <point x="109" y="169"/>
      <point x="152" y="169" type="curve" smooth="yes"/>
      <point x="203" y="169"/>
      <point x="227" y="131"/>
      <point x="227" y="86" type="curve" smooth="yes"/>
      <point x="227" y="-17"/>
      <point x="124" y="-102"/>
      <point x="49" y="-157" type="curve"/>
    </contour>
  </outline>
</glyph>
<glyph name="period" format="2">
  <advance width="263"/>
  <unicode hex="002E"/>
  <outline>
    <contour>
      <point x="63" y="63" type="curve" smooth="yes"/>
      <point x="63" y="120"/>
      <point x="103" y="156"/>
      <point x="153" y="156" type="curve" smooth="yes"/>
      <point x="208" y="156"/>
      <point x="232" y="122"/>
      <point x="232" y="83" type="curve" smooth="yes"/>
      <point x="232" y="26"/>
      <point x="193" y="-11"/>
      <point x="145" y="-11" type="curve" smooth="yes"/>
      <point x="89" y="-11"/>
      <point x="63" y="23"/>
    </contour>
  </outline>
</glyph>
<glyph name="slash" format="2">
  <advance width="244"/>
  <unicode hex="002F"/>
  <outline>
    <contour>
      <point x="18" y="-14" type="line"/>
      <point x="274" y="665" type="line"/>
      <point x="368" y="665" type="line"/>
      <point x="112" y="-14" type="line"/>
    </contour>
  </outline>
</glyph>
<glyph name="zero" format="2">
  <advance width="526"/>
  <unicode hex="0030"/>
  <outline>
    <contour>
      <point x="86" y="205" type="curve" smooth="yes"/>
      <point x="86" y="381"/>
      <point x="170" y="639"/>
      <point x="383" y="639" type="curve" smooth="yes"/>
      <point x="555" y="639"/>
      <point x="581" y="511"/>
      <point x="581" y="429" type="curve" smooth="yes"/>
      <point x="581" y="252"/>
      <point x="502" y="-11"/>
      <point x="288" y="-11" type="curve" smooth="yes"/>
      <point x="134" y="-11"/>
      <point x="86" y="98"/>
    </contour>
    <contour>
      <point x="218" y="125" type="curve" smooth="yes"/>
      <point x="218" y="63"/>
      <point x="242" y="32"/>
      <point x="279" y="32" type="curve" smooth="yes"/>
      <point x="388" y="32"/>
      <point x="449" y="419"/>
      <point x="449" y="506" type="curve" smooth="yes"/>
      <point x="449" y="556"/>
      <point x="435" y="596"/>
      <point x="392" y="596" type="curve" smooth="yes"/>
      <point x="275" y="596"/>
      <point x="218" y="209"/>
    </contour>
  </outline>
</glyph>
<glyph name="one" format="2">
  <advance width="526"/>
  <unicode hex="0031"/>
  <outline>
    <contour>
      <point x="101" y="0" type="line"/>
      <point x="108" y="36" type="line"/>
      <point x="176" y="40" type="line" smooth="yes"/>
      <point x="198" y="41"/>
      <point x="208" y="49"/>
      <point x="214" y="76" type="curve" smooth="yes"/>
      <point x="314" y="523" type="line"/>
      <point x="315" y="530"/>
      <point x="316" y="536"/>
      <point x="316" y="541" type="curve" smooth="yes"/>
      <point x="316" y="554"/>
      <point x="310" y="557"/>
      <point x="299" y="560" type="curve"/>
      <point x="227" y="572" type="line"/>
      <point x="235" y="603" type="line"/>
      <point x="467" y="639" type="line"/>
      <point x="475" y="633" type="line"/>
      <point x="352" y="76" type="line" smooth="yes"/>
      <point x="351" y="71"/>
      <point x="350" y="66"/>
      <point x="350" y="62" type="curve" smooth="yes"/>
      <point x="350" y="46"/>
      <point x="359" y="41"/>
      <point x="378" y="40" type="curve" smooth="yes"/>
      <point x="446" y="36" type="line"/>
      <point x="439" y="0" type="line"/>
    </contour>
  </outline>
</glyph>
<glyph name="two" format="2">
  <advance width="526"/>
  <unicode hex="0032"/>
  <outline>
    <contour>
      <point x="37" y="15" type="line"/>
      <point x="55" y="109"/>
      <point x="136" y="179"/>
      <point x="252" y="260" type="curve" smooth="yes"/>
      <point x="355" y="332"/>
      <point x="430" y="414"/>
      <point x="430" y="522" type="curve" smooth="yes"/>
      <point x="430" y="564"/>
      <point x="413" y="596"/>
      <point x="372" y="596" type="curve" smooth="yes"/>
      <point x="329" y="596"/>
      <point x="298" y="555"/>
      <point x="267" y="478" type="curve" smooth="yes"/>
      <point x="256" y="452"/>
      <point x="245" y="431"/>
      <point x="215" y="431" type="curve" smooth="yes"/>
      <point x="182" y="431"/>
      <point x="147" y="456"/>
      <point x="147" y="498" type="curve" smooth="yes"/>
      <point x="147" y="566"/>
      <point x="231" y="639"/>
      <point x="368" y="639" type="curve" smooth="yes"/>
      <point x="503" y="639"/>
      <point x="576" y="576"/>
      <point x="576" y="474" type="curve" smooth="yes"/>
      <point x="576" y="368"/>
      <point x="503" y="307"/>
      <point x="386" y="258" type="curve" smooth="yes"/>
      <point x="331" y="235"/>
      <point x="207" y="164"/>
      <point x="193" y="109" type="curve"/>
      <point x="413" y="109" type="line" smooth="yes"/>
      <point x="455" y="109"/>
      <point x="466" y="119"/>
      <point x="494" y="163" type="curve"/>
      <point x="532" y="159" type="line"/>
      <point x="476" y="0" type="line"/>
      <point x="49" y="0" type="line"/>
    </contour>
  </outline>
</glyph>
<glyph name="three" format="2">
  <advance width="526"/>
  <unicode hex="0033"/>
  <outline>
    <contour>
      <point x="53" y="111" type="curve" smooth="yes"/>
      <point x="53" y="155"/>
      <point x="94" y="183"/>
      <point x="125" y="183" type="curve" smooth="yes"/>
      <point x="155" y="183"/>
      <point x="165" y="160"/>
      <point x="171" y="140" type="curve" smooth="yes"/>
      <point x="195" y="56"/>
      <point x="225" y="32"/>
      <point x="269" y="32" type="curve" smooth="yes"/>
      <point x="326" y="32"/>
      <point x="378" y="94"/>
      <point x="378" y="203" type="curve" smooth="yes"/>
      <point x="378" y="287"/>
      <point x="345" y="315"/>
      <point x="304" y="315" type="curve" smooth="yes"/>
      <point x="262" y="315"/>
      <point x="229" y="302"/>
      <point x="211" y="302" type="curve" smooth="yes"/>
      <point x="193" y="302"/>
      <point x="187" y="314"/>
      <point x="187" y="331" type="curve" smooth="yes"/>
      <point x="187" y="355"/>
      <point x="197" y="379"/>
      <point x="216" y="379" type="curve" smooth="yes"/>
      <point x="236" y="379"/>
      <point x="267" y="365"/>
      <point x="307" y="365" type="curve" smooth="yes"/>
      <point x="377" y="365"/>
      <point x="424" y="449"/>
      <point x="424" y="525" type="curve" smooth="yes"/>
      <point x="424" y="566"/>
      <point x="402" y="596"/>
      <point x="365" y="596" type="curve" smooth="yes"/>
      <point x="324" y="596"/>
      <point x="293" y="562"/>
      <point x="263" y="494" type="curve" smooth="yes"/>
      <point x="255" y="475"/>
      <point x="245" y="459"/>
      <point x="219" y="459" type="curve" smooth="yes"/>
      <point x="186" y="459"/>
      <point x="151" y="481"/>
      <point x="151" y="517" type="curve" smooth="yes"/>
      <point x="151" y="565"/>
      <point x="219" y="639"/>
      <point x="360" y="639" type="curve" smooth="yes"/>
      <point x="494" y="639"/>
      <point x="566" y="577"/>
      <point x="566" y="486" type="curve" smooth="yes"/>
      <point x="566" y="400"/>
      <point x="499" y="354"/>
      <point x="401" y="345" type="curve"/>
      <point x="401" y="341" type="line"/>
      <point x="487" y="319"/>
      <point x="528" y="259"/>
      <point x="528" y="188" type="curve" smooth="yes"/>
      <point x="528" y="43"/>
      <point x="396" y="-11"/>
      <point x="271" y="-11" type="curve" smooth="yes"/>
      <point x="127" y="-11"/>
      <point x="53" y="53"/>
    </contour>
  </outline>
</glyph>
<glyph name="four" format="2">
  <advance width="526"/>
  <unicode hex="0034"/>
  <outline>
    <contour>
      <point x="59" y="193" type="line"/>
      <point x="177" y="345"/>
      <point x="303" y="489"/>
      <point x="446" y="628" type="curve"/>
      <point x="556" y="628" type="line"/>
      <point x="467" y="225" type="line"/>
      <point x="555" y="225" type="line"/>
      <point x="540" y="164" type="line"/>
      <point x="454" y="164" type="line"/>
      <point x="432" y="68" type="line" smooth="yes"/>
      <point x="431" y="64"/>
      <point x="431" y="60"/>
      <point x="431" y="57" type="curve" smooth="yes"/>
      <point x="431" y="45"/>
      <point x="439" y="39"/>
      <point x="450" y="39" type="curve"/>
      <point x="495" y="36" type="line"/>
      <point x="487" y="0" type="line"/>
      <point x="199" y="0" type="line"/>
      <point x="208" y="36" type="line"/>
      <point x="269" y="40" type="line" smooth="yes"/>
      <point x="285" y="41"/>
      <point x="295" y="48"/>
      <point x="300" y="68" type="curve"/>
      <point x="321" y="164" type="line"/>
      <point x="72" y="164" type="line"/>
    </contour>
    <contour>
      <point x="167" y="225" type="line"/>
      <point x="334" y="225" type="line"/>
      <point x="401" y="510" type="line"/>
      <point x="398" y="510" type="line"/>
      <point x="313.5" y="418"/>
      <point x="236" y="325"/>
      <point x="164" y="228" type="curve"/>
    </contour>
  </outline>
</glyph>
<glyph name="five" format="2">
  <advance width="526"/>
  <unicode hex="0035"/>
  <outline>
    <contour>
      <point x="55" y="111" type="curve" smooth="yes"/>
      <point x="55" y="152"/>
      <point x="92" y="183"/>
      <point x="131" y="183" type="curve" smooth="yes"/>
      <point x="158" y="183"/>
      <point x="166" y="163"/>
      <point x="174" y="137" type="curve" smooth="yes"/>
      <point x="198" y="54"/>
      <point x="226" y="32"/>
      <point x="268" y="32" type="curve" smooth="yes"/>
      <point x="326" y="32"/>
      <point x="382" y="103"/>
      <point x="382" y="227" type="curve" smooth="yes"/>
      <point x="382" y="297"/>
      <point x="347" y="346"/>
      <point x="285" y="346" type="curve" smooth="yes"/>
      <point x="241" y="346"/>
      <point x="206" y="327"/>
      <point x="171" y="286" type="curve"/>
      <point x="137" y="309" type="line"/>
      <point x="200" y="618" type="line"/>
      <point x="214" y="628" type="line"/>
      <point x="584" y="628" type="line"/>
      <point x="590" y="617" type="line"/>
      <point x="533" y="519" type="line"/>
      <point x="274" y="519" type="line" smooth="yes"/>
      <point x="253" y="519"/>
      <point x="247" y="515"/>
      <point x="239" y="490" type="curve" smooth="yes"/>
      <point x="196" y="359" type="line"/>
      <point x="198" y="357" type="line"/>
      <point x="235" y="382"/>
      <point x="283" y="405"/>
      <point x="342" y="405" type="curve" smooth="yes"/>
      <point x="472" y="405"/>
      <point x="531" y="329"/>
      <point x="531" y="224" type="curve" smooth="yes"/>
      <point x="531" y="66"/>
      <point x="407" y="-11"/>
      <point x="265" y="-11" type="curve" smooth="yes"/>
      <point x="144" y="-11"/>
      <point x="55" y="40"/>
    </contour>
  </outline>
</glyph>
<glyph name="six" format="2">
  <advance width="526"/>
  <unicode hex="0036"/>
  <outline>
    <contour>
      <point x="86" y="209" type="curve" smooth="yes"/>
      <point x="86" y="402"/>
      <point x="180" y="639"/>
      <point x="403" y="639" type="curve" smooth="yes"/>
      <point x="536" y="639"/>
      <point x="584" y="561"/>
      <point x="584" y="525" type="curve" smooth="yes"/>
      <point x="584" y="481"/>
      <point x="543" y="463"/>
      <point x="515" y="463" type="curve" smooth="yes"/>
      <point x="491" y="463"/>
      <point x="480" y="481"/>
      <point x="476" y="502" type="curve" smooth="yes"/>
      <point x="464" y="563"/>
      <point x="438" y="596"/>
      <point x="400" y="596" type="curve" smooth="yes"/>
      <point x="338" y="596"/>
      <point x="276" y="485"/>
      <point x="243" y="338" type="curve"/>
      <point x="246" y="338" type="line"/>
      <point x="278" y="375"/>
      <point x="333" y="404"/>
      <point x="377" y="404" type="curve" smooth="yes"/>
      <point x="492" y="404"/>
      <point x="552" y="333"/>
      <point x="552" y="225" type="curve" smooth="yes"/>
      <point x="552" y="98"/>
      <point x="463" y="-11"/>
      <point x="304" y="-11" type="curve" smooth="yes"/>
      <point x="137" y="-11"/>
      <point x="86" y="94"/>
    </contour>
    <contour>
      <point x="222" y="152" type="curve" smooth="yes"/>
      <point x="222" y="86"/>
      <point x="245" y="32"/>
      <point x="301" y="32" type="curve" smooth="yes"/>
      <point x="364" y="32"/>
      <point x="408" y="121"/>
      <point x="408" y="231" type="curve" smooth="yes"/>
      <point x="408" y="297"/>
      <point x="376" y="332"/>
      <point x="330" y="332" type="curve" smooth="yes"/>
      <point x="238" y="332"/>
      <point x="222" y="221"/>
    </contour>
  </outline>
</glyph>
<glyph name="seven" format="2">
  <advance width="526"/>
  <unicode hex="0037"/>
  <outline>
    <contour>
      <point x="138" y="477" type="line"/>
      <point x="193" y="628" type="line"/>
      <point x="618" y="628" type="line"/>
      <point x="627" y="617" type="line"/>
      <point x="604" y="535"/>
      <point x="526" y="441"/>
      <point x="434" y="337" type="curve" smooth="yes"/>
      <point x="363" y="256"/>
      <point x="330" y="166"/>
      <point x="314" y="44" type="curve" smooth="yes"/>
      <point x="309" y="6"/>
      <point x="289" y="-11"/>
      <point x="242" y="-11" type="curve" smooth="yes"/>
      <point x="193" y="-11"/>
      <point x="165" y="8"/>
      <point x="165" y="44" type="curve" smooth="yes"/>
      <point x="165" y="138"/>
      <point x="264" y="240"/>
      <point x="367" y="342" type="curve" smooth="yes"/>
      <point x="441" y="416"/>
      <point x="487" y="497"/>
      <point x="495" y="519" type="curve"/>
      <point x="258" y="519" type="line" smooth="yes"/>
      <point x="212" y="519"/>
      <point x="195" y="506"/>
      <point x="182" y="484" type="curve" smooth="yes"/>
      <point x="171" y="466" type="line"/>
    </contour>
  </outline>
</glyph>
<glyph name="eight" format="2">
  <advance width="526"/>
  <unicode hex="0038"/>
  <outline>
    <contour>
      <point x="68" y="161" type="curve" smooth="yes"/>
      <point x="68" y="258"/>
      <point x="138" y="336"/>
      <point x="239" y="344" type="curve"/>
      <point x="239" y="347" type="line"/>
      <point x="200" y="358"/>
      <point x="154" y="395"/>
      <point x="154" y="463" type="curve" smooth="yes"/>
      <point x="154" y="592"/>
      <point x="266" y="639"/>
      <point x="379" y="639" type="curve" smooth="yes"/>
      <point x="538" y="639"/>
      <point x="582" y="560"/>
      <point x="582" y="489" type="curve" smooth="yes"/>
      <point x="582" y="393"/>
      <point x="508" y="352"/>
      <point x="442" y="341" type="curve"/>
      <point x="442" y="337" type="line"/>
      <point x="497" y="322"/>
      <point x="544" y="272"/>
      <point x="544" y="198" type="curve" smooth="yes"/>
      <point x="544" y="47"/>
      <point x="426" y="-11"/>
      <point x="290" y="-11" type="curve" smooth="yes"/>
      <point x="130" y="-11"/>
      <point x="68" y="71"/>
    </contour>
    <contour>
      <point x="213" y="125" type="curve" smooth="yes"/>
      <point x="213" y="69"/>
      <point x="240" y="32"/>
      <point x="287" y="32" type="curve" smooth="yes"/>
      <point x="353" y="32"/>
      <point x="399" y="119"/>
      <point x="399" y="222" type="curve" smooth="yes"/>
      <point x="399" y="277"/>
      <point x="378" y="313"/>
      <point x="327" y="313" type="curve" smooth="yes"/>
      <point x="270" y="313"/>
      <point x="213" y="235"/>
    </contour>
    <contour>
      <point x="291" y="431" type="curve" smooth="yes"/>
      <point x="291" y="377"/>
      <point x="315" y="356"/>
      <point x="349" y="356" type="curve" smooth="yes"/>
      <point x="401" y="356"/>
      <point x="445" y="431"/>
      <point x="445" y="533" type="curve" smooth="yes"/>
      <point x="445" y="561"/>
      <point x="430" y="596"/>
      <point x="390" y="596" type="curve" smooth="yes"/>
      <point x="325" y="596"/>
      <point x="291" y="501"/>
    </contour>
  </outline>
</glyph>
<glyph name="nine" format="2">
  <advance width="526"/>
  <unicode hex="0039"/>
  <outline>
    <contour>
      <point x="78" y="105" type="curve" smooth="yes"/>
      <point x="78" y="142"/>
      <point x="111" y="170"/>
      <point x="149" y="170" type="curve" smooth="yes"/>
      <point x="175" y="170"/>
      <point x="187" y="149"/>
      <point x="193" y="125" type="curve" smooth="yes"/>
      <point x="211" y="56"/>
      <point x="234" y="34"/>
      <point x="269" y="34" type="curve" smooth="yes"/>
      <point x="362" y="34"/>
      <point x="412" y="216"/>
      <point x="421" y="302" type="curve"/>
      <point x="419" y="303" type="line"/>
      <point x="387" y="268"/>
      <point x="346" y="241"/>
      <point x="291" y="241" type="curve" smooth="yes"/>
      <point x="198" y="241"/>
      <point x="122" y="304"/>
      <point x="122" y="404" type="curve" smooth="yes"/>
      <point x="122" y="543"/>
      <point x="219" y="639"/>
      <point x="358" y="639" type="curve" smooth="yes"/>
      <point x="512" y="639"/>
      <point x="569" y="545"/>
      <point x="569" y="408" type="curve" smooth="yes"/>
      <point x="569" y="223"/>
      <point x="493" y="-11"/>
      <point x="273" y="-11" type="curve" smooth="yes"/>
      <point x="154" y="-11"/>
      <point x="78" y="49"/>
    </contour>
    <contour>
      <point x="259" y="412" type="curve" smooth="yes"/>
      <point x="259" y="354"/>
      <point x="287" y="308"/>
      <point x="341" y="308" type="curve" smooth="yes"/>
      <point x="430" y="308"/>
      <point x="439" y="425"/>
      <point x="439" y="490" type="curve" smooth="yes"/>
      <point x="439" y="552"/>
      <point x="419" y="600"/>
      <point x="368" y="600" type="curve" smooth="yes"/>
      <point x="305" y="600"/>
      <point x="259" y="512"/>
    </contour>
  </outline>
</glyph>
<glyph name="colon" format="2">
  <advance width="263"/>
  <unicode hex="003A"/>
  <outline>
    <contour>
      <point x="127" y="368" type="curve" smooth="yes"/>
      <point x="127" y="425"/>
      <point x="167" y="461"/>
      <point x="217" y="461" type="curve" smooth="yes"/>
      <point x="272" y="461"/>
      <point x="296" y="426"/>
      <point x="296" y="387" type="curve" smooth="yes"/>
      <point x="296" y="330"/>
      <point x="257" y="293"/>
      <point x="209" y="293" type="curve" smooth="yes"/>
      <point x="153" y="293"/>
      <point x="127" y="328"/>
    </contour>
    <contour>
      <point x="63" y="63" type="curve" smooth="yes"/>
      <point x="63" y="120"/>
      <point x="103" y="156"/>
      <point x="153" y="156" type="curve" smooth="yes"/>
      <point x="208" y="156"/>
      <point x="232" y="122"/>
      <point x="232" y="83" type="curve" smooth="yes"/>
      <point x="232" y="26"/>
      <point x="193" y="-11"/>
      <point x="145" y="-11" type="curve" smooth="yes"/>
      <point x="89" y="-11"/>
      <point x="63" y="23"/>
    </contour>
  </outline>
</glyph>
<glyph name="semicolon" format="2">
  <advance width="263"/>
  <unicode hex="003B"/>
  <outline>
    <contour>
      <point x="127" y="368" type="curve" smooth="yes"/>
      <point x="127" y="425"/>
      <point x="167" y="461"/>
      <point x="217" y="461" type="curve" smooth="yes"/>
      <point x="272" y="461"/>
      <point x="296" y="426"/>
      <point x="296" y="387" type="curve" smooth="yes"/>
      <point x="296" y="330"/>
      <point x="257" y="293"/>
      <point x="209" y="293" type="curve" smooth="yes"/>
      <point x="153" y="293"/>
      <point x="127" y="328"/>
    </contour>
    <contour>
      <point x="24" y="-130" type="line"/>
      <point x="61" y="-94"/>
      <point x="99" y="-48"/>
      <point x="99" y="1" type="curve" smooth="yes"/>
      <point x="99" y="19"/>
      <point x="92" y="37"/>
      <point x="87" y="47" type="curve" smooth="yes"/>
      <point x="79" y="63"/>
      <point x="75" y="74"/>
      <point x="75" y="93" type="curve" smooth="yes"/>
      <point x="75" y="136"/>
      <point x="109" y="169"/>
      <point x="152" y="169" type="curve" smooth="yes"/>
      <point x="203" y="169"/>
      <point x="227" y="131"/>
      <point x="227" y="86" type="curve" smooth="yes"/>
      <point x="227" y="-17"/>
      <point x="124" y="-102"/>
      <point x="49" y="-157" type="curve"/>
    </contour>
  </outline>
</glyph>
<glyph name="less" format="2">
  <advance width="564"/>
  <unicode hex="003C"/>
  <outline>
    <contour>
      <point x="95" y="196" type="line"/>
      <point x="95" y="274" type="line"/>
      <point x="544" y="465" type="line"/>
      <point x="544" y="380" type="line"/>
      <point x="186" y="235" type="line"/>
      <point x="544" y="90" type="line"/>
      <point x="544" y="5" type="line"/>
    </contour>
  </outline>
</glyph>
<glyph name="equal" format="2">
  <advance width="564"/>
  <unicode hex="003D"/>
  <outline>
    <contour>
      <point x="111" y="97" type="line"/>
      <point x="111" y="172" type="line"/>
      <point x="566" y="172" type="line"/>
      <point x="566" y="97" type="line"/>
    </contour>
    <contour>
      <point x="111" y="298" type="line"/>
      <point x="111" y="373" type="line"/>
      <point x="566" y="373" type="line"/>
      <point x="566" y="298" type="line"/>
    </contour>
  </outline>
</glyph>
<glyph name="greater" format="2">
  <advance width="564"/>
  <unicode hex="003E"/>
  <outline>
    <contour>
      <point x="114" y="5" type="line"/>
      <point x="114" y="90" type="line"/>
      <point x="472" y="235" type="line"/>
      <point x="114" y="380" type="line"/>
      <point x="114" y="465" type="line"/>
      <point x="563" y="274" type="line"/>
      <point x="563" y="196" type="line"/>
    </contour>
  </outline>
</glyph>
<glyph name="question" format="2">
  <advance width="426"/>
  <unicode hex="003F"/>
  <outline>
    <contour>
      <point x="152" y="294" type="curve" smooth="yes"/>
      <point x="152" y="342"/>
      <point x="190" y="377"/>
      <point x="253" y="411" type="curve" smooth="yes"/>
      <point x="332" y="453"/>
      <point x="377" y="508"/>
      <point x="377" y="578" type="curve" smooth="yes"/>
      <point x="377" y="601"/>
      <point x="368" y="621"/>
      <point x="345" y="621" type="curve" smooth="yes"/>
      <point x="318" y="621"/>
      <point x="290" y="590"/>
      <point x="261" y="523" type="curve"/>
      <point x="253" y="503"/>
      <point x="239" y="491"/>
      <point x="215" y="491" type="curve" smooth="yes"/>
      <point x="188" y="491"/>
      <point x="144" y="507"/>
      <point x="144" y="550" type="curve" smooth="yes"/>
      <point x="144" y="596"/>
      <point x="202" y="665"/>
      <point x="334" y="665" type="curve" smooth="yes"/>
      <point x="458" y="665"/>
      <point x="517" y="616"/>
      <point x="517" y="539" type="curve" smooth="yes"/>
      <point x="517" y="467"/>
      <point x="459" y="428"/>
      <point x="387" y="400" type="curve" smooth="yes"/>
      <point x="330" y="378"/>
      <point x="288" y="350"/>
      <point x="288" y="309" type="curve" smooth="yes"/>
      <point x="288" y="271"/>
      <point x="327" y="264"/>
      <point x="356" y="264" type="curve" smooth="yes"/>
      <point x="363" y="264"/>
      <point x="367" y="264"/>
      <point x="374" y="265" type="curve"/>
      <point x="381" y="238" type="line"/>
      <point x="349" y="216"/>
      <point x="299" y="205"/>
      <point x="261" y="205" type="curve" smooth="yes"/>
      <point x="197" y="205"/>
      <point x="152" y="240"/>
    </contour>
    <contour>
      <point x="141" y="63" type="curve" smooth="yes"/>
      <point x="141" y="120"/>
      <point x="181" y="156"/>
      <point x="231" y="156" type="curve" smooth="yes"/>
      <point x="286" y="156"/>
      <point x="310" y="122"/>
      <point x="310" y="83" type="curve" smooth="yes"/>
      <point x="310" y="26"/>
      <point x="271" y="-11"/>
      <point x="223" y="-11" type="curve" smooth="yes"/>
      <point x="167" y="-11"/>
      <point x="141" y="23"/>
    </contour>
  </outline>
</glyph>
<glyph name="at" format="2">
  <advance width="778"/>
  <unicode hex="0040"/>
  <outline>
    <contour>
      <point x="118" y="289" type="curve" smooth="yes"/>
      <point x="118" y="524"/>
      <point x="308" y="665"/>
      <point x="519" y="665" type="curve" smooth="yes"/>
      <point x="708" y="665"/>
      <point x="824" y="539"/>
      <point x="824" y="389" type="curve" smooth="yes"/>
      <point x="824" y="284"/>
      <point x="754" y="151"/>
      <point x="605" y="151" type="curve" smooth="yes"/>
      <point x="541" y="151"/>
      <point x="522" y="181"/>
      <point x="522" y="214" type="curve" smooth="yes"/>
      <point x="522" y="223"/>
      <point x="523" y="231"/>
      <point x="525" y="240" type="curve" smooth="yes"/>
      <point x="537" y="290" type="line"/>
      <point x="534" y="292" type="line"/>
      <point x="491" y="201"/>
      <point x="436" y="151"/>
      <point x="361" y="151" type="curve" smooth="yes"/>
      <point x="312" y="151"/>
      <point x="286" y="187"/>
      <point x="286" y="236" type="curve" smooth="yes"/>
      <point x="286" y="307"/>
      <point x="348" y="511"/>
      <point x="537" y="511" type="curve" smooth="yes"/>
      <point x="554" y="511"/>
      <point x="571" y="507"/>
      <point x="581" y="502" type="curve"/>
      <point x="584" y="508" type="line"/>
      <point x="687" y="508" type="line"/>
      <point x="619" y="243" type="line"/>
      <point x="617" y="237"/>
      <point x="617" y="232"/>
      <point x="617" y="227" type="curve" smooth="yes"/>
      <point x="617" y="212"/>
      <point x="624" y="200"/>
      <point x="649" y="200" type="curve" smooth="yes"/>
      <point x="716" y="200"/>
      <point x="754" y="321"/>
      <point x="754" y="384" type="curve" smooth="yes"/>
      <point x="754" y="532"/>
      <point x="644" y="608"/>
      <point x="511" y="608" type="curve" smooth="yes"/>
      <point x="347" y="608"/>
      <point x="220" y="458"/>
      <point x="220" y="289" type="curve" smooth="yes"/>
      <point x="220" y="187"/>
      <point x="279" y="37"/>
      <point x="479" y="37" type="curve" smooth="yes"/>
      <point x="544" y="37"/>
      <point x="606" y="51"/>
      <point x="650" y="70" type="curve"/>
      <point x="661" y="37" type="line"/>
      <point x="611" y="1"/>
      <point x="520" y="-14"/>
      <point x="465" y="-14" type="curve" smooth="yes"/>
      <point x="277" y="-14"/>
      <point x="118" y="82"/>
    </contour>
    <contour>
      <point x="400" y="238" type="curve" smooth="yes"/>
      <point x="400" y="211"/>
      <point x="409" y="200"/>
      <point x="422" y="200" type="curve" smooth="yes"/>
      <point x="480" y="200"/>
      <point x="554" y="402"/>
      <point x="572" y="468" type="curve"/>
      <point x="564" y="474"/>
      <point x="553" y="477"/>
      <point x="544" y="477" type="curve" smooth="yes"/>
      <point x="463" y="477"/>
      <point x="400" y="299"/>
    </contour>
  </outline>
</glyph>
<glyph name="A" format="2">
  <advance width="595"/>
  <unicode hex="0041"/>
  <anchor x="460" y="697" name="top"/>
  <anchor x="444" y="616" name="t.ring"/>
  <anchor x="534" y="0" name="b.ogonek"/>
  <anchor x="271" y="-40" name="bottom"/>
  <outline>
    <contour>
      <point x="-23" y="0" type="line"/>
      <point x="-16" y="36" type="line"/>
      <point x="9" y="39" type="line" smooth="yes"/>
      <point x="37" y="42"/>
      <point x="52" y="50"/>
      <point x="70" y="82" type="curve" smooth="yes"/>
      <point x="395" y="650" type="line"/>
      <point x="506" y="650" type="line"/>
      <point x="566" y="81" type="line" smooth="yes"/>
      <point x="569" y="55"/>
      <point x="573" y="41"/>
      <point x="595" y="39" type="curve" smooth="yes"/>
      <point x="634" y="36" type="line"/>
      <point x="626" y="0" type="line"/>
      <point x="344" y="0" type="line"/>
      <point x="352" y="36" type="line"/>
      <point x="400" y="39" type="line"/>
      <point x="416" y="39"/>
      <point x="422" y="48"/>
      <point x="422" y="65" type="curve" smooth="yes"/>
      <point x="422" y="68"/>
      <point x="422" y="71"/>
      <point x="422" y="74" type="curve"/>
      <point x="408" y="231" type="line"/>
      <point x="220" y="231" type="line"/>
      <point x="139" y="74" type="line" smooth="yes"/>
      <point x="135" y="66"/>
      <point x="133" y="60"/>
      <point x="133" y="54" type="curve" smooth="yes"/>
      <point x="133" y="45"/>
      <point x="138" y="39"/>
      <point x="151" y="39" type="curve"/>
      <point x="204" y="36" type="line"/>
      <point x="197" y="0" type="line"/>
    </contour>
    <contour>
      <point x="244" y="276" type="line"/>
      <point x="403" y="276" type="line"/>
      <point x="382" y="522" type="line"/>
      <point x="379" y="522" type="line"/>
    </contour>
  </outline>
</glyph>
<glyph name="B" format="2">
  <advance width="639"/>
  <unicode hex="0042"/>
  <anchor x="438" y="697" name="top"/>
  <anchor x="330" y="-40" name="bottom"/>
  <outline>
    <contour>
      <point x="38" y="0" type="line"/>
      <point x="46" y="36" type="line"/>
      <point x="88" y="39" type="line" smooth="yes"/>
      <point x="115" y="41"/>
      <point x="122" y="58"/>
      <point x="130" y="92" type="curve" smooth="yes"/>
      <point x="234" y="558" type="line" smooth="yes"/>
      <point x="237" y="570"/>
      <point x="239" y="579"/>
      <point x="239" y="587" type="curve" smooth="yes"/>
      <point x="239" y="601"/>
      <point x="233" y="608"/>
      <point x="216" y="610" type="curve" smooth="yes"/>
      <point x="168" y="615" type="line"/>
      <point x="178" y="650" type="line"/>
      <point x="429" y="650" type="line" smooth="yes"/>
      <point x="534" y="650"/>
      <point x="681" y="639"/>
      <point x="681" y="501" type="curve" smooth="yes"/>
      <point x="681" y="423"/>
      <point x="625" y="357"/>
      <point x="502" y="344" type="curve"/>
      <point x="502" y="341" type="line"/>
      <point x="567" y="330"/>
      <point x="644" y="286"/>
      <point x="644" y="184" type="curve" smooth="yes"/>
      <point x="644" y="22"/>
      <point x="477" y="0"/>
      <point x="351" y="0" type="curve" smooth="yes"/>
    </contour>
    <contour>
      <point x="277" y="104" type="line" smooth="yes"/>
      <point x="275" y="95"/>
      <point x="274" y="87"/>
      <point x="274" y="80" type="curve" smooth="yes"/>
      <point x="274" y="56"/>
      <point x="287" y="43"/>
      <point x="330" y="43" type="curve" smooth="yes"/>
      <point x="441" y="43"/>
      <point x="489" y="119"/>
      <point x="489" y="207" type="curve" smooth="yes"/>
      <point x="489" y="281"/>
      <point x="445" y="322"/>
      <point x="365" y="322" type="curve" smooth="yes"/>
      <point x="326" y="322" type="line"/>
    </contour>
    <contour>
      <point x="336" y="366" type="line"/>
      <point x="377" y="366" type="line" smooth="yes"/>
      <point x="469" y="366"/>
      <point x="535" y="419"/>
      <point x="535" y="511" type="curve" smooth="yes"/>
      <point x="535" y="580"/>
      <point x="493" y="607"/>
      <point x="433" y="607" type="curve" smooth="yes"/>
      <point x="392" y="607"/>
      <point x="389" y="600"/>
      <point x="382" y="572" type="curve" smooth="yes"/>
    </contour>
  </outline>
</glyph>
<glyph name="C" format="2">
  <advance width="631"/>
  <unicode hex="0043"/>
  <anchor x="408" y="10" name="b.cedilla"/>
  <anchor x="542" y="697" name="top"/>
  <outline>
    <contour>
      <point x="104" y="258" type="curve" smooth="yes"/>
      <point x="104" y="507"/>
      <point x="271" y="665"/>
      <point x="522" y="665" type="curve" smooth="yes"/>
      <point x="575" y="665"/>
      <point x="674" y="654"/>
      <point x="730" y="619" type="curve"/>
      <point x="694" y="451" type="line"/>
      <point x="658" y="451" type="line"/>
      <point x="663" y="537"/>
      <point x="634" y="621"/>
      <point x="524" y="621" type="curve" smooth="yes"/>
      <point x="333" y="621"/>
      <point x="263" y="387"/>
      <point x="263" y="221" type="curve" smooth="yes"/>
      <point x="263" y="90"/>
      <point x="323" y="29"/>
      <point x="408" y="29" type="curve" smooth="yes"/>
      <point x="513" y="29"/>
      <point x="565" y="109"/>
      <point x="625" y="207" type="curve"/>
      <point x="661" y="207" type="line"/>
      <point x="609" y="24" type="line"/>
      <point x="549" y="-7"/>
      <point x="473" y="-14"/>
      <point x="408" y="-14" type="curve" smooth="yes"/>
      <point x="134" y="-14"/>
      <point x="104" y="172"/>
    </contour>
  </outline>
</glyph>
<glyph name="D" format="2">
  <advance width="727"/>
  <unicode hex="0044"/>
  <anchor x="465" y="697" name="top"/>
  <anchor x="381" y="10" name="b.cedilla"/>
  <anchor x="314" y="-40" name="bottom"/>
  <outline>
    <contour>
      <point x="38" y="0" type="line"/>
      <point x="46" y="36" type="line"/>
      <point x="88" y="39" type="line" smooth="yes"/>
      <point x="115" y="41"/>
      <point x="122" y="58"/>
      <point x="130" y="92" type="curve" smooth="yes"/>
      <point x="234" y="558" type="line" smooth="yes"/>
      <point x="237" y="570"/>
      <point x="239" y="580"/>
      <point x="239" y="588" type="curve" smooth="yes"/>
      <point x="239" y="602"/>
      <point x="233" y="608"/>
      <point x="216" y="610" type="curve" smooth="yes"/>
      <point x="168" y="615" type="line"/>
      <point x="178" y="650" type="line"/>
      <point x="436" y="650" type="line" smooth="yes"/>
      <point x="627" y="650"/>
      <point x="770" y="595"/>
      <point x="770" y="379" type="curve" smooth="yes"/>
      <point x="770" y="129"/>
      <point x="575" y="0"/>
      <point x="339" y="0" type="curve" smooth="yes"/>
    </contour>
    <contour>
      <point x="274" y="91" type="line" smooth="yes"/>
      <point x="273" y="86"/>
      <point x="272" y="81"/>
      <point x="272" y="77" type="curve" smooth="yes"/>
      <point x="272" y="49"/>
      <point x="299" y="43"/>
      <point x="338" y="43" type="curve" smooth="yes"/>
      <point x="556" y="43"/>
      <point x="617" y="316"/>
      <point x="617" y="427" type="curve" smooth="yes"/>
      <point x="617" y="516"/>
      <point x="595" y="607"/>
      <point x="461" y="607" type="curve" smooth="yes"/>
      <point x="401" y="607"/>
      <point x="388" y="601"/>
      <point x="381" y="570" type="curve" smooth="yes"/>
    </contour>
  </outline>
</glyph>
<glyph name="E" format="2">
  <advance width="584"/>
  <unicode hex="0045"/>
  <anchor x="482" y="697" name="top"/>
  <anchor x="377" y="0" name="b.ogonek"/>
  <anchor x="314" y="-40" name="bottom"/>
  <outline>
    <contour>
      <point x="38" y="0" type="line"/>
      <point x="46" y="36" type="line"/>
      <point x="88" y="39" type="line" smooth="yes"/>
      <point x="115" y="41"/>
      <point x="122" y="58"/>
      <point x="130" y="92" type="curve" smooth="yes"/>
      <point x="234" y="558" type="line" smooth="yes"/>
      <point x="237" y="570"/>
      <point x="239" y="579"/>
      <point x="239" y="587" type="curve" smooth="yes"/>
      <point x="239" y="601"/>
      <point x="233" y="608"/>
      <point x="216" y="610" type="curve" smooth="yes"/>
      <point x="168" y="615" type="line"/>
      <point x="179" y="650" type="line"/>
      <point x="679" y="650" type="line"/>
      <point x="641" y="477" type="line"/>
      <point x="605" y="477" type="line"/>
      <point x="616" y="570"/>
      <point x="598" y="607"/>
      <point x="494" y="607" type="curve" smooth="yes"/>
      <point x="429" y="607" type="line" smooth="yes"/>
      <point x="396" y="607"/>
      <point x="389" y="603"/>
      <point x="383" y="576" type="curve" smooth="yes"/>
      <point x="336" y="364" type="line"/>
      <point x="424" y="364" type="line" smooth="yes"/>
      <point x="483" y="364"/>
      <point x="498" y="379"/>
      <point x="528" y="448" type="curve"/>
      <point x="564" y="448" type="line"/>
      <point x="517" y="234" type="line"/>
      <point x="481" y="234" type="line"/>
      <point x="484" y="292"/>
      <point x="474" y="319"/>
      <point x="414" y="319" type="curve" smooth="yes"/>
      <point x="325" y="319" type="line"/>
      <point x="275" y="97" type="line" smooth="yes"/>
      <point x="273" y="89"/>
      <point x="272" y="83"/>
      <point x="272" y="77" type="curve" smooth="yes"/>
      <point x="272" y="44"/>
      <point x="303" y="43"/>
      <point x="377" y="43" type="curve" smooth="yes"/>
      <point x="494" y="43"/>
      <point x="528" y="92"/>
      <point x="574" y="196" type="curve"/>
      <point x="610" y="196" type="line"/>
      <point x="555" y="0" type="line"/>
    </contour>
  </outline>
</glyph>
<glyph name="F" format="2">
  <advance width="549"/>
  <unicode hex="0046"/>
  <anchor x="459" y="697" name="top"/>
  <outline>
    <contour>
      <point x="38" y="0" type="line"/>
      <point x="46" y="36" type="line"/>
      <point x="88" y="39" type="line" smooth="yes"/>
      <point x="115" y="41"/>
      <point x="122" y="58"/>
      <point x="130" y="92" type="curve" smooth="yes"/>
      <point x="234" y="558" type="line" smooth="yes"/>
      <point x="237" y="570"/>
      <point x="239" y="579"/>
      <point x="239" y="587" type="curve" smooth="yes"/>
      <point x="239" y="601"/>
      <point x="233" y="608"/>
      <point x="216" y="610" type="curve" smooth="yes"/>
      <point x="168" y="615" type="line"/>
      <point x="178" y="650" type="line"/>
      <point x="675" y="650" type="line"/>
      <point x="637" y="478" type="line"/>
      <point x="602" y="478" type="line"/>
      <point x="615" y="564"/>
      <point x="595" y="607"/>
      <point x="490" y="607" type="curve" smooth="yes"/>
      <point x="420" y="607" type="line" smooth="yes"/>
      <point x="396" y="607"/>
      <point x="389" y="601"/>
      <point x="384" y="580" type="curve" smooth="yes"/>
      <point x="332" y="346" type="line"/>
      <point x="438" y="346" type="line" smooth="yes"/>
      <point x="497" y="346"/>
      <point x="513" y="362"/>
      <point x="543" y="431" type="curve"/>
      <point x="579" y="431" type="line"/>
      <point x="532" y="215" type="line"/>
      <point x="496" y="215" type="line"/>
      <point x="499" y="274"/>
      <point x="489" y="301"/>
      <point x="429" y="301" type="curve" smooth="yes"/>
      <point x="321" y="301" type="line"/>
      <point x="273" y="89" type="line" smooth="yes"/>
      <point x="271" y="80"/>
      <point x="270" y="72"/>
      <point x="270" y="66" type="curve" smooth="yes"/>
      <point x="270" y="49"/>
      <point x="279" y="40"/>
      <point x="300" y="39" type="curve" smooth="yes"/>
      <point x="352" y="36" type="line"/>
      <point x="344" y="0" type="line"/>
    </contour>
  </outline>
</glyph>
<glyph name="G" format="2">
  <advance width="682"/>
  <unicode hex="0047"/>
  <anchor x="533" y="697" name="top"/>
  <outline>
    <contour>
      <point x="104" y="267" type="curve" smooth="yes"/>
      <point x="104" y="511"/>
      <point x="278" y="665"/>
      <point x="518" y="665" type="curve" smooth="yes"/>
      <point x="580" y="665"/>
      <point x="671" y="650"/>
      <point x="728" y="616" type="curve"/>
      <point x="696" y="451" type="line"/>
      <point x="660" y="451" type="line"/>
      <point x="652" y="547"/>
      <point x="614" y="621"/>
      <point x="516" y="621" type="curve" smooth="yes"/>
      <point x="334" y="621"/>
      <point x="263" y="391"/>
      <point x="263" y="227" type="curve" smooth="yes"/>
      <point x="263" y="99"/>
      <point x="307" y="29"/>
      <point x="411" y="29" type="curve" smooth="yes"/>
      <point x="467" y="29"/>
      <point x="478" y="40"/>
      <point x="487" y="77" type="curve" smooth="yes"/>
      <point x="518" y="203" type="line" smooth="yes"/>
      <point x="521" y="214"/>
      <point x="522" y="223"/>
      <point x="522" y="230" type="curve" smooth="yes"/>
      <point x="522" y="246"/>
      <point x="516" y="254"/>
      <point x="503" y="255" type="curve" smooth="yes"/>
      <point x="443" y="259" type="line"/>
      <point x="450" y="295" type="line"/>
      <point x="744" y="295" type="line"/>
      <point x="735" y="259" type="line"/>
      <point x="697" y="254" type="line" smooth="yes"/>
      <point x="681" y="252"/>
      <point x="671" y="234"/>
      <point x="663" y="203" type="curve" smooth="yes"/>
      <point x="623" y="36" type="line"/>
      <point x="555" y="-3"/>
      <point x="471" y="-14"/>
      <point x="401" y="-14" type="curve" smooth="yes"/>
      <point x="222" y="-14"/>
      <point x="104" y="69"/>
    </contour>
  </outline>
</glyph>
<glyph name="H" format="2">
  <advance width="752"/>
  <unicode hex="0048"/>
  <anchor x="531" y="697" name="top"/>
  <anchor x="385" y="-40" name="bottom"/>
  <outline>
    <contour>
      <point x="38" y="0" type="line"/>
      <point x="46" y="36" type="line"/>
      <point x="88" y="39" type="line" smooth="yes"/>
      <point x="115" y="41"/>
      <point x="122" y="58"/>
      <point x="130" y="92" type="curve" smooth="yes"/>
      <point x="234" y="558" type="line" smooth="yes"/>
      <point x="237" y="570"/>
      <point x="239" y="579"/>
      <point x="239" y="587" type="curve" smooth="yes"/>
      <point x="239" y="601"/>
      <point x="233" y="608"/>
      <point x="216" y="610" type="curve" smooth="yes"/>
      <point x="168" y="615" type="line"/>
      <point x="178" y="650" type="line"/>
      <point x="471" y="650" type="line"/>
      <point x="462" y="615" type="line"/>
      <point x="420" y="611" type="line" smooth="yes"/>
      <point x="393" y="609"/>
      <point x="387" y="592"/>
      <point x="379" y="558" type="curve" smooth="yes"/>
      <point x="336" y="364" type="line"/>
      <point x="580" y="364" type="line"/>
      <point x="623" y="558" type="line"/>
      <point x="626" y="570"/>
      <point x="628" y="579"/>
      <point x="628" y="587" type="curve" smooth="yes"/>
      <point x="628" y="601"/>
      <point x="622" y="608"/>
      <point x="605" y="610" type="curve" smooth="yes"/>
      <point x="557" y="615" type="line"/>
      <point x="567" y="650" type="line"/>
      <point x="860" y="650" type="line"/>
      <point x="851" y="615" type="line"/>
      <point x="809" y="611" type="line" smooth="yes"/>
      <point x="782" y="609"/>
      <point x="776" y="592"/>
      <point x="768" y="558" type="curve" smooth="yes"/>
      <point x="664" y="92" type="line" smooth="yes"/>
      <point x="661" y="80"/>
      <point x="659" y="70"/>
      <point x="659" y="62" type="curve" smooth="yes"/>
      <point x="659" y="48"/>
      <point x="665" y="40"/>
      <point x="682" y="39" type="curve" smooth="yes"/>
      <point x="728" y="36" type="line"/>
      <point x="720" y="0" type="line"/>
      <point x="427" y="0" type="line"/>
      <point x="435" y="36" type="line"/>
      <point x="478" y="39" type="line" smooth="yes"/>
      <point x="505" y="41"/>
      <point x="511" y="58"/>
      <point x="519" y="92" type="curve" smooth="yes"/>
      <point x="570" y="319" type="line"/>
      <point x="325" y="319" type="line"/>
      <point x="274" y="92" type="line" smooth="yes"/>
      <point x="271" y="80"/>
      <point x="269" y="70"/>
      <point x="269" y="62" type="curve" smooth="yes"/>
      <point x="269" y="48"/>
      <point x="275" y="40"/>
      <point x="292" y="39" type="curve" smooth="yes"/>
      <point x="339" y="36" type="line"/>
      <point x="331" y="0" type="line"/>
    </contour>
  </outline>
</glyph>
<glyph name="I" format="2">
  <advance width="362"/>
  <unicode hex="0049"/>
  <anchor x="331" y="697" name="top"/>
  <anchor x="187" y="-40" name="bottom"/>
  <outline>
    <contour>
      <point x="38" y="0" type="line"/>
      <point x="46" y="36" type="line"/>
      <point x="88" y="39" type="line" smooth="yes"/>
      <point x="115" y="41"/>
      <point x="122" y="58"/>
      <point x="130" y="92" type="curve" smooth="yes"/>
      <point x="234" y="558" type="line" smooth="yes"/>
      <point x="237" y="570"/>
      <point x="239" y="579"/>
      <point x="239" y="587" type="curve" smooth="yes"/>
      <point x="239" y="601"/>
      <point x="233" y="608"/>
      <point x="216" y="610" type="curve" smooth="yes"/>
      <point x="168" y="615" type="line"/>
      <point x="178" y="650" type="line"/>
      <point x="471" y="650" type="line"/>
      <point x="462" y="615" type="line"/>
      <point x="420" y="611" type="line" smooth="yes"/>
      <point x="393" y="609"/>
      <point x="387" y="592"/>
      <point x="379" y="558" type="curve" smooth="yes"/>
      <point x="274" y="92" type="line" smooth="yes"/>
      <point x="271" y="80"/>
      <point x="269" y="70"/>
      <point x="269" y="62" type="curve" smooth="yes"/>
      <point x="269" y="48"/>
      <point x="275" y="40"/>
      <point x="292" y="39" type="curve" smooth="yes"/>
      <point x="339" y="36" type="line"/>
      <point x="331" y="0" type="line"/>
    </contour>
  </outline>
</glyph>
<glyph name="J" format="2">
  <advance width="364"/>
  <unicode hex="004A"/>
  <anchor x="356" y="697" name="top"/>
  <outline>
    <contour>
      <point x="-14" y="-74" type="line"/>
      <point x="104" y="-54"/>
      <point x="127" y="45"/>
      <point x="151" y="149" type="curve" smooth="yes"/>
      <point x="244" y="558" type="line" smooth="yes"/>
      <point x="247" y="570"/>
      <point x="249" y="580"/>
      <point x="249" y="588" type="curve" smooth="yes"/>
      <point x="249" y="601"/>
      <point x="243" y="608"/>
      <point x="227" y="610" type="curve" smooth="yes"/>
      <point x="179" y="615" type="line"/>
      <point x="188" y="650" type="line"/>
      <point x="481" y="650" type="line"/>
      <point x="472" y="615" type="line"/>
      <point x="431" y="611" type="line" smooth="yes"/>
      <point x="404" y="609"/>
      <point x="397" y="592"/>
      <point x="389" y="558" type="curve" smooth="yes"/>
      <point x="285" y="100" type="line" smooth="yes"/>
      <point x="251" y="-48"/>
      <point x="182" y="-107"/>
      <point x="26" y="-107" type="curve" smooth="yes"/>
      <point x="13" y="-107"/>
      <point x="0" y="-107"/>
      <point x="-12" y="-105" type="curve"/>
    </contour>
  </outline>
</glyph>
<glyph name="K" format="2">
  <advance width="646"/>
  <unicode hex="004B"/>
  <anchor x="485" y="697" name="top"/>
  <anchor x="358" y="-40" name="bottom"/>
  <outline>
    <contour>
      <point x="38" y="0" type="line"/>
      <point x="46" y="36" type="line"/>
      <point x="88" y="39" type="line" smooth="yes"/>
      <point x="115" y="41"/>
      <point x="122" y="58"/>
      <point x="130" y="92" type="curve" smooth="yes"/>
      <point x="234" y="558" type="line" smooth="yes"/>
      <point x="237" y="570"/>
      <point x="239" y="579"/>
      <point x="239" y="587" type="curve" smooth="yes"/>
      <point x="239" y="601"/>
      <point x="233" y="608"/>
      <point x="216" y="610" type="curve" smooth="yes"/>
      <point x="168" y="615" type="line"/>
      <point x="178" y="650" type="line"/>
      <point x="471" y="650" type="line"/>
      <point x="462" y="615" type="line"/>
      <point x="420" y="611" type="line" smooth="yes"/>
      <point x="393" y="609"/>
      <point x="387" y="592"/>
      <point x="379" y="558" type="curve" smooth="yes"/>
      <point x="330" y="338" type="line"/>
      <point x="333" y="338" type="line"/>
      <point x="575" y="577" type="line" smooth="yes"/>
      <point x="586" y="588"/>
      <point x="592" y="595"/>
      <point x="592" y="601" type="curve" smooth="yes"/>
      <point x="592" y="607"/>
      <point x="586" y="610"/>
      <point x="571" y="612" type="curve" smooth="yes"/>
      <point x="547" y="615" type="line"/>
      <point x="554" y="650" type="line"/>
      <point x="807" y="650" type="line"/>
      <point x="800" y="615" type="line"/>
      <point x="695" y="596"/>
      <point x="653" y="570"/>
      <point x="535" y="461" type="curve" smooth="yes"/>
      <point x="446" y="379" type="line"/>
      <point x="456" y="354" type="line" smooth="yes"/>
      <point x="486" y="278"/>
      <point x="583" y="62"/>
      <point x="665" y="32" type="curve" smooth="yes"/>
      <point x="676" y="28" type="line"/>
      <point x="670" y="-6" type="line"/>
      <point x="631" y="-4" type="line" smooth="yes"/>
      <point x="460" y="5"/>
      <point x="433" y="32"/>
      <point x="336" y="292" type="curve" smooth="yes"/>
      <point x="327" y="316" type="line"/>
      <point x="324" y="316" type="line"/>
      <point x="274" y="92" type="line" smooth="yes"/>
      <point x="271" y="80"/>
      <point x="269" y="70"/>
      <point x="269" y="62" type="curve" smooth="yes"/>
      <point x="269" y="48"/>
      <point x="275" y="40"/>
      <point x="292" y="39" type="curve" smooth="yes"/>
      <point x="339" y="36" type="line"/>
      <point x="331" y="0" type="line"/>
    </contour>
  </outline>
  <guideline angle="257.332" x="379" y="558"/>
  <guideline angle="0" x="0" y="338"/>
</glyph>
<glyph name="L" format="2">
  <advance width="550"/>
  <unicode hex="004C"/>
  <anchor x="359" y="697" name="top"/>
  <anchor x="518" y="743" name="t.r.caron"/>
  <anchor x="314" y="-40" name="bottom"/>
  <outline>
    <contour>
      <point x="38" y="0" type="line"/>
      <point x="46" y="36" type="line"/>
      <point x="88" y="39" type="line" smooth="yes"/>
      <point x="115" y="41"/>
      <point x="122" y="58"/>
      <point x="130" y="92" type="curve" smooth="yes"/>
      <point x="234" y="558" type="line" smooth="yes"/>
      <point x="237" y="570"/>
      <point x="239" y="580"/>
      <point x="239" y="588" type="curve" smooth="yes"/>
      <point x="239" y="602"/>
      <point x="233" y="610"/>
      <point x="216" y="611" type="curve" smooth="yes"/>
      <point x="168" y="615" type="line"/>
      <point x="178" y="650" type="line"/>
      <point x="471" y="650" type="line"/>
      <point x="462" y="615" type="line"/>
      <point x="420" y="611" type="line" smooth="yes"/>
      <point x="393" y="608"/>
      <point x="387" y="592"/>
      <point x="379" y="558" type="curve" smooth="yes"/>
      <point x="275" y="95" type="line"/>
      <point x="274" y="88"/>
      <point x="273" y="83"/>
      <point x="273" y="78" type="curve" smooth="yes"/>
      <point x="273" y="47"/>
      <point x="301" y="43"/>
      <point x="361" y="43" type="curve" smooth="yes"/>
      <point x="449" y="43"/>
      <point x="491" y="75"/>
      <point x="553" y="189" type="curve"/>
      <point x="588" y="189" type="line"/>
      <point x="534" y="0" type="line"/>
    </contour>
  </outline>
</glyph>
<glyph name="M" format="2">
  <advance width="865"/>
  <unicode hex="004D"/>
  <anchor x="557" y="697" name="top"/>
  <anchor x="399" y="-40" name="bottom"/>
  <outline>
    <contour>
      <point x="33" y="0" type="line"/>
      <point x="39" y="36" type="line"/>
      <point x="65" y="39" type="line" smooth="yes"/>
      <point x="103" y="43"/>
      <point x="123" y="87"/>
      <point x="153" y="225" type="curve" smooth="yes"/>
      <point x="225" y="558" type="line"/>
      <point x="228" y="570"/>
      <point x="230" y="579"/>
      <point x="230" y="587" type="curve" smooth="yes"/>
      <point x="230" y="601"/>
      <point x="224" y="608"/>
      <point x="207" y="610" type="curve" smooth="yes"/>
      <point x="159" y="615" type="line"/>
      <point x="168" y="650" type="line"/>
      <point x="397" y="650" type="line"/>
      <point x="477" y="194" type="line"/>
      <point x="480" y="194" type="line"/>
      <point x="735" y="650" type="line"/>
      <point x="971" y="650" type="line"/>
      <point x="962" y="615" type="line"/>
      <point x="920" y="611" type="line" smooth="yes"/>
      <point x="893" y="609"/>
      <point x="887" y="592"/>
      <point x="879" y="558" type="curve" smooth="yes"/>
      <point x="776" y="92" type="line" smooth="yes"/>
      <point x="773" y="79"/>
      <point x="771" y="69"/>
      <point x="771" y="61" type="curve" smooth="yes"/>
      <point x="771" y="48"/>
      <point x="777" y="40"/>
      <point x="793" y="39" type="curve" smooth="yes"/>
      <point x="840" y="36" type="line"/>
      <point x="832" y="0" type="line"/>
      <point x="548" y="0" type="line"/>
      <point x="556" y="36" type="line"/>
      <point x="598" y="39" type="line" smooth="yes"/>
      <point x="625" y="41"/>
      <point x="631" y="58"/>
      <point x="639" y="92" type="curve" smooth="yes"/>
      <point x="742" y="550" type="line"/>
      <point x="739" y="550" type="line"/>
      <point x="431" y="11" type="line"/>
      <point x="369" y="11" type="line"/>
      <point x="281" y="550" type="line"/>
      <point x="278" y="550" type="line"/>
      <point x="211" y="225" type="line" smooth="yes"/>
      <point x="191" y="127"/>
      <point x="185" y="95"/>
      <point x="185" y="75" type="curve" smooth="yes"/>
      <point x="185" y="51"/>
      <point x="195" y="40"/>
      <point x="219" y="39" type="curve" smooth="yes"/>
      <point x="269" y="36" type="line"/>
      <point x="261" y="0" type="line"/>
    </contour>
  </outline>
</glyph>
<glyph name="N" format="2">
  <advance width="696"/>
  <unicode hex="004E"/>
  <anchor x="513" y="697" name="top"/>
  <anchor x="356" y="-40" name="bottom"/>
  <outline>
    <contour>
      <point x="28" y="0" type="line"/>
      <point x="36" y="36" type="line"/>
      <point x="70" y="39" type="line" smooth="yes"/>
      <point x="113" y="43"/>
      <point x="124" y="93"/>
      <point x="153" y="225" type="curve" smooth="yes"/>
      <point x="227" y="558" type="line"/>
      <point x="230" y="570"/>
      <point x="232" y="579"/>
      <point x="232" y="587" type="curve" smooth="yes"/>
      <point x="232" y="601"/>
      <point x="226" y="608"/>
      <point x="209" y="610" type="curve" smooth="yes"/>
      <point x="162" y="615" type="line"/>
      <point x="171" y="650" type="line"/>
      <point x="380" y="650" type="line"/>
      <point x="446" y="490"/>
      <point x="512" y="332"/>
      <point x="580" y="172" type="curve"/>
      <point x="583" y="172" type="line"/>
      <point x="638" y="426" type="line" smooth="yes"/>
      <point x="662" y="537"/>
      <point x="666" y="559"/>
      <point x="666" y="576" type="curve" smooth="yes"/>
      <point x="666" y="599"/>
      <point x="657" y="610"/>
      <point x="633" y="612" type="curve" smooth="yes"/>
      <point x="582" y="615" type="line"/>
      <point x="589" y="650" type="line"/>
      <point x="821" y="650" type="line"/>
      <point x="813" y="615" type="line"/>
      <point x="778" y="612" type="line" smooth="yes"/>
      <point x="755" y="610"/>
      <point x="741" y="597"/>
      <point x="731" y="565" type="curve" smooth="yes"/>
      <point x="721" y="533"/>
      <point x="712" y="496"/>
      <point x="696" y="426" type="curve" smooth="yes"/>
      <point x="602" y="0" type="line"/>
      <point x="504" y="0" type="line"/>
      <point x="431" y="176"/>
      <point x="356" y="351"/>
      <point x="281" y="527" type="curve"/>
      <point x="277" y="527" type="line"/>
      <point x="210" y="225" type="line" smooth="yes"/>
      <point x="186" y="117"/>
      <point x="183" y="93"/>
      <point x="183" y="75" type="curve" smooth="yes"/>
      <point x="183" y="51"/>
      <point x="193" y="40"/>
      <point x="216" y="39" type="curve" smooth="yes"/>
      <point x="267" y="36" type="line"/>
      <point x="259" y="0" type="line"/>
    </contour>
  </outline>
</glyph>
<glyph name="O" format="2">
  <advance width="715"/>
  <unicode hex="004F"/>
  <anchor x="502" y="697" name="top"/>
  <anchor x="364" y="-40" name="bottom"/>
  <outline>
    <contour>
      <point x="106" y="248" type="curve" smooth="yes"/>
      <point x="106" y="472"/>
      <point x="234" y="665"/>
      <point x="477" y="665" type="curve" smooth="yes"/>
      <point x="635" y="665"/>
      <point x="755" y="584"/>
      <point x="755" y="394" type="curve" smooth="yes"/>
      <point x="755" y="176"/>
      <point x="631" y="-14"/>
      <point x="395" y="-14" type="curve" smooth="yes"/>
      <point x="206" y="-14"/>
      <point x="106" y="89"/>
    </contour>
    <contour>
      <point x="261" y="179" type="curve" smooth="yes"/>
      <point x="261" y="83"/>
      <point x="300" y="29"/>
      <point x="379" y="29" type="curve" smooth="yes"/>
      <point x="518" y="29"/>
      <point x="600" y="294"/>
      <point x="600" y="476" type="curve" smooth="yes"/>
      <point x="600" y="559"/>
      <point x="575" y="621"/>
      <point x="491" y="621" type="curve" smooth="yes"/>
      <point x="336" y="621"/>
      <point x="261" y="328"/>
    </contour>
  </outline>
</glyph>
<glyph name="P" format="2">
  <advance width="620"/>
  <unicode hex="0050"/>
  <anchor x="453" y="697" name="top"/>
  <outline>
    <contour>
      <point x="38" y="0" type="line"/>
      <point x="46" y="36" type="line"/>
      <point x="88" y="39" type="line" smooth="yes"/>
      <point x="115" y="41"/>
      <point x="122" y="58"/>
      <point x="130" y="92" type="curve" smooth="yes"/>
      <point x="235" y="558" type="line" smooth="yes"/>
      <point x="238" y="570"/>
      <point x="240" y="579"/>
      <point x="240" y="587" type="curve" smooth="yes"/>
      <point x="240" y="601"/>
      <point x="234" y="608"/>
      <point x="217" y="610" type="curve" smooth="yes"/>
      <point x="169" y="615" type="line"/>
      <point x="179" y="650" type="line"/>
      <point x="415" y="650" type="line" smooth="yes"/>
      <point x="542" y="650"/>
      <point x="685" y="630"/>
      <point x="685" y="470" type="curve" smooth="yes"/>
      <point x="685" y="295"/>
      <point x="514" y="248"/>
      <point x="369" y="248" type="curve" smooth="yes"/>
      <point x="310" y="248" type="line"/>
      <point x="274" y="92" type="line"/>
      <point x="271" y="81"/>
      <point x="269" y="72"/>
      <point x="269" y="64" type="curve" smooth="yes"/>
      <point x="269" y="50"/>
      <point x="276" y="41"/>
      <point x="294" y="40" type="curve" smooth="yes"/>
      <point x="355" y="36" type="line"/>
      <point x="348" y="0" type="line"/>
    </contour>
    <contour>
      <point x="327" y="322" type="line" smooth="yes"/>
      <point x="326" y="318"/>
      <point x="325" y="314"/>
      <point x="325" y="311" type="curve" smooth="yes"/>
      <point x="325" y="299"/>
      <point x="334" y="291"/>
      <point x="368" y="291" type="curve" smooth="yes"/>
      <point x="481" y="291"/>
      <point x="536" y="403"/>
      <point x="536" y="499" type="curve" smooth="yes"/>
      <point x="536" y="570"/>
      <point x="501" y="607"/>
      <point x="436" y="607" type="curve" smooth="yes"/>
      <point x="395" y="607"/>
      <point x="389" y="599"/>
      <point x="383" y="572" type="curve" smooth="yes"/>
    </contour>
  </outline>
</glyph>
<glyph name="Q" format="2">
  <advance width="715"/>
  <unicode hex="0051"/>
  <outline>
    <contour>
      <point x="106" y="248" type="curve" smooth="yes"/>
      <point x="106" y="472"/>
      <point x="234" y="665"/>
      <point x="477" y="665" type="curve" smooth="yes"/>
      <point x="635" y="665"/>
      <point x="755" y="584"/>
      <point x="755" y="394" type="curve" smooth="yes"/>
      <point x="755" y="222"/>
      <point x="667" y="33"/>
      <point x="484" y="-4" type="curve"/>
      <point x="524" y="-82"/>
      <point x="598" y="-141"/>
      <point x="656" y="-141" type="curve"/>
      <point x="661" y="-164" type="line"/>
      <point x="640" y="-175"/>
      <point x="606" y="-181"/>
      <point x="573" y="-181" type="curve" smooth="yes"/>
      <point x="432" y="-181"/>
      <point x="347" y="-82"/>
      <point x="321" y="-8" type="curve"/>
      <point x="180" y="15"/>
      <point x="106" y="111"/>
    </contour>
    <contour>
      <point x="261" y="179" type="curve" smooth="yes"/>
      <point x="261" y="83"/>
      <point x="300" y="29"/>
      <point x="379" y="29" type="curve" smooth="yes"/>
      <point x="518" y="29"/>
      <point x="600" y="294"/>
      <point x="600" y="476" type="curve" smooth="yes"/>
      <point x="600" y="559"/>
      <point x="575" y="621"/>
      <point x="491" y="621" type="curve" smooth="yes"/>
      <point x="336" y="621"/>
      <point x="261" y="328"/>
    </contour>
  </outline>
</glyph>
<glyph name="R" format="2">
  <advance width="640"/>
  <unicode hex="0052"/>
  <anchor x="465" y="697" name="top"/>
  <anchor x="364" y="-40" name="bottom"/>
  <outline>
    <contour>
      <point x="38" y="0" type="line"/>
      <point x="46" y="36" type="line"/>
      <point x="88" y="39" type="line" smooth="yes"/>
      <point x="115" y="41"/>
      <point x="122" y="58"/>
      <point x="130" y="92" type="curve" smooth="yes"/>
      <point x="234" y="558" type="line" smooth="yes"/>
      <point x="237" y="570"/>
      <point x="239" y="579"/>
      <point x="239" y="587" type="curve" smooth="yes"/>
      <point x="239" y="601"/>
      <point x="233" y="608"/>
      <point x="216" y="610" type="curve" smooth="yes"/>
      <point x="168" y="615" type="line"/>
      <point x="178" y="650" type="line"/>
      <point x="443" y="650" type="line" smooth="yes"/>
      <point x="552" y="650"/>
      <point x="687" y="635"/>
      <point x="687" y="495" type="curve" smooth="yes"/>
      <point x="687" y="397"/>
      <point x="606" y="333"/>
      <point x="488" y="323" type="curve"/>
      <point x="488" y="320" type="line"/>
      <point x="572" y="299"/>
      <point x="585" y="253"/>
      <point x="585" y="192" type="curve" smooth="yes"/>
      <point x="585" y="79"/>
      <point x="602" y="48"/>
      <point x="659" y="36" type="curve"/>
      <point x="650" y="0" type="line"/>
      <point x="560" y="0" type="line" smooth="yes"/>
      <point x="457" y="0"/>
      <point x="445" y="68"/>
      <point x="445" y="223" type="curve" smooth="yes"/>
      <point x="445" y="272"/>
      <point x="430" y="298"/>
      <point x="375" y="298" type="curve" smooth="yes"/>
      <point x="321" y="298" type="line"/>
      <point x="274" y="92" type="line" smooth="yes"/>
      <point x="271" y="80"/>
      <point x="269" y="70"/>
      <point x="269" y="62" type="curve" smooth="yes"/>
      <point x="269" y="48"/>
      <point x="275" y="40"/>
      <point x="292" y="39" type="curve" smooth="yes"/>
      <point x="339" y="36" type="line"/>
      <point x="331" y="0" type="line"/>
    </contour>
    <contour>
      <point x="330" y="341" type="line"/>
      <point x="389" y="341" type="line" smooth="yes"/>
      <point x="463" y="341"/>
      <point x="538" y="402"/>
      <point x="538" y="510" type="curve" smooth="yes"/>
      <point x="538" y="576"/>
      <point x="503" y="607"/>
      <point x="440" y="607" type="curve" smooth="yes"/>
      <point x="395" y="607"/>
      <point x="389" y="597"/>
      <point x="383" y="573" type="curve" smooth="yes"/>
    </contour>
  </outline>
</glyph>
<glyph name="S" format="2">
  <advance width="517"/>
  <unicode hex="0053"/>
  <anchor x="411" y="697" name="top"/>
  <anchor x="247" y="-40" name="bottom"/>
  <anchor x="317" y="10" name="b.cedilla"/>
  <outline>
    <contour>
      <point x="62" y="66" type="curve"/>
      <point x="84" y="232" type="line"/>
      <point x="118" y="232" type="line"/>
      <point x="131" y="99"/>
      <point x="208" y="29"/>
      <point x="280" y="29" type="curve" smooth="yes"/>
      <point x="355" y="29"/>
      <point x="393" y="80"/>
      <point x="393" y="142" type="curve" smooth="yes"/>
      <point x="393" y="205"/>
      <point x="351" y="249"/>
      <point x="296" y="281" type="curve" smooth="yes"/>
      <point x="211" y="330"/>
      <point x="148" y="381"/>
      <point x="148" y="467" type="curve" smooth="yes"/>
      <point x="148" y="548"/>
      <point x="199" y="665"/>
      <point x="387" y="665" type="curve" smooth="yes"/>
      <point x="439" y="665"/>
      <point x="519" y="653"/>
      <point x="569" y="614" type="curve"/>
      <point x="537" y="462" type="line"/>
      <point x="501" y="462" type="line"/>
      <point x="501" y="560"/>
      <point x="461" y="621"/>
      <point x="384" y="621" type="curve" smooth="yes"/>
      <point x="315" y="621"/>
      <point x="279" y="570"/>
      <point x="279" y="520" type="curve" smooth="yes"/>
      <point x="279" y="465"/>
      <point x="330" y="428"/>
      <point x="387" y="395" type="curve" smooth="yes"/>
      <point x="481" y="342"/>
      <point x="529" y="283"/>
      <point x="529" y="197" type="curve" smooth="yes"/>
      <point x="529" y="79"/>
      <point x="452" y="-14"/>
      <point x="282" y="-14" type="curve" smooth="yes"/>
      <point x="208" y="-14"/>
      <point x="111" y="8"/>
    </contour>
  </outline>
</glyph>
<glyph name="T" format="2">
  <advance width="579"/>
  <unicode hex="0054"/>
  <anchor x="433" y="697" name="top"/>
  <anchor x="292" y="-40" name="bottom"/>
  <anchor x="328" y="10" name="b.cedilla"/>
  <outline>
    <contour>
      <point x="118" y="471" type="line"/>
      <point x="159" y="650" type="line"/>
      <point x="712" y="650" type="line"/>
      <point x="671" y="471" type="line"/>
      <point x="635" y="471" type="line"/>
      <point x="647" y="549"/>
      <point x="639" y="607"/>
      <point x="545" y="607" type="curve" smooth="yes"/>
      <point x="500" y="607" type="line"/>
      <point x="384" y="92" type="line" smooth="yes"/>
      <point x="381" y="79"/>
      <point x="379" y="69"/>
      <point x="379" y="61" type="curve" smooth="yes"/>
      <point x="379" y="48"/>
      <point x="385" y="41"/>
      <point x="401" y="40" type="curve" smooth="yes"/>
      <point x="462" y="36" type="line"/>
      <point x="453" y="0" type="line"/>
      <point x="133" y="0" type="line"/>
      <point x="142" y="36" type="line"/>
      <point x="197" y="39" type="line" smooth="yes"/>
      <point x="224" y="41"/>
      <point x="231" y="58"/>
      <point x="239" y="92" type="curve" smooth="yes"/>
      <point x="355" y="607" type="line"/>
      <point x="306" y="607" type="line" smooth="yes"/>
      <point x="219" y="607"/>
      <point x="188" y="549"/>
      <point x="154" y="471" type="curve"/>
    </contour>
  </outline>
</glyph>
<glyph name="U" format="2">
  <advance width="729"/>
  <unicode hex="0055"/>
  <anchor x="494" y="697" name="top"/>
  <anchor x="496" y="700" name="t.ring"/>
  <anchor x="372" y="-40" name="bottom"/>
  <outline>
    <contour>
      <point x="149" y="227" type="curve" smooth="yes"/>
      <point x="224" y="558" type="line" smooth="yes"/>
      <point x="227" y="570"/>
      <point x="229" y="580"/>
      <point x="229" y="588" type="curve" smooth="yes"/>
      <point x="229" y="602"/>
      <point x="223" y="608"/>
      <point x="206" y="610" type="curve" smooth="yes"/>
      <point x="158" y="615" type="line"/>
      <point x="167" y="650" type="line"/>
      <point x="461" y="650" type="line"/>
      <point x="451" y="615" type="line"/>
      <point x="410" y="611" type="line" smooth="yes"/>
      <point x="383" y="609"/>
      <point x="376" y="592"/>
      <point x="368" y="558" type="curve" smooth="yes"/>
      <point x="293" y="219" type="line" smooth="yes"/>
      <point x="286" y="189"/>
      <point x="283" y="162"/>
      <point x="283" y="140" type="curve" smooth="yes"/>
      <point x="283" y="58"/>
      <point x="325" y="29"/>
      <point x="383" y="29" type="curve" smooth="yes"/>
      <point x="466" y="29"/>
      <point x="508" y="98"/>
      <point x="540" y="243" type="curve" smooth="yes"/>
      <point x="611" y="558" type="line" smooth="yes"/>
      <point x="614" y="570"/>
      <point x="616" y="580"/>
      <point x="616" y="588" type="curve" smooth="yes"/>
      <point x="616" y="602"/>
      <point x="610" y="609"/>
      <point x="593" y="610" type="curve"/>
      <point x="545" y="615" type="line"/>
      <point x="555" y="650" type="line"/>
      <point x="848" y="650" type="line"/>
      <point x="838" y="615" type="line"/>
      <point x="797" y="611" type="line" smooth="yes"/>
      <point x="770" y="609"/>
      <point x="764" y="592"/>
      <point x="756" y="558" type="curve" smooth="yes"/>
      <point x="682" y="238" type="line" smooth="yes"/>
      <point x="640" y="58"/>
      <point x="565" y="-14"/>
      <point x="378" y="-14" type="curve" smooth="yes"/>
      <point x="262" y="-14"/>
      <point x="140" y="20"/>
      <point x="140" y="155" type="curve" smooth="yes"/>
      <point x="140" y="177"/>
      <point x="143" y="201"/>
    </contour>
  </outline>
</glyph>
<glyph name="V" format="2">
  <advance width="592"/>
  <unicode hex="0056"/>
  <anchor x="470" y="697" name="top"/>
  <anchor x="314" y="-40" name="bottom"/>
  <outline>
    <contour>
      <point x="243" y="0" type="line"/>
      <point x="180" y="568" type="line" smooth="yes"/>
      <point x="177" y="596"/>
      <point x="169" y="609"/>
      <point x="151" y="611" type="curve" smooth="yes"/>
      <point x="119" y="615" type="line"/>
      <point x="126" y="650" type="line"/>
      <point x="400" y="650" type="line"/>
      <point x="394" y="615" type="line"/>
      <point x="337" y="609" type="line"/>
      <point x="323" y="608"/>
      <point x="319" y="599"/>
      <point x="319" y="589" type="curve" smooth="yes"/>
      <point x="319" y="586"/>
      <point x="320" y="583"/>
      <point x="320" y="580" type="curve"/>
      <point x="367" y="128" type="line"/>
      <point x="370" y="128" type="line"/>
      <point x="585" y="530" type="line" smooth="yes"/>
      <point x="602" y="562"/>
      <point x="610" y="587"/>
      <point x="610" y="596" type="curve" smooth="yes"/>
      <point x="610" y="604"/>
      <point x="606" y="610"/>
      <point x="594" y="611" type="curve" smooth="yes"/>
      <point x="541" y="615" type="line"/>
      <point x="549" y="650" type="line"/>
      <point x="769" y="650" type="line"/>
      <point x="762" y="615" type="line"/>
      <point x="710" y="609"/>
      <point x="697" y="602"/>
      <point x="674" y="562" type="curve" smooth="yes"/>
      <point x="356" y="0" type="line"/>
    </contour>
  </outline>
</glyph>
<glyph name="W" format="2">
  <advance width="864"/>
  <unicode hex="0057"/>
  <anchor x="602" y="697" name="top"/>
  <anchor x="443" y="-40" name="bottom"/>
  <outline>
    <contour>
      <point x="199" y="0" type="line"/>
      <point x="166" y="573" type="line" smooth="yes"/>
      <point x="164.501" y="599.034"/>
      <point x="161" y="609"/>
      <point x="146" y="611" type="curve"/>
      <point x="108" y="615" type="line"/>
      <point x="115" y="650" type="line"/>
      <point x="385" y="650" type="line"/>
      <point x="379" y="615" type="line"/>
      <point x="327" y="610" type="line"/>
      <point x="311" y="608"/>
      <point x="299" y="595"/>
      <point x="299" y="576" type="curve" smooth="yes"/>
      <point x="299" y="570"/>
      <point x="300" y="548"/>
      <point x="301" y="528" type="curve" smooth="yes"/>
      <point x="320" y="137" type="line"/>
      <point x="324" y="137" type="line"/>
      <point x="541" y="635" type="line"/>
      <point x="647" y="635" type="line"/>
      <point x="676" y="137" type="line"/>
      <point x="681" y="137" type="line"/>
      <point x="869" y="569" type="line"/>
      <point x="873" y="579"/>
      <point x="875" y="587"/>
      <point x="875" y="593" type="curve" smooth="yes"/>
      <point x="875" y="603"/>
      <point x="870" y="609"/>
      <point x="857" y="610" type="curve" smooth="yes"/>
      <point x="807" y="615" type="line"/>
      <point x="814" y="650" type="line"/>
      <point x="1031" y="650" type="line"/>
      <point x="1025" y="615" type="line"/>
      <point x="969" y="609"/>
      <point x="958" y="603"/>
      <point x="934" y="553" type="curve" smooth="yes"/>
      <point x="670" y="0" type="line"/>
      <point x="555" y="0" type="line"/>
      <point x="528" y="467" type="line"/>
      <point x="524" y="467" type="line"/>
      <point x="315" y="0" type="line"/>
    </contour>
  </outline>
  <guideline angle="272.745" x="299" y="575"/>
</glyph>
<glyph name="X" format="2">
  <advance width="592"/>
  <unicode hex="0058"/>
  <anchor x="472" y="697" name="top"/>
  <outline>
    <contour>
      <point x="-20" y="0" type="line"/>
      <point x="-13" y="36" type="line"/>
      <point x="35" y="40"/>
      <point x="71" y="50"/>
      <point x="98" y="81" type="curve" smooth="yes"/>
      <point x="305" y="314" type="line"/>
      <point x="196" y="577" type="line" smooth="yes"/>
      <point x="186" y="601"/>
      <point x="156" y="611"/>
      <point x="117" y="615" type="curve"/>
      <point x="126" y="650" type="line"/>
      <point x="415" y="650" type="line"/>
      <point x="408" y="615" type="line"/>
      <point x="360" y="608" type="line" smooth="yes"/>
      <point x="348" y="606"/>
      <point x="344" y="602"/>
      <point x="344" y="594" type="curve" smooth="yes"/>
      <point x="344" y="589"/>
      <point x="345" y="584"/>
      <point x="348" y="577" type="curve"/>
      <point x="408" y="423" type="line"/>
      <point x="411" y="423" type="line"/>
      <point x="541" y="583" type="line"/>
      <point x="546" y="590"/>
      <point x="549" y="596"/>
      <point x="549" y="601" type="curve" smooth="yes"/>
      <point x="549" y="607"/>
      <point x="545" y="610"/>
      <point x="537" y="611" type="curve"/>
      <point x="493" y="615" type="line"/>
      <point x="501" y="650" type="line"/>
      <point x="732" y="650" type="line"/>
      <point x="724" y="615" type="line"/>
      <point x="680" y="612"/>
      <point x="645" y="600"/>
      <point x="624" y="578" type="curve" smooth="yes"/>
      <point x="430" y="375" type="line"/>
      <point x="549" y="86" type="line" smooth="yes"/>
      <point x="563" y="52"/>
      <point x="590" y="40"/>
      <point x="638" y="36" type="curve"/>
      <point x="632" y="0" type="line"/>
      <point x="323" y="0" type="line"/>
      <point x="331" y="36" type="line"/>
      <point x="382" y="41" type="line"/>
      <point x="396" y="42"/>
      <point x="405" y="49"/>
      <point x="405" y="60" type="curve" smooth="yes"/>
      <point x="405" y="63"/>
      <point x="404" y="67"/>
      <point x="402" y="71" type="curve"/>
      <point x="328" y="260" type="line"/>
      <point x="325" y="260" type="line"/>
      <point x="178" y="70" type="line"/>
      <point x="172" y="63"/>
      <point x="170" y="55"/>
      <point x="170" y="50" type="curve" smooth="yes"/>
      <point x="170" y="44"/>
      <point x="174" y="40"/>
      <point x="181" y="40" type="curve"/>
      <point x="240" y="36" type="line"/>
      <point x="232" y="0" type="line"/>
    </contour>
  </outline>
</glyph>
<glyph name="Y" format="2">
  <advance width="584"/>
  <unicode hex="0059"/>
  <anchor x="469" y="697" name="top"/>
  <anchor x="299" y="-40" name="bottom"/>
  <outline>
    <contour>
      <point x="134" y="0" type="line"/>
      <point x="143" y="36" type="line"/>
      <point x="198" y="39" type="line" smooth="yes"/>
      <point x="225" y="41"/>
      <point x="232" y="58"/>
      <point x="240" y="92" type="curve" smooth="yes"/>
      <point x="270" y="231" type="line" smooth="yes"/>
      <point x="272" y="241"/>
      <point x="273" y="250"/>
      <point x="273" y="258" type="curve" smooth="yes"/>
      <point x="273" y="270"/>
      <point x="271" y="281"/>
      <point x="268" y="292" type="curve" smooth="yes"/>
      <point x="190" y="572" type="line" smooth="yes"/>
      <point x="182" y="602"/>
      <point x="163" y="613"/>
      <point x="119" y="617" type="curve"/>
      <point x="127" y="650" type="line"/>
      <point x="410" y="650" type="line"/>
      <point x="402" y="615" type="line"/>
      <point x="351" y="609" type="line"/>
      <point x="338" y="607"/>
      <point x="333" y="602"/>
      <point x="333" y="594" type="curve" smooth="yes"/>
      <point x="333" y="591"/>
      <point x="334" y="587"/>
      <point x="335" y="582" type="curve"/>
      <point x="400" y="326" type="line"/>
      <point x="403" y="326" type="line"/>
      <point x="570" y="578" type="line"/>
      <point x="574" y="585"/>
      <point x="576" y="591"/>
      <point x="576" y="596" type="curve" smooth="yes"/>
      <point x="576" y="604"/>
      <point x="570" y="609"/>
      <point x="557" y="610" type="curve" smooth="yes"/>
      <point x="508" y="615" type="line"/>
      <point x="515" y="650" type="line"/>
      <point x="752" y="650" type="line"/>
      <point x="745" y="615" type="line"/>
      <point x="695" y="609"/>
      <point x="670" y="600"/>
      <point x="647" y="567" type="curve" smooth="yes"/>
      <point x="416" y="236" type="line"/>
      <point x="384" y="92" type="line" smooth="yes"/>
      <point x="381" y="79"/>
      <point x="379" y="69"/>
      <point x="379" y="61" type="curve" smooth="yes"/>
      <point x="379" y="48"/>
      <point x="385" y="41"/>
      <point x="401" y="40" type="curve" smooth="yes"/>
      <point x="462" y="36" type="line"/>
      <point x="453" y="0" type="line"/>
    </contour>
  </outline>
</glyph>
<glyph name="Z" format="2">
  <advance width="580"/>
  <unicode hex="005A"/>
  <anchor x="484" y="697" name="top"/>
  <anchor x="289" y="-40" name="bottom"/>
  <outline>
    <contour>
      <point x="5" y="19" type="line"/>
      <point x="508" y="607" type="line"/>
      <point x="375" y="607" type="line" smooth="yes"/>
      <point x="259" y="607"/>
      <point x="237" y="574"/>
      <point x="194" y="475" type="curve"/>
      <point x="158" y="475" type="line"/>
      <point x="195" y="650" type="line"/>
      <point x="697" y="650" type="line"/>
      <point x="704" y="633" type="line"/>
      <point x="198" y="43" type="line"/>
      <point x="384" y="43" type="line" smooth="yes"/>
      <point x="478" y="43"/>
      <point x="528" y="108"/>
      <point x="580" y="196" type="curve"/>
      <point x="616" y="196" type="line"/>
      <point x="560" y="0" type="line"/>
      <point x="11" y="0" type="line"/>
    </contour>
  </outline>
</glyph>
<glyph name="bracketleft" format="2">
  <advance width="377"/>
  <unicode hex="005B"/>
  <outline>
    <contour>
      <point x="21" y="-186" type="line"/>
      <point x="232" y="748" type="line"/>
      <point x="444" y="748" type="line"/>
      <point x="436" y="711" type="line"/>
      <point x="364" y="702" type="line" smooth="yes"/>
      <point x="332" y="698"/>
      <point x="325" y="682"/>
      <point x="318" y="649" type="curve" smooth="yes"/>
      <point x="153" y="-87" type="line"/>
      <point x="151" y="-98"/>
      <point x="149" y="-107"/>
      <point x="149" y="-114" type="curve" smooth="yes"/>
      <point x="149" y="-129"/>
      <point x="156" y="-138"/>
      <point x="175" y="-140" type="curve" smooth="yes"/>
      <point x="242" y="-148" type="line"/>
      <point x="232" y="-186" type="line"/>
    </contour>
  </outline>
</glyph>
<glyph name="backslash" format="2">
  <advance width="432"/>
  <unicode hex="005C"/>
  <outline>
    <contour>
      <point x="338" y="-14" type="line"/>
      <point x="140" y="665" type="line"/>
      <point x="234" y="665" type="line"/>
      <point x="432" y="-14" type="line"/>
    </contour>
  </outline>
</glyph>
<glyph name="bracketright" format="2">
  <advance width="377"/>
  <unicode hex="005D"/>
  <outline>
    <contour>
      <point x="5" y="-186" type="line"/>
      <point x="14" y="-148" type="line"/>
      <point x="85" y="-140" type="line" smooth="yes"/>
      <point x="117" y="-136"/>
      <point x="125" y="-120"/>
      <point x="132" y="-87" type="curve" smooth="yes"/>
      <point x="297" y="649" type="line" smooth="yes"/>
      <point x="299" y="659"/>
      <point x="301" y="668"/>
      <point x="301" y="675" type="curve" smooth="yes"/>
      <point x="301" y="691"/>
      <point x="294" y="699"/>
      <point x="274" y="702" type="curve" smooth="yes"/>
      <point x="209" y="711" type="line"/>
      <point x="217" y="748" type="line"/>
      <point x="429" y="748" type="line"/>
      <point x="217" y="-186" type="line"/>
    </contour>
  </outline>
</glyph>
<glyph name="asciicircum" format="2">
  <advance width="564"/>
  <unicode hex="005E"/>
  <outline>
    <contour>
      <point x="107" y="202" type="line"/>
      <point x="292" y="628" type="line"/>
      <point x="385" y="628" type="line"/>
      <point x="566" y="202" type="line"/>
      <point x="468" y="202" type="line"/>
      <point x="338" y="523" type="line"/>
      <point x="205" y="202" type="line"/>
    </contour>
  </outline>
</glyph>
<glyph name="underscore" format="2">
  <advance width="470"/>
  <unicode hex="005F"/>
  <outline>
    <contour>
      <point x="0" y="-70" type="line"/>
      <point x="470" y="-70" type="line"/>
      <point x="470" y="-118" type="line"/>
      <point x="0" y="-118" type="line"/>
    </contour>
  </outline>
</glyph>
<glyph name="grave" format="2">
  <advance width="376"/>
  <unicode hex="0060"/>
  <outline>
    <contour>
      <point x="185" y="639" type="curve" smooth="yes"/>
      <point x="185" y="663"/>
      <point x="212" y="696"/>
      <point x="235" y="696" type="curve" smooth="yes"/>
      <point x="254" y="696"/>
      <point x="270" y="685"/>
      <point x="305" y="649" type="curve" smooth="yes"/>
      <point x="441" y="509" type="line"/>
      <point x="421" y="480" type="line"/>
      <point x="249" y="577" type="line" smooth="yes"/>
      <point x="215" y="596"/>
      <point x="185" y="615"/>
    </contour>
  </outline>
</glyph>
<glyph name="a" format="2">
  <advance width="560"/>
  <unicode hex="0061"/>
  <anchor x="417" y="490" name="top"/>
  <anchor x="417" y="490" name="t.ring"/>
  <anchor x="476" y="0" name="b.ogonek"/>
  <anchor x="280" y="-40" name="bottom"/>
  <outline>
    <contour>
      <point x="57" y="102" type="curve" smooth="yes"/>
      <point x="57" y="225"/>
      <point x="160" y="472"/>
      <point x="384" y="472" type="curve" smooth="yes"/>
      <point x="409" y="472"/>
      <point x="434" y="466"/>
      <point x="451" y="456" type="curve"/>
      <point x="455" y="464" type="line"/>
      <point x="584" y="464" type="line"/>
      <point x="489" y="108" type="line"/>
      <point x="486" y="98"/>
      <point x="485" y="89"/>
      <point x="485" y="82" type="curve" smooth="yes"/>
      <point x="485" y="71"/>
      <point x="489" y="64"/>
      <point x="499" y="64" type="curve" smooth="yes"/>
      <point x="522" y="64"/>
      <point x="557" y="114"/>
      <point x="581" y="155" type="curve"/>
      <point x="608" y="140" type="line"/>
      <point x="569" y="61"/>
      <point x="510" y="-11"/>
      <point x="421" y="-11" type="curve" smooth="yes"/>
      <point x="377" y="-11"/>
      <point x="354" y="10"/>
      <point x="354" y="53" type="curve" smooth="yes"/>
      <point x="354" y="68"/>
      <point x="357" y="86"/>
      <point x="363" y="107" type="curve" smooth="yes"/>
      <point x="386" y="190" type="line"/>
      <point x="381" y="190" type="line"/>
      <point x="331" y="104"/>
      <point x="261" y="-11"/>
      <point x="149" y="-11" type="curve" smooth="yes"/>
      <point x="82" y="-11"/>
      <point x="57" y="45"/>
    </contour>
    <contour>
      <point x="202" y="108" type="curve" smooth="yes"/>
      <point x="202" y="82"/>
      <point x="207" y="64"/>
      <point x="229" y="64" type="curve" smooth="yes"/>
      <point x="312" y="64"/>
      <point x="422" y="347"/>
      <point x="439" y="415" type="curve"/>
      <point x="427" y="423"/>
      <point x="411" y="429"/>
      <point x="393" y="429" type="curve" smooth="yes"/>
      <point x="287" y="429"/>
      <point x="202" y="207"/>
    </contour>
  </outline>
</glyph>
<glyph name="b" format="2">
  <advance width="550"/>
  <unicode hex="0062"/>
  <anchor x="430" y="697" name="top"/>
  <anchor x="289" y="-40" name="bottom"/>
  <outline>
    <contour>
      <point x="64" y="0" type="line"/>
      <point x="197" y="588" type="line"/>
      <point x="200" y="599"/>
      <point x="201" y="607"/>
      <point x="201" y="614" type="curve" smooth="yes"/>
      <point x="201" y="628"/>
      <point x="195" y="633"/>
      <point x="183" y="635" type="curve" smooth="yes"/>
      <point x="136" y="642" type="line"/>
      <point x="141" y="672" type="line"/>
      <point x="351" y="697" type="line"/>
      <point x="356" y="692" type="line"/>
      <point x="251" y="286" type="line"/>
      <point x="256" y="286" type="line"/>
      <point x="321" y="404"/>
      <point x="399" y="472"/>
      <point x="484" y="472" type="curve" smooth="yes"/>
      <point x="557" y="472"/>
      <point x="589" y="422"/>
      <point x="589" y="352" type="curve" smooth="yes"/>
      <point x="589" y="180"/>
      <point x="464" y="-11"/>
      <point x="279" y="-11" type="curve" smooth="yes"/>
      <point x="215" y="-11"/>
      <point x="170" y="11"/>
      <point x="145" y="41" type="curve"/>
      <point x="110" y="0" type="line"/>
    </contour>
    <contour>
      <point x="228" y="102" type="curve" smooth="yes"/>
      <point x="228" y="61"/>
      <point x="244" y="32"/>
      <point x="284" y="32" type="curve" smooth="yes"/>
      <point x="388" y="32"/>
      <point x="445" y="267"/>
      <point x="445" y="341" type="curve" smooth="yes"/>
      <point x="445" y="380"/>
      <point x="435" y="397"/>
      <point x="411" y="397" type="curve" smooth="yes"/>
      <point x="322" y="397"/>
      <point x="228" y="181"/>
    </contour>
  </outline>
  <guideline angle="77.2425" x="65" y="5"/>
</glyph>
<glyph name="c" format="2">
  <advance width="428"/>
  <unicode hex="0063"/>
  <anchor x="273" y="10" name="b.cedilla"/>
  <anchor x="362" y="490" name="top"/>
  <outline>
    <contour>
      <point x="69" y="146" type="curve" smooth="yes"/>
      <point x="69" y="292"/>
      <point x="168" y="472"/>
      <point x="361" y="472" type="curve" smooth="yes"/>
      <point x="447" y="472"/>
      <point x="501" y="435"/>
      <point x="501" y="381" type="curve" smooth="yes"/>
      <point x="501" y="347"/>
      <point x="452" y="321"/>
      <point x="419" y="321" type="curve" smooth="yes"/>
      <point x="394" y="321"/>
      <point x="387" y="342"/>
      <point x="381" y="366" type="curve" smooth="yes"/>
      <point x="369" y="416"/>
      <point x="358" y="429"/>
      <point x="339" y="429" type="curve" smooth="yes"/>
      <point x="280" y="429"/>
      <point x="212" y="280"/>
      <point x="212" y="152" type="curve" smooth="yes"/>
      <point x="212" y="95"/>
      <point x="229" y="51"/>
      <point x="279" y="51" type="curve" smooth="yes"/>
      <point x="341" y="51"/>
      <point x="385" y="112"/>
      <point x="421" y="169" type="curve"/>
      <point x="449" y="149" type="line"/>
      <point x="381" y="15"/>
      <point x="290" y="-11"/>
      <point x="220" y="-11" type="curve" smooth="yes"/>
      <point x="137" y="-11"/>
      <point x="69" y="32"/>
    </contour>
  </outline>
</glyph>
<glyph name="d" format="2">
  <advance width="572"/>
  <unicode hex="0064"/>
  <anchor x="658" y="743" name="t.r.caron"/>
  <anchor x="396" y="697" name="top"/>
  <anchor x="289" y="-40" name="bottom"/>
  <anchor x="303" y="10" name="b.cedilla"/>
  <outline>
    <contour>
      <point x="60" y="113" type="curve" smooth="yes"/>
      <point x="60" y="224"/>
      <point x="156" y="472"/>
      <point x="379" y="472" type="curve" smooth="yes"/>
      <point x="410" y="472"/>
      <point x="436" y="466"/>
      <point x="454" y="456" type="curve"/>
      <point x="456" y="457" type="line"/>
      <point x="489" y="597" type="line" smooth="yes"/>
      <point x="491" y="605"/>
      <point x="492" y="611"/>
      <point x="492" y="616" type="curve" smooth="yes"/>
      <point x="492" y="628"/>
      <point x="487" y="634"/>
      <point x="475" y="636" type="curve" smooth="yes"/>
      <point x="427" y="643" type="line"/>
      <point x="433" y="672" type="line"/>
      <point x="638" y="697" type="line"/>
      <point x="645" y="692" type="line"/>
      <point x="508" y="108" type="line"/>
      <point x="505" y="98"/>
      <point x="504" y="90"/>
      <point x="504" y="83" type="curve" smooth="yes"/>
      <point x="504" y="72"/>
      <point x="508" y="64"/>
      <point x="519" y="64" type="curve" smooth="yes"/>
      <point x="540" y="64"/>
      <point x="575" y="114"/>
      <point x="599" y="156" type="curve"/>
      <point x="626" y="143" type="line"/>
      <point x="588" y="61"/>
      <point x="528" y="-12"/>
      <point x="442" y="-12" type="curve" smooth="yes"/>
      <point x="396" y="-12"/>
      <point x="369" y="7"/>
      <point x="369" y="51" type="curve" smooth="yes"/>
      <point x="369" y="64"/>
      <point x="371" y="80"/>
      <point x="376" y="97" type="curve" smooth="yes"/>
      <point x="404" y="198" type="line"/>
      <point x="400" y="199" type="line"/>
      <point x="346" y="104"/>
      <point x="280" y="-11"/>
      <point x="161" y="-11" type="curve" smooth="yes"/>
      <point x="82" y="-11"/>
      <point x="60" y="52"/>
    </contour>
    <contour>
      <point x="205" y="118" type="curve" smooth="yes"/>
      <point x="205" y="84"/>
      <point x="217" y="64"/>
      <point x="241" y="64" type="curve" smooth="yes"/>
      <point x="304" y="64"/>
      <point x="408" y="241"/>
      <point x="446" y="414" type="curve"/>
      <point x="435" y="423"/>
      <point x="417" y="429"/>
      <point x="396" y="429" type="curve" smooth="yes"/>
      <point x="284" y="429"/>
      <point x="205" y="206"/>
    </contour>
  </outline>
</glyph>
<glyph name="e" format="2">
  <advance width="447"/>
  <unicode hex="0065"/>
  <anchor x="361" y="490" name="top"/>
  <anchor x="284" y="0" name="b.ogonek"/>
  <anchor x="289" y="-40" name="bottom"/>
  <outline>
    <contour>
      <point x="69" y="151" type="curve" smooth="yes"/>
      <point x="69" y="314"/>
      <point x="190" y="472"/>
      <point x="361" y="472" type="curve" smooth="yes"/>
      <point x="441" y="472"/>
      <point x="500" y="430"/>
      <point x="500" y="363" type="curve" smooth="yes"/>
      <point x="500" y="232"/>
      <point x="306" y="195"/>
      <point x="209" y="176" type="curve"/>
      <point x="209" y="153" type="line" smooth="yes"/>
      <point x="209" y="102"/>
      <point x="227" y="51"/>
      <point x="282" y="51" type="curve" smooth="yes"/>
      <point x="338" y="51"/>
      <point x="382" y="94"/>
      <point x="432" y="165" type="curve"/>
      <point x="461" y="143" type="line"/>
      <point x="392" y="19"/>
      <point x="304" y="-11"/>
      <point x="222" y="-11" type="curve" smooth="yes"/>
      <point x="154" y="-11"/>
      <point x="69" y="21"/>
    </contour>
    <contour>
      <point x="212" y="218" type="curve"/>
      <point x="321" y="240"/>
      <point x="380" y="314"/>
      <point x="380" y="387" type="curve" smooth="yes"/>
      <point x="380" y="413"/>
      <point x="368" y="429"/>
      <point x="345" y="429" type="curve" smooth="yes"/>
      <point x="290" y="429"/>
      <point x="225" y="326"/>
    </contour>
  </outline>
</glyph>
<glyph name="f" format="2">
  <advance width="327"/>
  <unicode hex="0066"/>
  <anchor x="392" y="717" name="top"/>
  <outline>
    <contour>
      <point x="-88" y="-158" type="curve" smooth="yes"/>
      <point x="-88" y="-129"/>
      <point x="-65" y="-102"/>
      <point x="-35" y="-102" type="curve" smooth="yes"/>
      <point x="-14" y="-102"/>
      <point x="-3" y="-118"/>
      <point x="5" y="-132" type="curve" smooth="yes"/>
      <point x="28" y="-171"/>
      <point x="40" y="-184"/>
      <point x="49" y="-184" type="curve" smooth="yes"/>
      <point x="57" y="-184"/>
      <point x="64" y="-176"/>
      <point x="67" y="-159" type="curve" smooth="yes"/>
      <point x="182" y="415" type="line"/>
      <point x="99" y="415" type="line"/>
      <point x="112" y="461" type="line"/>
      <point x="193" y="461" type="line"/>
      <point x="199" y="485" type="line" smooth="yes"/>
      <point x="228" y="593"/>
      <point x="281" y="697"/>
      <point x="418" y="697" type="curve" smooth="yes"/>
      <point x="499" y="697"/>
      <point x="553" y="658"/>
      <point x="553" y="615" type="curve" smooth="yes"/>
      <point x="553" y="581"/>
      <point x="517" y="558"/>
      <point x="488" y="558" type="curve" smooth="yes"/>
      <point x="465" y="558"/>
      <point x="455" y="572"/>
      <point x="448" y="587" type="curve" smooth="yes"/>
      <point x="422" y="642"/>
      <point x="411" y="654"/>
      <point x="397" y="654" type="curve" smooth="yes"/>
      <point x="382" y="654"/>
      <point x="372" y="637"/>
      <point x="363" y="598" type="curve" smooth="yes"/>
      <point x="330" y="461" type="line"/>
      <point x="450" y="461" type="line"/>
      <point x="439" y="415" type="line"/>
      <point x="321" y="415" type="line"/>
      <point x="230" y="26" type="line" smooth="yes"/>
      <point x="191" y="-142"/>
      <point x="134" y="-227"/>
      <point x="24" y="-227" type="curve" smooth="yes"/>
      <point x="-48" y="-227"/>
      <point x="-88" y="-197"/>
    </contour>
  </outline>
</glyph>
<glyph name="g" format="2">
  <advance width="490"/>
  <unicode hex="0067"/>
  <anchor x="351" y="490" name="top"/>
  <outline>
    <contour>
      <point x="20" y="-99" type="curve" smooth="yes"/>
      <point x="20" y="-23"/>
      <point x="103" y="9"/>
      <point x="168" y="17" type="curve"/>
      <point x="168" y="20" type="line"/>
      <point x="114" y="37"/>
      <point x="83" y="64"/>
      <point x="83" y="94" type="curve" smooth="yes"/>
      <point x="83" y="145"/>
      <point x="149" y="169"/>
      <point x="190" y="178" type="curve"/>
      <point x="190" y="181" type="line"/>
      <point x="151" y="193"/>
      <point x="100" y="228"/>
      <point x="100" y="294" type="curve" smooth="yes"/>
      <point x="100" y="366"/>
      <point x="151" y="472"/>
      <point x="334" y="472" type="curve" smooth="yes"/>
      <point x="382" y="472"/>
      <point x="433" y="460"/>
      <point x="464" y="444" type="curve"/>
      <point x="600" y="481" type="line"/>
      <point x="605" y="473" type="line"/>
      <point x="576" y="402" type="line"/>
      <point x="505" y="391" type="line"/>
      <point x="514" y="377"/>
      <point x="521" y="356"/>
      <point x="521" y="331" type="curve" smooth="yes"/>
      <point x="521" y="229"/>
      <point x="429" y="166"/>
      <point x="296" y="166" type="curve" smooth="yes"/>
      <point x="277" y="166"/>
      <point x="264" y="166"/>
      <point x="240" y="168" type="curve"/>
      <point x="224" y="162"/>
      <point x="210" y="154"/>
      <point x="210" y="138" type="curve" smooth="yes"/>
      <point x="210" y="116"/>
      <point x="236" y="109"/>
      <point x="324" y="88" type="curve" smooth="yes"/>
      <point x="421" y="65"/>
      <point x="494" y="21"/>
      <point x="494" y="-66" type="curve" smooth="yes"/>
      <point x="494" y="-175"/>
      <point x="395" y="-227"/>
      <point x="244" y="-227" type="curve" smooth="yes"/>
      <point x="109" y="-227"/>
      <point x="20" y="-175"/>
    </contour>
    <contour>
      <point x="149" y="-87" type="curve" smooth="yes"/>
      <point x="149" y="-152"/>
      <point x="207" y="-184"/>
      <point x="267" y="-184" type="curve" smooth="yes"/>
      <point x="317" y="-184"/>
      <point x="374" y="-159"/>
      <point x="374" y="-99" type="curve" smooth="yes"/>
      <point x="374" y="-26"/>
      <point x="274" y="-8"/>
      <point x="219" y="0" type="curve"/>
      <point x="197" y="-4"/>
      <point x="149" y="-27"/>
    </contour>
    <contour>
      <point x="243" y="274" type="curve" smooth="yes"/>
      <point x="243" y="237"/>
      <point x="259" y="210"/>
      <point x="297" y="210" type="curve" smooth="yes"/>
      <point x="368" y="210"/>
      <point x="393" y="316"/>
      <point x="393" y="371" type="curve" smooth="yes"/>
      <point x="393" y="416"/>
      <point x="361" y="429"/>
      <point x="337" y="429" type="curve" smooth="yes"/>
      <point x="276" y="429"/>
      <point x="243" y="340"/>
    </contour>
  </outline>
</glyph>
<glyph name="h" format="2">
  <advance width="591"/>
  <unicode hex="0068"/>
  <anchor x="456" y="697" name="top"/>
  <anchor x="306" y="-40" name="bottom"/>
  <outline>
    <contour>
      <point x="74" y="-11" type="line"/>
      <point x="209" y="595" type="line" smooth="yes"/>
      <point x="211" y="603"/>
      <point x="212" y="610"/>
      <point x="212" y="615" type="curve" smooth="yes"/>
      <point x="212" y="627"/>
      <point x="207" y="633"/>
      <point x="194" y="635" type="curve" smooth="yes"/>
      <point x="139" y="642" type="line"/>
      <point x="147" y="672" type="line"/>
      <point x="362" y="697" type="line"/>
      <point x="367" y="693" type="line"/>
      <point x="266" y="277" type="line"/>
      <point x="271" y="277" type="line"/>
      <point x="322" y="373"/>
      <point x="405" y="472"/>
      <point x="504" y="472" type="curve" smooth="yes"/>
      <point x="558" y="472"/>
      <point x="586" y="439"/>
      <point x="586" y="388" type="curve" smooth="yes"/>
      <point x="586" y="369"/>
      <point x="582" y="349"/>
      <point x="575" y="326" type="curve" smooth="yes"/>
      <point x="508" y="108" type="line" smooth="yes"/>
      <point x="505" y="98"/>
      <point x="503" y="88"/>
      <point x="503" y="81" type="curve" smooth="yes"/>
      <point x="503" y="70"/>
      <point x="507" y="64"/>
      <point x="518" y="64" type="curve" smooth="yes"/>
      <point x="540" y="64"/>
      <point x="575" y="114"/>
      <point x="599" y="157" type="curve"/>
      <point x="626" y="143" type="line"/>
      <point x="588" y="61"/>
      <point x="531" y="-11"/>
      <point x="442" y="-11" type="curve" smooth="yes"/>
      <point x="396" y="-11"/>
      <point x="367" y="13"/>
      <point x="367" y="59" type="curve" smooth="yes"/>
      <point x="367" y="73"/>
      <point x="370" y="88"/>
      <point x="375" y="106" type="curve" smooth="yes"/>
      <point x="445" y="342" type="line" smooth="yes"/>
      <point x="448" y="352"/>
      <point x="450" y="361"/>
      <point x="450" y="369" type="curve" smooth="yes"/>
      <point x="450" y="387"/>
      <point x="441" y="397"/>
      <point x="426" y="397" type="curve" smooth="yes"/>
      <point x="380" y="397"/>
      <point x="303" y="295"/>
      <point x="266" y="200" type="curve" smooth="yes"/>
      <point x="244" y="146"/>
      <point x="230" y="96"/>
      <point x="205" y="0" type="curve"/>
    </contour>
  </outline>
</glyph>
<glyph name="i" format="2">
  <advance width="318"/>
  <unicode hex="0069"/>
  <anchor x="162" y="-40" name="bottom"/>
  <outline>
    <contour>
      <point x="212" y="594" type="curve" smooth="yes"/>
      <point x="212" y="634"/>
      <point x="238" y="677"/>
      <point x="293" y="677" type="curve" smooth="yes"/>
      <point x="334" y="677"/>
      <point x="368" y="654"/>
      <point x="368" y="608" type="curve" smooth="yes"/>
      <point x="368" y="556"/>
      <point x="336" y="525"/>
      <point x="288" y="525" type="curve" smooth="yes"/>
      <point x="243" y="525"/>
      <point x="212" y="552"/>
    </contour>
    <contour>
      <point x="95" y="55" type="curve" smooth="yes"/>
      <point x="95" y="68"/>
      <point x="97" y="84"/>
      <point x="102" y="101" type="curve" smooth="yes"/>
      <point x="174" y="368" type="line" smooth="yes"/>
      <point x="176" y="376"/>
      <point x="177" y="382"/>
      <point x="177" y="387" type="curve" smooth="yes"/>
      <point x="177" y="399"/>
      <point x="171" y="407"/>
      <point x="158" y="408" type="curve"/>
      <point x="103" y="414" type="line"/>
      <point x="111" y="445" type="line"/>
      <point x="327" y="472" type="line"/>
      <point x="333" y="466" type="line"/>
      <point x="236" y="108" type="line"/>
      <point x="233" y="98"/>
      <point x="231" y="89"/>
      <point x="231" y="82" type="curve" smooth="yes"/>
      <point x="231" y="71"/>
      <point x="235" y="64"/>
      <point x="246" y="64" type="curve" smooth="yes"/>
      <point x="268" y="64"/>
      <point x="303" y="114"/>
      <point x="327" y="156" type="curve"/>
      <point x="355" y="140" type="line"/>
      <point x="316" y="61"/>
      <point x="258" y="-11"/>
      <point x="167" y="-11" type="curve" smooth="yes"/>
      <point x="119" y="-11"/>
      <point x="95" y="12"/>
    </contour>
  </outline>
</glyph>
<glyph name="j" format="2">
  <advance width="313"/>
  <unicode hex="006A"/>
  <outline>
    <contour>
      <point x="218" y="594" type="curve" smooth="yes"/>
      <point x="218" y="634"/>
      <point x="245" y="677"/>
      <point x="300" y="677" type="curve" smooth="yes"/>
      <point x="341" y="677"/>
      <point x="375" y="654"/>
      <point x="375" y="608" type="curve" smooth="yes"/>
      <point x="375" y="556"/>
      <point x="342" y="525"/>
      <point x="294" y="525" type="curve" smooth="yes"/>
      <point x="249" y="525"/>
      <point x="218" y="552"/>
    </contour>
    <contour>
      <point x="-80" y="-164" type="curve" smooth="yes"/>
      <point x="-80" y="-139"/>
      <point x="-56" y="-107"/>
      <point x="-29" y="-107" type="curve" smooth="yes"/>
      <point x="-11" y="-107"/>
      <point x="4" y="-124"/>
      <point x="13" y="-138" type="curve" smooth="yes"/>
      <point x="37" y="-174"/>
      <point x="47" y="-184"/>
      <point x="55" y="-184" type="curve" smooth="yes"/>
      <point x="63" y="-184"/>
      <point x="67" y="-177"/>
      <point x="73" y="-152" type="curve" smooth="yes"/>
      <point x="188" y="368" type="line"/>
      <point x="190" y="376"/>
      <point x="191" y="382"/>
      <point x="191" y="388" type="curve" smooth="yes"/>
      <point x="191" y="400"/>
      <point x="186" y="407"/>
      <point x="174" y="408" type="curve" smooth="yes"/>
      <point x="114" y="414" type="line"/>
      <point x="120" y="445" type="line"/>
      <point x="338" y="472" type="line"/>
      <point x="345" y="467" type="line"/>
      <point x="237" y="-5" type="line" smooth="yes"/>
      <point x="210" y="-117"/>
      <point x="172" y="-227"/>
      <point x="39" y="-227" type="curve" smooth="yes"/>
      <point x="-42" y="-227"/>
      <point x="-80" y="-198"/>
    </contour>
  </outline>
</glyph>
<glyph name="k" format="2">
  <advance width="535"/>
  <unicode hex="006B"/>
  <anchor x="473" y="697" name="top"/>
  <anchor x="306" y="-40" name="bottom"/>
  <outline>
    <contour>
      <point x="70" y="-11" type="line"/>
      <point x="209" y="595" type="line" smooth="yes"/>
      <point x="211" y="603"/>
      <point x="212" y="610"/>
      <point x="212" y="615" type="curve" smooth="yes"/>
      <point x="212" y="627"/>
      <point x="207" y="633"/>
      <point x="194" y="635" type="curve" smooth="yes"/>
      <point x="139" y="642" type="line"/>
      <point x="149" y="672" type="line"/>
      <point x="360" y="697" type="line"/>
      <point x="365" y="693" type="line"/>
      <point x="203" y="0" type="line"/>
    </contour>
    <contour>
      <point x="542" y="472" type="curve" smooth="yes"/>
      <point x="581" y="472"/>
      <point x="601" y="444"/>
      <point x="601" y="416" type="curve" smooth="yes"/>
      <point x="601" y="377"/>
      <point x="578" y="343"/>
      <point x="543" y="343" type="curve" smooth="yes"/>
      <point x="526" y="343"/>
      <point x="514" y="351"/>
      <point x="501" y="360" type="curve"/>
      <point x="481" y="375"/>
      <point x="471" y="380"/>
      <point x="460" y="380" type="curve" smooth="yes"/>
      <point x="440" y="380"/>
      <point x="406" y="348"/>
      <point x="375" y="312" type="curve"/>
      <point x="383" y="278"/>
      <point x="437" y="64"/>
      <point x="478" y="64" type="curve" smooth="yes"/>
      <point x="496" y="64"/>
      <point x="519" y="96"/>
      <point x="547" y="144" type="curve"/>
      <point x="576" y="129" type="line"/>
      <point x="539" y="43"/>
      <point x="489" y="-11"/>
      <point x="418" y="-11" type="curve" smooth="yes"/>
      <point x="365" y="-11"/>
      <point x="337" y="20"/>
      <point x="317" y="74" type="curve" smooth="yes"/>
      <point x="297" y="126"/>
      <point x="278" y="195"/>
      <point x="268" y="239" type="curve"/>
      <point x="313" y="314"/>
      <point x="463" y="472"/>
    </contour>
  </outline>
</glyph>
<glyph name="l" format="2">
  <advance width="307"/>
  <unicode hex="006C"/>
  <anchor x="292" y="717" name="top"/>
  <anchor x="374" y="743" name="t.r.caron"/>
  <anchor x="156" y="-40" name="bottom"/>
  <outline>
    <contour>
      <point x="91" y="60" type="curve" smooth="yes"/>
      <point x="91" y="74"/>
      <point x="94" y="90"/>
      <point x="98" y="108" type="curve" smooth="yes"/>
      <point x="215" y="595" type="line" smooth="yes"/>
      <point x="217" y="603"/>
      <point x="218" y="610"/>
      <point x="218" y="615" type="curve" smooth="yes"/>
      <point x="218" y="627"/>
      <point x="213" y="633"/>
      <point x="200" y="635" type="curve" smooth="yes"/>
      <point x="146" y="642" type="line"/>
      <point x="152" y="672" type="line"/>
      <point x="366" y="697" type="line"/>
      <point x="371" y="693" type="line"/>
      <point x="229" y="108" type="line" smooth="yes"/>
      <point x="227" y="99"/>
      <point x="225" y="90"/>
      <point x="225" y="83" type="curve" smooth="yes"/>
      <point x="225" y="71"/>
      <point x="229" y="64"/>
      <point x="240" y="64" type="curve" smooth="yes"/>
      <point x="261" y="64"/>
      <point x="297" y="111"/>
      <point x="321" y="156" type="curve"/>
      <point x="351" y="139" type="line"/>
      <point x="312" y="61"/>
      <point x="254" y="-11"/>
      <point x="165" y="-11" type="curve" smooth="yes"/>
      <point x="116" y="-11"/>
      <point x="91" y="13"/>
    </contour>
  </outline>
</glyph>
<glyph name="m" format="2">
  <advance width="859"/>
  <unicode hex="006D"/>
  <anchor x="543" y="490" name="top"/>
  <anchor x="437" y="-40" name="bottom"/>
  <outline>
    <contour>
      <point x="76" y="-11" type="line"/>
      <point x="171" y="368" type="line" smooth="yes"/>
      <point x="173" y="376"/>
      <point x="174" y="383"/>
      <point x="174" y="389" type="curve" smooth="yes"/>
      <point x="174" y="401"/>
      <point x="169" y="407"/>
      <point x="157" y="408" type="curve" smooth="yes"/>
      <point x="102" y="414" type="line"/>
      <point x="109" y="445" type="line"/>
      <point x="323" y="472" type="line"/>
      <point x="328" y="466" type="line"/>
      <point x="268" y="266" type="line"/>
      <point x="273" y="266" type="line"/>
      <point x="331" y="377"/>
      <point x="419" y="472"/>
      <point x="503" y="472" type="curve" smooth="yes"/>
      <point x="553" y="472"/>
      <point x="572" y="445"/>
      <point x="572" y="404" type="curve" smooth="yes"/>
      <point x="572" y="384"/>
      <point x="568" y="360"/>
      <point x="560" y="335" type="curve" smooth="yes"/>
      <point x="540" y="267" type="line"/>
      <point x="545" y="266" type="line"/>
      <point x="603" y="378"/>
      <point x="687" y="472"/>
      <point x="780" y="472" type="curve" smooth="yes"/>
      <point x="834" y="472"/>
      <point x="857" y="439"/>
      <point x="857" y="393" type="curve" smooth="yes"/>
      <point x="857" y="375"/>
      <point x="853" y="356"/>
      <point x="847" y="336" type="curve" smooth="yes"/>
      <point x="778" y="108" type="line" smooth="yes"/>
      <point x="775" y="98"/>
      <point x="773" y="89"/>
      <point x="773" y="82" type="curve" smooth="yes"/>
      <point x="773" y="71"/>
      <point x="777" y="64"/>
      <point x="788" y="64" type="curve" smooth="yes"/>
      <point x="811" y="64"/>
      <point x="846" y="114"/>
      <point x="870" y="156" type="curve"/>
      <point x="895" y="139" type="line"/>
      <point x="857" y="61"/>
      <point x="801" y="-11"/>
      <point x="709" y="-11" type="curve" smooth="yes"/>
      <point x="666" y="-11"/>
      <point x="640" y="13"/>
      <point x="640" y="58" type="curve" smooth="yes"/>
      <point x="640" y="71"/>
      <point x="641" y="85"/>
      <point x="646" y="101" type="curve" smooth="yes"/>
      <point x="717" y="342" type="line"/>
      <point x="720" y="354"/>
      <point x="722" y="363"/>
      <point x="722" y="372" type="curve" smooth="yes"/>
      <point x="722" y="387"/>
      <point x="716" y="397"/>
      <point x="700" y="397" type="curve" smooth="yes"/>
      <point x="656" y="397"/>
      <point x="572" y="271"/>
      <point x="543" y="201" type="curve" smooth="yes"/>
      <point x="521" y="146"/>
      <point x="504" y="96"/>
      <point x="478" y="0" type="curve"/>
      <point x="348" y="-11" type="line"/>
      <point x="446" y="352" type="line" smooth="yes"/>
      <point x="449" y="363"/>
      <point x="450" y="371"/>
      <point x="450" y="378" type="curve" smooth="yes"/>
      <point x="450" y="392"/>
      <point x="444" y="397"/>
      <point x="428" y="397" type="curve" smooth="yes"/>
      <point x="384" y="397"/>
      <point x="299" y="269"/>
      <point x="271" y="199" type="curve" smooth="yes"/>
      <point x="250" y="146"/>
      <point x="233" y="96"/>
      <point x="206" y="0" type="curve"/>
    </contour>
  </outline>
</glyph>
<glyph name="n" format="2">
  <advance width="596"/>
  <unicode hex="006E"/>
  <anchor x="413" y="490" name="top"/>
  <anchor x="313" y="-40" name="bottom"/>
  <outline>
    <contour>
      <point x="75" y="-11" type="line"/>
      <point x="172" y="368" type="line" smooth="yes"/>
      <point x="174" y="376"/>
      <point x="176" y="383"/>
      <point x="176" y="389" type="curve" smooth="yes"/>
      <point x="176" y="401"/>
      <point x="170" y="407"/>
      <point x="158" y="408" type="curve" smooth="yes"/>
      <point x="102" y="414" type="line"/>
      <point x="109" y="445" type="line"/>
      <point x="328" y="472" type="line"/>
      <point x="333" y="467" type="line"/>
      <point x="269" y="263" type="line"/>
      <point x="274" y="263" type="line"/>
      <point x="332" y="372"/>
      <point x="418" y="472"/>
      <point x="515" y="472" type="curve" smooth="yes"/>
      <point x="572" y="472"/>
      <point x="595" y="439"/>
      <point x="595" y="393" type="curve" smooth="yes"/>
      <point x="595" y="376"/>
      <point x="592" y="356"/>
      <point x="586" y="336" type="curve" smooth="yes"/>
      <point x="515" y="108" type="line" smooth="yes"/>
      <point x="512" y="99"/>
      <point x="510" y="90"/>
      <point x="510" y="83" type="curve" smooth="yes"/>
      <point x="510" y="72"/>
      <point x="515" y="64"/>
      <point x="525" y="64" type="curve" smooth="yes"/>
      <point x="548" y="64"/>
      <point x="583" y="114"/>
      <point x="606" y="156" type="curve"/>
      <point x="634" y="139" type="line"/>
      <point x="595" y="60"/>
      <point x="539" y="-11"/>
      <point x="445" y="-11" type="curve" smooth="yes"/>
      <point x="401" y="-11"/>
      <point x="374" y="13"/>
      <point x="374" y="57" type="curve" smooth="yes"/>
      <point x="374" y="70"/>
      <point x="376" y="85"/>
      <point x="381" y="101" type="curve" smooth="yes"/>
      <point x="452" y="341" type="line" smooth="yes"/>
      <point x="455" y="351"/>
      <point x="457" y="362"/>
      <point x="457" y="371" type="curve" smooth="yes"/>
      <point x="457" y="386"/>
      <point x="451" y="397"/>
      <point x="433" y="397" type="curve" smooth="yes"/>
      <point x="388" y="397"/>
      <point x="303" y="270"/>
      <point x="275" y="200" type="curve" smooth="yes"/>
      <point x="253" y="145"/>
      <point x="235" y="96"/>
      <point x="208" y="0" type="curve"/>
    </contour>
  </outline>
</glyph>
<glyph name="o" format="2">
  <advance width="528"/>
  <unicode hex="006F"/>
  <anchor x="397" y="490" name="top"/>
  <anchor x="280" y="-40" name="bottom"/>
  <outline>
    <contour>
      <point x="72" y="164" type="curve" smooth="yes"/>
      <point x="72" y="339"/>
      <point x="195" y="472"/>
      <point x="358" y="472" type="curve" smooth="yes"/>
      <point x="485" y="472"/>
      <point x="556" y="407"/>
      <point x="556" y="290" type="curve" smooth="yes"/>
      <point x="556" y="121"/>
      <point x="429" y="-11"/>
      <point x="267" y="-11" type="curve" smooth="yes"/>
      <point x="142" y="-11"/>
      <point x="72" y="52"/>
    </contour>
    <contour>
      <point x="209" y="101" type="curve" smooth="yes"/>
      <point x="209" y="56"/>
      <point x="228" y="32"/>
      <point x="265" y="32" type="curve" smooth="yes"/>
      <point x="331" y="32"/>
      <point x="419" y="214"/>
      <point x="419" y="352" type="curve" smooth="yes"/>
      <point x="419" y="403"/>
      <point x="401" y="429"/>
      <point x="366" y="429" type="curve" smooth="yes"/>
      <point x="295" y="429"/>
      <point x="209" y="250"/>
    </contour>
  </outline>
</glyph>
<glyph name="p" format="2">
  <advance width="569"/>
  <unicode hex="0070"/>
  <anchor x="409" y="490" name="top"/>
  <outline>
    <contour>
      <point x="33" y="-227" type="line"/>
      <point x="163" y="368" type="line"/>
      <point x="165" y="376"/>
      <point x="166" y="382"/>
      <point x="166" y="388" type="curve" smooth="yes"/>
      <point x="166" y="400"/>
      <point x="161" y="407"/>
      <point x="149" y="408" type="curve" smooth="yes"/>
      <point x="93" y="414" type="line"/>
      <point x="100" y="445" type="line"/>
      <point x="315" y="472" type="line"/>
      <point x="320" y="467" type="line"/>
      <point x="266" y="269" type="line"/>
      <point x="270" y="269" type="line"/>
      <point x="342" y="403"/>
      <point x="422" y="472"/>
      <point x="504" y="472" type="curve" smooth="yes"/>
      <point x="575" y="472"/>
      <point x="609" y="425"/>
      <point x="609" y="352" type="curve" smooth="yes"/>
      <point x="609" y="269"/>
      <point x="544" y="-11"/>
      <point x="319" y="-11" type="curve" smooth="yes"/>
      <point x="270" y="-11"/>
      <point x="237" y="-3"/>
      <point x="218" y="8" type="curve"/>
      <point x="164" y="-216" type="line"/>
    </contour>
    <contour>
      <point x="228" y="60" type="curve"/>
      <point x="245" y="43"/>
      <point x="270" y="32"/>
      <point x="299" y="32" type="curve" smooth="yes"/>
      <point x="407" y="32"/>
      <point x="464" y="267"/>
      <point x="464" y="345" type="curve" smooth="yes"/>
      <point x="464" y="379"/>
      <point x="454" y="397"/>
      <point x="430" y="397" type="curve" smooth="yes"/>
      <point x="334" y="397"/>
      <point x="245" y="137"/>
    </contour>
  </outline>
</glyph>
<glyph name="q" format="2">
  <advance width="548"/>
  <unicode hex="0071"/>
  <outline>
    <contour>
      <point x="60" y="92" type="curve" smooth="yes"/>
      <point x="60" y="295"/>
      <point x="215" y="472"/>
      <point x="394" y="472" type="curve" smooth="yes"/>
      <point x="446" y="472"/>
      <point x="484" y="461"/>
      <point x="510" y="450" type="curve"/>
      <point x="548" y="482" type="line"/>
      <point x="601" y="482" type="line"/>
      <point x="437" y="-208" type="line"/>
      <point x="301" y="-227" type="line"/>
      <point x="393" y="179" type="line"/>
      <point x="390" y="179" type="line"/>
      <point x="320" y="61"/>
      <point x="244" y="-11"/>
      <point x="161" y="-11" type="curve" smooth="yes"/>
      <point x="108" y="-11"/>
      <point x="60" y="20"/>
    </contour>
    <contour>
      <point x="205" y="115" type="curve" smooth="yes"/>
      <point x="205" y="90"/>
      <point x="211" y="64"/>
      <point x="237" y="64" type="curve" smooth="yes"/>
      <point x="264" y="64"/>
      <point x="292" y="86"/>
      <point x="338" y="151" type="curve" smooth="yes"/>
      <point x="387" y="220"/>
      <point x="430" y="314"/>
      <point x="454" y="415" type="curve"/>
      <point x="441" y="423"/>
      <point x="423" y="429"/>
      <point x="405" y="429" type="curve" smooth="yes"/>
      <point x="277" y="429"/>
      <point x="205" y="204"/>
    </contour>
  </outline>
</glyph>
<glyph name="r" format="2">
  <advance width="413"/>
  <unicode hex="0072"/>
  <anchor x="169" y="-40" name="bottom"/>
  <anchor x="319" y="490" name="top"/>
  <outline>
    <contour>
      <point x="81" y="-11" type="line"/>
      <point x="168" y="368" type="line" smooth="yes"/>
      <point x="170" y="376"/>
      <point x="171" y="382"/>
      <point x="171" y="388" type="curve" smooth="yes"/>
      <point x="171" y="400"/>
      <point x="166" y="407"/>
      <point x="154" y="408" type="curve" smooth="yes"/>
      <point x="99" y="414" type="line"/>
      <point x="105" y="445" type="line"/>
      <point x="306" y="472" type="line"/>
      <point x="310" y="467" type="line"/>
      <point x="275" y="331" type="line"/>
      <point x="280" y="331" type="line"/>
      <point x="327" y="417"/>
      <point x="385" y="472"/>
      <point x="442" y="472" type="curve" smooth="yes"/>
      <point x="478" y="472"/>
      <point x="500" y="454"/>
      <point x="500" y="416" type="curve" smooth="yes"/>
      <point x="500" y="379"/>
      <point x="474" y="336"/>
      <point x="436" y="336" type="curve" smooth="yes"/>
      <point x="419" y="336"/>
      <point x="404" y="344"/>
      <point x="391" y="353" type="curve" smooth="yes"/>
      <point x="379" y="361"/>
      <point x="366" y="368"/>
      <point x="355" y="368" type="curve" smooth="yes"/>
      <point x="325" y="368"/>
      <point x="293" y="302"/>
      <point x="264" y="200" type="curve" smooth="yes"/>
      <point x="246" y="137"/>
      <point x="229" y="61"/>
      <point x="212" y="0" type="curve"/>
    </contour>
  </outline>
</glyph>
<glyph name="s" format="2">
  <advance width="391"/>
  <unicode hex="0073"/>
  <anchor x="301" y="490" name="top"/>
  <anchor x="210" y="-40" name="bottom"/>
  <anchor x="247" y="10" name="b.cedilla"/>
  <outline>
    <contour>
      <point x="42" y="84" type="curve" smooth="yes"/>
      <point x="42" y="119"/>
      <point x="76" y="149"/>
      <point x="104" y="149" type="curve" smooth="yes"/>
      <point x="126" y="149"/>
      <point x="138" y="135"/>
      <point x="146" y="120" type="curve"/>
      <point x="181" y="50"/>
      <point x="207" y="32"/>
      <point x="236" y="32" type="curve" smooth="yes"/>
      <point x="264" y="32"/>
      <point x="285" y="52"/>
      <point x="285" y="81" type="curve" smooth="yes"/>
      <point x="285" y="123"/>
      <point x="243" y="158"/>
      <point x="204" y="190" type="curve" smooth="yes"/>
      <point x="165" y="222"/>
      <point x="119" y="265"/>
      <point x="119" y="320" type="curve" smooth="yes"/>
      <point x="119" y="399"/>
      <point x="176" y="472"/>
      <point x="290" y="472" type="curve" smooth="yes"/>
      <point x="396" y="472"/>
      <point x="439" y="421"/>
      <point x="439" y="390" type="curve" smooth="yes"/>
      <point x="439" y="352"/>
      <point x="402" y="335"/>
      <point x="377" y="335" type="curve" smooth="yes"/>
      <point x="360" y="335"/>
      <point x="349" y="340"/>
      <point x="340" y="359" type="curve"/>
      <point x="314" y="410"/>
      <point x="295" y="429"/>
      <point x="271" y="429" type="curve" smooth="yes"/>
      <point x="247" y="429"/>
      <point x="227" y="409"/>
      <point x="227" y="380" type="curve" smooth="yes"/>
      <point x="227" y="344"/>
      <point x="253" y="316"/>
      <point x="306" y="277" type="curve" smooth="yes"/>
      <point x="348" y="245"/>
      <point x="392" y="198"/>
      <point x="392" y="136" type="curve" smooth="yes"/>
      <point x="392" y="58"/>
      <point x="341" y="-11"/>
      <point x="212" y="-11" type="curve" smooth="yes"/>
      <point x="94" y="-11"/>
      <point x="42" y="43"/>
    </contour>
  </outline>
</glyph>
<glyph name="t" format="2">
  <advance width="337"/>
  <unicode hex="0074"/>
  <anchor x="181" y="-40" name="bottom"/>
  <anchor x="235" y="10" name="b.cedilla"/>
  <anchor x="382" y="743" name="t.r.caron"/>
  <anchor x="314" y="650" name="top"/>
  <outline>
    <contour>
      <point x="96" y="60" type="curve" smooth="yes"/>
      <point x="96" y="73"/>
      <point x="98" y="87"/>
      <point x="102" y="104" type="curve" smooth="yes"/>
      <point x="181" y="415" type="line"/>
      <point x="103" y="415" type="line"/>
      <point x="115" y="461" type="line"/>
      <point x="191" y="461" type="line"/>
      <point x="210" y="530" type="line"/>
      <point x="352" y="603" type="line"/>
      <point x="364" y="595" type="line"/>
      <point x="322" y="461" type="line"/>
      <point x="435" y="461" type="line"/>
      <point x="424" y="415" type="line"/>
      <point x="313" y="415" type="line"/>
      <point x="236" y="104" type="line" smooth="yes"/>
      <point x="234" y="96"/>
      <point x="233" y="89"/>
      <point x="233" y="83" type="curve" smooth="yes"/>
      <point x="233" y="72"/>
      <point x="237" y="64"/>
      <point x="249" y="64" type="curve" smooth="yes"/>
      <point x="276" y="64"/>
      <point x="314" y="109"/>
      <point x="342" y="156" type="curve"/>
      <point x="368" y="138" type="line"/>
      <point x="323" y="52"/>
      <point x="257" y="-11"/>
      <point x="170" y="-11" type="curve" smooth="yes"/>
      <point x="126" y="-11"/>
      <point x="96" y="10"/>
    </contour>
  </outline>
</glyph>
<glyph name="u" format="2">
  <advance width="595"/>
  <unicode hex="0075"/>
  <anchor x="398" y="490" name="top"/>
  <anchor x="397" y="490" name="t.ring"/>
  <anchor x="303" y="-40" name="bottom"/>
  <outline>
    <contour>
      <point x="100" y="63" type="curve" smooth="yes"/>
      <point x="100" y="82"/>
      <point x="103" y="103"/>
      <point x="109" y="125" type="curve" smooth="yes"/>
      <point x="172" y="368" type="line" smooth="yes"/>
      <point x="174.069" y="375.982"/>
      <point x="176" y="385"/>
      <point x="176" y="391" type="curve" smooth="yes"/>
      <point x="176" y="404"/>
      <point x="170" y="410"/>
      <point x="158" y="411" type="curve" smooth="yes"/>
      <point x="102" y="416" type="line"/>
      <point x="110" y="447" type="line"/>
      <point x="327" y="472" type="line"/>
      <point x="332" y="467" type="line"/>
      <point x="243" y="120" type="line" smooth="yes"/>
      <point x="240" y="108"/>
      <point x="238" y="97"/>
      <point x="238" y="88" type="curve" smooth="yes"/>
      <point x="238" y="72"/>
      <point x="244" y="64"/>
      <point x="261" y="64" type="curve" smooth="yes"/>
      <point x="305" y="64"/>
      <point x="382" y="187"/>
      <point x="416" y="268" type="curve" smooth="yes"/>
      <point x="437" y="315"/>
      <point x="452" y="365"/>
      <point x="479" y="461" type="curve"/>
      <point x="613" y="472" type="line"/>
      <point x="518" y="108" type="line" smooth="yes"/>
      <point x="516.098" y="100.713"/>
      <point x="513" y="90"/>
      <point x="513" y="83" type="curve" smooth="yes"/>
      <point x="513" y="71"/>
      <point x="518" y="64"/>
      <point x="529" y="64" type="curve" smooth="yes"/>
      <point x="551" y="64"/>
      <point x="586" y="114"/>
      <point x="610" y="156" type="curve"/>
      <point x="637" y="139" type="line"/>
      <point x="598" y="61"/>
      <point x="541" y="-11"/>
      <point x="450" y="-11" type="curve" smooth="yes"/>
      <point x="410" y="-11"/>
      <point x="385" y="12"/>
      <point x="385" y="54" type="curve" smooth="yes"/>
      <point x="385" y="65"/>
      <point x="386" y="77"/>
      <point x="390" y="90" type="curve"/>
      <point x="419" y="197" type="line"/>
      <point x="415" y="197" type="line"/>
      <point x="356" y="88"/>
      <point x="278" y="-11"/>
      <point x="172" y="-11" type="curve" smooth="yes"/>
      <point x="119" y="-11"/>
      <point x="100" y="19"/>
    </contour>
  </outline>
</glyph>
<glyph name="v" format="2">
  <advance width="486"/>
  <unicode hex="0076"/>
  <anchor x="360" y="490" name="top"/>
  <anchor x="254" y="-40" name="bottom"/>
  <outline>
    <contour>
      <point x="103" y="72" type="curve" smooth="yes"/>
      <point x="103" y="86"/>
      <point x="105" y="102"/>
      <point x="109" y="120" type="curve" smooth="yes"/>
      <point x="166" y="368" type="line" smooth="yes"/>
      <point x="168" y="377"/>
      <point x="169" y="384"/>
      <point x="169" y="390" type="curve" smooth="yes"/>
      <point x="169" y="403"/>
      <point x="164" y="410"/>
      <point x="152" y="411" type="curve" smooth="yes"/>
      <point x="97" y="416" type="line"/>
      <point x="103" y="447" type="line"/>
      <point x="316" y="472" type="line"/>
      <point x="321" y="467" type="line"/>
      <point x="243" y="129" type="line" smooth="yes"/>
      <point x="241" y="120"/>
      <point x="240" y="111"/>
      <point x="240" y="104" type="curve" smooth="yes"/>
      <point x="240" y="79"/>
      <point x="252" y="64"/>
      <point x="274" y="64" type="curve" smooth="yes"/>
      <point x="338" y="64"/>
      <point x="429" y="197"/>
      <point x="429" y="334" type="curve" smooth="yes"/>
      <point x="429" y="383"/>
      <point x="426" y="419"/>
      <point x="417" y="452" type="curve"/>
      <point x="448" y="464"/>
      <point x="484" y="472"/>
      <point x="518" y="472" type="curve" smooth="yes"/>
      <point x="526" y="472"/>
      <point x="547" y="439"/>
      <point x="547" y="399" type="curve" smooth="yes"/>
      <point x="547" y="258"/>
      <point x="344" y="-11"/>
      <point x="193" y="-11" type="curve" smooth="yes"/>
      <point x="135" y="-11"/>
      <point x="103" y="15"/>
    </contour>
  </outline>
</glyph>
<glyph name="w" format="2">
  <advance width="747"/>
  <unicode hex="0077"/>
  <anchor x="510" y="490" name="top"/>
  <anchor x="379" y="-40" name="bottom"/>
  <anchor x="512" y="509" name="t.ring"/>
  <outline>
    <contour>
      <point x="103" y="73" type="curve" smooth="yes"/>
      <point x="103" y="87"/>
      <point x="105" y="103"/>
      <point x="109" y="120" type="curve" smooth="yes"/>
      <point x="168" y="368" type="line" smooth="yes"/>
      <point x="170" y="377"/>
      <point x="171" y="384"/>
      <point x="171" y="390" type="curve" smooth="yes"/>
      <point x="171" y="403"/>
      <point x="166" y="410"/>
      <point x="154" y="411" type="curve" smooth="yes"/>
      <point x="99" y="416" type="line"/>
      <point x="105" y="447" type="line"/>
      <point x="319" y="472" type="line"/>
      <point x="323" y="467" type="line"/>
      <point x="243" y="132" type="line" smooth="yes"/>
      <point x="240" y="119"/>
      <point x="239" y="109"/>
      <point x="239" y="100" type="curve" smooth="yes"/>
      <point x="239" y="74"/>
      <point x="251" y="64"/>
      <point x="267" y="64" type="curve" smooth="yes"/>
      <point x="289" y="64"/>
      <point x="315" y="88"/>
      <point x="353" y="149" type="curve" smooth="yes"/>
      <point x="404" y="234"/>
      <point x="434" y="340"/>
      <point x="464" y="458" type="curve"/>
      <point x="592" y="463" type="line"/>
      <point x="527" y="174" type="line" smooth="yes"/>
      <point x="521" y="149"/>
      <point x="518" y="128"/>
      <point x="518" y="112" type="curve" smooth="yes"/>
      <point x="518" y="80"/>
      <point x="530" y="64"/>
      <point x="556" y="64" type="curve" smooth="yes"/>
      <point x="616" y="64"/>
      <point x="697" y="203"/>
      <point x="697" y="334" type="curve" smooth="yes"/>
      <point x="697" y="380"/>
      <point x="692" y="415"/>
      <point x="683" y="452" type="curve"/>
      <point x="718" y="464"/>
      <point x="747" y="472"/>
      <point x="780" y="472" type="curve" smooth="yes"/>
      <point x="788" y="472"/>
      <point x="809" y="439"/>
      <point x="809" y="400" type="curve" smooth="yes"/>
      <point x="809" y="266"/>
      <point x="629" y="-11"/>
      <point x="481" y="-11" type="curve" smooth="yes"/>
      <point x="421" y="-11"/>
      <point x="397" y="27"/>
      <point x="397" y="76" type="curve" smooth="yes"/>
      <point x="397" y="110"/>
      <point x="404" y="146"/>
      <point x="413" y="183" type="curve"/>
      <point x="409" y="183" type="line"/>
      <point x="350" y="69"/>
      <point x="268" y="-11"/>
      <point x="181" y="-11" type="curve" smooth="yes"/>
      <point x="137" y="-11"/>
      <point x="103" y="16"/>
    </contour>
  </outline>
</glyph>
<glyph name="x" format="2">
  <advance width="485"/>
  <unicode hex="0078"/>
  <anchor x="351" y="490" name="top"/>
  <outline>
    <contour>
      <point x="8" y="47" type="curve" smooth="yes"/>
      <point x="8" y="84"/>
      <point x="35" y="117"/>
      <point x="63" y="117" type="curve" smooth="yes"/>
      <point x="81" y="117"/>
      <point x="97" y="106"/>
      <point x="108" y="97" type="curve" smooth="yes"/>
      <point x="118" y="89"/>
      <point x="127" y="85"/>
      <point x="138" y="85" type="curve" smooth="yes"/>
      <point x="155" y="85"/>
      <point x="181" y="122"/>
      <point x="210" y="179" type="curve" smooth="yes"/>
      <point x="230" y="218" type="line"/>
      <point x="194" y="369" type="line" smooth="yes"/>
      <point x="188" y="393"/>
      <point x="179" y="398"/>
      <point x="156" y="398" type="curve"/>
      <point x="100" y="396" type="line"/>
      <point x="97" y="425" type="line"/>
      <point x="294" y="472" type="line"/>
      <point x="301" y="468" type="line"/>
      <point x="329" y="331" type="line"/>
      <point x="332" y="331" type="line"/>
      <point x="338" y="342" type="line" smooth="yes"/>
      <point x="370" y="400"/>
      <point x="421" y="472"/>
      <point x="489" y="472" type="curve" smooth="yes"/>
      <point x="519" y="472"/>
      <point x="546" y="455"/>
      <point x="546" y="418" type="curve" smooth="yes"/>
      <point x="546" y="383"/>
      <point x="521" y="353"/>
      <point x="494" y="353" type="curve" smooth="yes"/>
      <point x="480" y="353"/>
      <point x="464" y="360"/>
      <point x="454" y="365" type="curve"/>
      <point x="441" y="372"/>
      <point x="430" y="375"/>
      <point x="420" y="375" type="curve" smooth="yes"/>
      <point x="396" y="375"/>
      <point x="367" y="329"/>
      <point x="341" y="283" type="curve"/>
      <point x="382" y="120" type="line" smooth="yes"/>
      <point x="392" y="79"/>
      <point x="399" y="64"/>
      <point x="415" y="64" type="curve" smooth="yes"/>
      <point x="439" y="64"/>
      <point x="468" y="114"/>
      <point x="492" y="168" type="curve"/>
      <point x="521" y="154" type="line"/>
      <point x="492" y="73"/>
      <point x="439" y="-11"/>
      <point x="350" y="-11" type="curve" smooth="yes"/>
      <point x="293" y="-11"/>
      <point x="271" y="35"/>
      <point x="258" y="96" type="curve" smooth="yes"/>
      <point x="244" y="160" type="line"/>
      <point x="241" y="160" type="line"/>
      <point x="210" y="101" type="line" smooth="yes"/>
      <point x="176" y="37"/>
      <point x="142" y="-11"/>
      <point x="82" y="-11" type="curve" smooth="yes"/>
      <point x="36" y="-11"/>
      <point x="8" y="14"/>
    </contour>
  </outline>
</glyph>
<glyph name="y" format="2">
  <advance width="459"/>
  <unicode hex="0079"/>
  <anchor x="342" y="490" name="top"/>
  <anchor x="342" y="509" name="t.ring"/>
  <anchor x="418" y="-90" name="bottom"/>
  <outline>
    <contour>
      <point x="-13" y="-169" type="curve" smooth="yes"/>
      <point x="-13" y="-132"/>
      <point x="17" y="-93"/>
      <point x="51" y="-93" type="curve" smooth="yes"/>
      <point x="72" y="-93"/>
      <point x="80" y="-103"/>
      <point x="95" y="-124" type="curve"/>
      <point x="109" y="-145"/>
      <point x="123" y="-159"/>
      <point x="136" y="-159" type="curve" smooth="yes"/>
      <point x="184" y="-159"/>
      <point x="188" y="-41"/>
      <point x="188" y="-9" type="curve" smooth="yes"/>
      <point x="188" y="81"/>
      <point x="161" y="268"/>
      <point x="147" y="341" type="curve" smooth="yes"/>
      <point x="139" y="383"/>
      <point x="133" y="400"/>
      <point x="112" y="399" type="curve"/>
      <point x="54" y="399" type="line"/>
      <point x="54" y="427" type="line"/>
      <point x="258" y="472" type="line"/>
      <point x="265" y="468" type="line"/>
      <point x="279" y="417"/>
      <point x="297" y="209"/>
      <point x="298" y="68" type="curve"/>
      <point x="301" y="68" type="line"/>
      <point x="368" y="189"/>
      <point x="415" y="287"/>
      <point x="415" y="426" type="curve" smooth="yes"/>
      <point x="415" y="448" type="line"/>
      <point x="453" y="465"/>
      <point x="490" y="472"/>
      <point x="513" y="472" type="curve" smooth="yes"/>
      <point x="521" y="472"/>
      <point x="533" y="444"/>
      <point x="533" y="421" type="curve" smooth="yes"/>
      <point x="533" y="382"/>
      <point x="476" y="291"/>
      <point x="423" y="200" type="curve" smooth="yes"/>
      <point x="292" y="-27" type="line" smooth="yes"/>
      <point x="218" y="-155"/>
      <point x="169" y="-227"/>
      <point x="72" y="-227" type="curve" smooth="yes"/>
      <point x="17" y="-227"/>
      <point x="-13" y="-198"/>
    </contour>
  </outline>
</glyph>
<glyph name="z" format="2">
  <advance width="438"/>
  <unicode hex="007A"/>
  <anchor x="332" y="490" name="top"/>
  <anchor x="233" y="-40" name="bottom"/>
  <outline>
    <contour>
      <point x="17" y="18" type="curve" smooth="yes"/>
      <point x="17" y="37"/>
      <point x="29" y="60"/>
      <point x="42" y="73" type="curve"/>
      <point x="138" y="175"/>
      <point x="247" y="276"/>
      <point x="348" y="369" type="curve"/>
      <point x="348" y="372" type="line"/>
      <point x="212" y="372" type="line" smooth="yes"/>
      <point x="159" y="372"/>
      <point x="141" y="343"/>
      <point x="111" y="288" type="curve"/>
      <point x="87" y="299" type="line"/>
      <point x="108" y="380"/>
      <point x="138" y="437"/>
      <point x="160" y="461" type="curve"/>
      <point x="501" y="461" type="line"/>
      <point x="509" y="446" type="line"/>
      <point x="392" y="339"/>
      <point x="276" y="233"/>
      <point x="195" y="147" type="curve"/>
      <point x="195" y="141" type="line"/>
      <point x="213" y="138"/>
      <point x="237" y="128"/>
      <point x="261" y="120" type="curve" smooth="yes"/>
      <point x="295" y="109"/>
      <point x="333" y="99"/>
      <point x="357" y="99" type="curve" smooth="yes"/>
      <point x="405" y="99"/>
      <point x="430" y="147"/>
      <point x="457" y="198" type="curve"/>
      <point x="484" y="189" type="line"/>
      <point x="459" y="82"/>
      <point x="429" y="-11"/>
      <point x="359" y="-11" type="curve" smooth="yes"/>
      <point x="319" y="-11"/>
      <point x="271" y="5"/>
      <point x="217" y="26" type="curve" smooth="yes"/>
      <point x="146" y="54"/>
      <point x="129" y="64"/>
      <point x="121" y="64" type="curve" smooth="yes"/>
      <point x="115" y="64"/>
      <point x="112" y="57"/>
      <point x="112" y="47" type="curve"/>
      <point x="116" y="19" type="line"/>
      <point x="117" y="-3"/>
      <point x="91" y="-11"/>
      <point x="53" y="-11" type="curve" smooth="yes"/>
      <point x="24" y="-11"/>
      <point x="17" y="4"/>
    </contour>
  </outline>
</glyph>
<glyph name="braceleft" format="2">
  <advance width="392"/>
  <unicode hex="007B"/>
  <outline>
    <contour>
      <point x="92" y="-80" type="curve" smooth="yes"/>
      <point x="92" y="-27"/>
      <point x="116" y="35"/>
      <point x="133" y="84" type="curve" smooth="yes"/>
      <point x="144" y="117"/>
      <point x="164" y="166"/>
      <point x="164" y="202" type="curve" smooth="yes"/>
      <point x="164" y="241"/>
      <point x="142" y="262"/>
      <point x="83" y="262" type="curve"/>
      <point x="90" y="300" type="line"/>
      <point x="232" y="300"/>
      <point x="233" y="423"/>
      <point x="233" y="536" type="curve" smooth="yes"/>
      <point x="233" y="632"/>
      <point x="270" y="748"/>
      <point x="431" y="748" type="curve" smooth="yes"/>
      <point x="481" y="748" type="line"/>
      <point x="471" y="711" type="line"/>
      <point x="344" y="701"/>
      <point x="341" y="583"/>
      <point x="341" y="486" type="curve" smooth="yes"/>
      <point x="341" y="371"/>
      <point x="322" y="313"/>
      <point x="192" y="285" type="curve"/>
      <point x="191" y="277" type="line"/>
      <point x="258" y="263"/>
      <point x="279" y="233"/>
      <point x="279" y="195" type="curve" smooth="yes"/>
      <point x="279" y="161"/>
      <point x="265" y="119"/>
      <point x="249" y="76" type="curve" smooth="yes"/>
      <point x="239" y="49"/>
      <point x="201" y="-45"/>
      <point x="201" y="-86" type="curve" smooth="yes"/>
      <point x="201" y="-121"/>
      <point x="220" y="-144"/>
      <point x="277" y="-148" type="curve"/>
      <point x="270" y="-186" type="line"/>
      <point x="238" y="-186" type="line" smooth="yes"/>
      <point x="123" y="-186"/>
      <point x="92" y="-139"/>
    </contour>
  </outline>
</glyph>
<glyph name="bar" format="2">
  <advance width="249"/>
  <unicode hex="007C"/>
  <outline>
    <contour>
      <point x="143" y="-235" type="line"/>
      <point x="143" y="705" type="line"/>
      <point x="241" y="705" type="line"/>
      <point x="241" y="-235" type="line"/>
    </contour>
  </outline>
</glyph>
<glyph name="braceright" format="2">
  <advance width="392"/>
  <unicode hex="007D"/>
  <outline>
    <contour>
      <point x="-22" y="-186" type="line"/>
      <point x="-12" y="-148" type="line"/>
      <point x="114" y="-138"/>
      <point x="118" y="-21"/>
      <point x="118" y="76" type="curve" smooth="yes"/>
      <point x="118" y="191"/>
      <point x="137" y="249"/>
      <point x="267" y="277" type="curve"/>
      <point x="268" y="285" type="line"/>
      <point x="201" y="299"/>
      <point x="180" y="329"/>
      <point x="180" y="367" type="curve" smooth="yes"/>
      <point x="180" y="411"/>
      <point x="200" y="461"/>
      <point x="220" y="511" type="curve" smooth="yes"/>
      <point x="239" y="559"/>
      <point x="258" y="607"/>
      <point x="258" y="649" type="curve" smooth="yes"/>
      <point x="258" y="684"/>
      <point x="239" y="707"/>
      <point x="182" y="711" type="curve"/>
      <point x="189" y="748" type="line"/>
      <point x="221" y="748" type="line" smooth="yes"/>
      <point x="336" y="748"/>
      <point x="367" y="701"/>
      <point x="367" y="642" type="curve" smooth="yes"/>
      <point x="367" y="592"/>
      <point x="349" y="540"/>
      <point x="329" y="489" type="curve" smooth="yes"/>
      <point x="311" y="443"/>
      <point x="295" y="398"/>
      <point x="295" y="360" type="curve" smooth="yes"/>
      <point x="295" y="321"/>
      <point x="317" y="300"/>
      <point x="376" y="300" type="curve"/>
      <point x="369" y="262" type="line"/>
      <point x="227" y="262"/>
      <point x="226" y="142"/>
      <point x="226" y="26" type="curve" smooth="yes"/>
      <point x="226" y="-70"/>
      <point x="189" y="-186"/>
      <point x="28" y="-186" type="curve" smooth="yes"/>
    </contour>
  </outline>
</glyph>
<glyph name="asciitilde" format="2">
  <advance width="564"/>
  <unicode hex="007E"/>
  <outline>
    <contour>
      <point x="99" y="174" type="line"/>
      <point x="122" y="228"/>
      <point x="158" y="304"/>
      <point x="244" y="304" type="curve" smooth="yes"/>
      <point x="278" y="304"/>
      <point x="312" y="291"/>
      <point x="344" y="277" type="curve" smooth="yes"/>
      <point x="376" y="263"/>
      <point x="408" y="250"/>
      <point x="437" y="250" type="curve" smooth="yes"/>
      <point x="470" y="250"/>
      <point x="492" y="267"/>
      <point x="519" y="318" type="curve"/>
      <point x="570" y="291" type="line"/>
      <point x="544" y="229"/>
      <point x="505" y="166"/>
      <point x="423" y="166" type="curve" smooth="yes"/>
      <point x="383" y="166"/>
      <point x="350" y="180"/>
      <point x="321" y="194" type="curve" smooth="yes"/>
      <point x="291" y="208"/>
      <point x="264" y="220"/>
      <point x="229" y="220" type="curve" smooth="yes"/>
      <point x="197" y="220"/>
      <point x="174" y="196"/>
      <point x="151" y="148" type="curve"/>
    </contour>
  </outline>
</glyph>
<glyph name="exclamdown" format="2">
  <advance width="267"/>
  <unicode hex="00A1"/>
  <outline>
    <contour>
      <point x="167" y="257" type="line"/>
      <point x="219" y="257" type="line"/>
      <point x="185" y="-106" type="line" smooth="yes"/>
      <point x="178" y="-172"/>
      <point x="165" y="-204"/>
      <point x="88" y="-204" type="curve" smooth="yes"/>
      <point x="39" y="-204"/>
      <point x="21" y="-191"/>
      <point x="21" y="-164" type="curve" smooth="yes"/>
      <point x="21" y="-149"/>
      <point x="27" y="-129"/>
      <point x="35" y="-106" type="curve" smooth="yes"/>
    </contour>
    <contour>
      <point x="134" y="378" type="curve" smooth="yes"/>
      <point x="134" y="435"/>
      <point x="174" y="472"/>
      <point x="222" y="472" type="curve" smooth="yes"/>
      <point x="278" y="472"/>
      <point x="304" y="438"/>
      <point x="304" y="398" type="curve" smooth="yes"/>
      <point x="304" y="341"/>
      <point x="263" y="305"/>
      <point x="213" y="305" type="curve" smooth="yes"/>
      <point x="158" y="305"/>
      <point x="134" y="339"/>
    </contour>
  </outline>
</glyph>
<glyph name="cent" format="2">
  <advance width="526"/>
  <unicode hex="00A2"/>
  <outline>
    <contour>
      <point x="108" y="263" type="curve" smooth="yes"/>
      <point x="108" y="433"/>
      <point x="230" y="563"/>
      <point x="402" y="563" type="curve"/>
      <point x="416" y="628" type="line"/>
      <point x="467" y="628" type="line"/>
      <point x="453" y="561" type="line"/>
      <point x="514" y="561"/>
      <point x="607" y="522"/>
      <point x="607" y="461" type="curve" smooth="yes"/>
      <point x="607" y="423"/>
      <point x="567" y="406"/>
      <point x="538" y="406" type="curve" smooth="yes"/>
      <point x="514" y="406"/>
      <point x="505" y="422"/>
      <point x="500" y="439" type="curve" smooth="yes"/>
      <point x="482" y="498"/>
      <point x="461" y="521"/>
      <point x="443" y="520" type="curve"/>
      <point x="356" y="132" type="line"/>
      <point x="412" y="132"/>
      <point x="473" y="150"/>
      <point x="525" y="220" type="curve"/>
      <point x="551" y="199" type="line"/>
      <point x="504" y="117"/>
      <point x="425" y="82"/>
      <point x="345" y="82" type="curve"/>
      <point x="321" y="-20" type="line"/>
      <point x="270" y="-20" type="line"/>
      <point x="293" y="82" type="line"/>
      <point x="202" y="82"/>
      <point x="108" y="130"/>
    </contour>
    <contour>
      <point x="244" y="253" type="curve" smooth="yes"/>
      <point x="244" y="201"/>
      <point x="256" y="153"/>
      <point x="306" y="140" type="curve"/>
      <point x="393" y="520" type="line"/>
      <point x="303" y="520"/>
      <point x="244" y="344"/>
    </contour>
  </outline>
</glyph>
<glyph name="sterling" format="2">
  <advance width="526"/>
  <unicode hex="00A3"/>
  <outline>
    <contour>
      <point x="29" y="8" type="line"/>
      <point x="57" y="68" type="line"/>
      <point x="132" y="86"/>
      <point x="221" y="123"/>
      <point x="221" y="213" type="curve" smooth="yes"/>
      <point x="221" y="231"/>
      <point x="218" y="250"/>
      <point x="212" y="273" type="curve"/>
      <point x="98" y="273" type="line"/>
      <point x="108" y="318" type="line"/>
      <point x="202" y="318" type="line"/>
      <point x="191" y="350"/>
      <point x="183" y="394"/>
      <point x="183" y="434" type="curve" smooth="yes"/>
      <point x="183" y="528"/>
      <point x="248" y="638"/>
      <point x="401" y="638" type="curve" smooth="yes"/>
      <point x="546" y="638"/>
      <point x="581" y="562"/>
      <point x="581" y="529" type="curve" smooth="yes"/>
      <point x="581" y="489"/>
      <point x="536" y="474"/>
      <point x="511" y="474" type="curve" smooth="yes"/>
      <point x="486" y="474"/>
      <point x="474" y="486"/>
      <point x="467" y="506" type="curve" smooth="yes"/>
      <point x="444" y="567"/>
      <point x="421" y="595"/>
      <point x="386" y="595" type="curve" smooth="yes"/>
      <point x="347" y="595"/>
      <point x="313" y="560"/>
      <point x="313" y="498" type="curve" smooth="yes"/>
      <point x="313" y="435"/>
      <point x="330" y="377"/>
      <point x="348" y="318" type="curve"/>
      <point x="485" y="318" type="line"/>
      <point x="477" y="273" type="line"/>
      <point x="352" y="273" type="line"/>
      <point x="352" y="194"/>
      <point x="315" y="142"/>
      <point x="243" y="109" type="curve"/>
      <point x="242" y="106" type="line"/>
      <point x="415" y="106" type="line" smooth="yes"/>
      <point x="453" y="106"/>
      <point x="477" y="121"/>
      <point x="507" y="158" type="curve"/>
      <point x="538" y="142" type="line"/>
      <point x="472" y="0" type="line"/>
      <point x="39" y="0" type="line"/>
    </contour>
  </outline>
</glyph>
<glyph name="currency" format="2">
  <advance width="526"/>
  <unicode hex="00A4"/>
  <outline>
    <contour>
      <point x="113" y="314" type="curve" smooth="yes"/>
      <point x="113" y="360"/>
      <point x="127" y="410"/>
      <point x="153" y="440" type="curve"/>
      <point x="107" y="477" type="line" smooth="yes"/>
      <point x="96" y="486"/>
      <point x="89" y="497"/>
      <point x="89" y="510" type="curve" smooth="yes"/>
      <point x="89" y="535"/>
      <point x="117" y="560"/>
      <point x="141" y="560" type="curve" smooth="yes"/>
      <point x="155" y="560"/>
      <point x="167" y="553"/>
      <point x="175" y="543" type="curve" smooth="yes"/>
      <point x="211" y="497" type="line"/>
      <point x="242" y="523"/>
      <point x="292" y="536"/>
      <point x="333" y="536" type="curve" smooth="yes"/>
      <point x="374" y="536"/>
      <point x="424" y="523"/>
      <point x="455" y="497" type="curve"/>
      <point x="491" y="543" type="line" smooth="yes"/>
      <point x="499" y="553"/>
      <point x="512" y="560"/>
      <point x="525" y="560" type="curve" smooth="yes"/>
      <point x="549" y="560"/>
      <point x="576" y="534"/>
      <point x="576" y="510" type="curve" smooth="yes"/>
      <point x="576" y="497"/>
      <point x="569" y="486"/>
      <point x="558" y="477" type="curve" smooth="yes"/>
      <point x="512" y="440" type="line"/>
      <point x="538" y="410"/>
      <point x="553" y="360"/>
      <point x="553" y="314" type="curve" smooth="yes"/>
      <point x="553" y="268"/>
      <point x="538" y="218"/>
      <point x="512" y="188" type="curve"/>
      <point x="558" y="151" type="line" smooth="yes"/>
      <point x="569" y="142"/>
      <point x="576" y="131"/>
      <point x="576" y="118" type="curve" smooth="yes"/>
      <point x="576" y="93"/>
      <point x="549" y="68"/>
      <point x="525" y="68" type="curve" smooth="yes"/>
      <point x="512" y="68"/>
      <point x="499" y="75"/>
      <point x="491" y="85" type="curve" smooth="yes"/>
      <point x="455" y="131" type="line"/>
      <point x="424" y="105"/>
      <point x="374" y="92"/>
      <point x="333" y="92" type="curve" smooth="yes"/>
      <point x="292" y="92"/>
      <point x="242" y="105"/>
      <point x="211" y="131" type="curve"/>
      <point x="175" y="85" type="line" smooth="yes"/>
      <point x="167" y="75"/>
      <point x="155" y="68"/>
      <point x="141" y="68" type="curve" smooth="yes"/>
      <point x="117" y="68"/>
      <point x="89" y="93"/>
      <point x="89" y="118" type="curve" smooth="yes"/>
      <point x="89" y="131"/>
      <point x="96" y="142"/>
      <point x="107" y="151" type="curve" smooth="yes"/>
      <point x="153" y="188" type="line"/>
      <point x="127" y="218"/>
      <point x="113" y="268"/>
    </contour>
    <contour>
      <point x="209" y="314" type="curve" smooth="yes"/>
      <point x="209" y="236"/>
      <point x="263" y="176"/>
      <point x="333" y="176" type="curve" smooth="yes"/>
      <point x="403" y="176"/>
      <point x="457" y="236"/>
      <point x="457" y="314" type="curve" smooth="yes"/>
      <point x="457" y="392"/>
      <point x="403" y="452"/>
      <point x="333" y="452" type="curve" smooth="yes"/>
      <point x="263" y="452"/>
      <point x="209" y="392"/>
    </contour>
  </outline>
</glyph>
<glyph name="yen" format="2">
  <advance width="526"/>
  <unicode hex="00A5"/>
  <outline>
    <contour>
      <point x="94" y="168" type="line"/>
      <point x="104" y="213" type="line"/>
      <point x="243" y="213" type="line"/>
      <point x="250" y="245"/>
      <point x="253" y="264"/>
      <point x="253" y="295" type="curve"/>
      <point x="126" y="295" type="line"/>
      <point x="136" y="340" type="line"/>
      <point x="243" y="340" type="line"/>
      <point x="189" y="554" type="line" smooth="yes"/>
      <point x="182" y="582"/>
      <point x="173" y="586"/>
      <point x="158" y="589" type="curve" smooth="yes"/>
      <point x="130" y="594" type="line"/>
      <point x="138" y="628" type="line"/>
      <point x="399" y="628" type="line"/>
      <point x="390" y="594" type="line"/>
      <point x="346" y="590" type="line"/>
      <point x="330" y="588"/>
      <point x="326" y="583"/>
      <point x="326" y="572" type="curve" smooth="yes"/>
      <point x="326" y="570"/>
      <point x="326" y="567"/>
      <point x="327" y="564" type="curve"/>
      <point x="371" y="339" type="line"/>
      <point x="375" y="339" type="line"/>
      <point x="508" y="562" type="line"/>
      <point x="511" y="568"/>
      <point x="513" y="573"/>
      <point x="513" y="577" type="curve" smooth="yes"/>
      <point x="513" y="584"/>
      <point x="509" y="588"/>
      <point x="500" y="589" type="curve" smooth="yes"/>
      <point x="448" y="594" type="line"/>
      <point x="457" y="628" type="line"/>
      <point x="668" y="628" type="line"/>
      <point x="661" y="594" type="line"/>
      <point x="634" y="591" type="line" smooth="yes"/>
      <point x="610" y="588"/>
      <point x="596" y="578"/>
      <point x="574" y="546" type="curve" smooth="yes"/>
      <point x="431" y="340" type="line"/>
      <point x="552" y="340" type="line"/>
      <point x="542" y="295" type="line"/>
      <point x="403" y="295" type="line"/>
      <point x="390" y="269"/>
      <point x="384" y="241"/>
      <point x="379" y="213" type="curve"/>
      <point x="532" y="213" type="line"/>
      <point x="523" y="168" type="line"/>
      <point x="368" y="168" type="line"/>
      <point x="348" y="74" type="line"/>
      <point x="347" y="68"/>
      <point x="346" y="61"/>
      <point x="346" y="58" type="curve" smooth="yes"/>
      <point x="346" y="47"/>
      <point x="351" y="40"/>
      <point x="367" y="39" type="curve"/>
      <point x="422" y="34" type="line"/>
      <point x="415" y="0" type="line"/>
      <point x="119" y="0" type="line"/>
      <point x="126" y="34" type="line"/>
      <point x="180" y="38" type="line" smooth="yes"/>
      <point x="201" y="40"/>
      <point x="208" y="54"/>
      <point x="213" y="74" type="curve" smooth="yes"/>
      <point x="234" y="168" type="line"/>
    </contour>
  </outline>
</glyph>
<glyph name="brokenbar" format="2">
  <advance width="249"/>
  <unicode hex="00A6"/>
  <outline>
    <contour>
      <point x="143" y="-164" type="line"/>
      <point x="143" y="164" type="line"/>
      <point x="241" y="164" type="line"/>
      <point x="241" y="-164" type="line"/>
    </contour>
    <contour>
      <point x="143" y="306" type="line"/>
      <point x="143" y="634" type="line"/>
      <point x="241" y="634" type="line"/>
      <point x="241" y="306" type="line"/>
    </contour>
  </outline>
</glyph>
<glyph name="section" format="2">
  <advance width="533"/>
  <unicode hex="00A7"/>
  <outline>
    <contour>
      <point x="93" y="-11" type="curve" smooth="yes"/>
      <point x="93" y="21"/>
      <point x="118" y="47"/>
      <point x="155" y="47" type="curve" smooth="yes"/>
      <point x="173" y="47"/>
      <point x="185" y="35"/>
      <point x="193" y="17" type="curve" smooth="yes"/>
      <point x="222" y="-49"/>
      <point x="254" y="-65"/>
      <point x="283" y="-65" type="curve" smooth="yes"/>
      <point x="316" y="-65"/>
      <point x="348" y="-40"/>
      <point x="348" y="-1" type="curve" smooth="yes"/>
      <point x="348" y="43"/>
      <point x="327" y="82"/>
      <point x="241" y="136" type="curve" smooth="yes"/>
      <point x="136" y="202"/>
      <point x="112" y="266"/>
      <point x="112" y="323" type="curve" smooth="yes"/>
      <point x="112" y="412"/>
      <point x="167" y="481"/>
      <point x="243" y="527" type="curve"/>
      <point x="246" y="580"/>
      <point x="294" y="665"/>
      <point x="412" y="665" type="curve" smooth="yes"/>
      <point x="509" y="665"/>
      <point x="558" y="622"/>
      <point x="558" y="583" type="curve" smooth="yes"/>
      <point x="558" y="552"/>
      <point x="527" y="533"/>
      <point x="500" y="533" type="curve" smooth="yes"/>
      <point x="482" y="533"/>
      <point x="474" y="542"/>
      <point x="464" y="560" type="curve" smooth="yes"/>
      <point x="439" y="606"/>
      <point x="414" y="621"/>
      <point x="387" y="621" type="curve" smooth="yes"/>
      <point x="355" y="621"/>
      <point x="331" y="598"/>
      <point x="331" y="564" type="curve" smooth="yes"/>
      <point x="331" y="534"/>
      <point x="345" y="500"/>
      <point x="437" y="441" type="curve" smooth="yes"/>
      <point x="523" y="386"/>
      <point x="551" y="325"/>
      <point x="551" y="252" type="curve" smooth="yes"/>
      <point x="551" y="173"/>
      <point x="490" y="92"/>
      <point x="438" y="46" type="curve"/>
      <point x="433" y="-40"/>
      <point x="367" y="-108"/>
      <point x="260" y="-108" type="curve" smooth="yes"/>
      <point x="155" y="-108"/>
      <point x="93" y="-60"/>
    </contour>
    <contour>
      <point x="185" y="384" type="curve" smooth="yes"/>
      <point x="185" y="344"/>
      <point x="207" y="296"/>
      <point x="307" y="232" type="curve" smooth="yes"/>
      <point x="370" y="192"/>
      <point x="420" y="139"/>
      <point x="428" y="102" type="curve"/>
      <point x="448" y="117"/>
      <point x="475" y="149"/>
      <point x="475" y="192" type="curve" smooth="yes"/>
      <point x="475" y="233"/>
      <point x="458" y="284"/>
      <point x="371" y="344" type="curve" smooth="yes"/>
      <point x="314" y="383"/>
      <point x="257" y="427"/>
      <point x="248" y="476" type="curve"/>
      <point x="214" y="465"/>
      <point x="185" y="428"/>
    </contour>
  </outline>
</glyph>
<glyph name="dieresis" format="2">
  <advance width="376"/>
  <unicode hex="00A8"/>
  <outline>
    <contour>
      <point x="358" y="597" type="curve" smooth="yes"/>
      <point x="358" y="633"/>
      <point x="384" y="667"/>
      <point x="432" y="667" type="curve" smooth="yes"/>
      <point x="481" y="667"/>
      <point x="507" y="633"/>
      <point x="507" y="597" type="curve" smooth="yes"/>
      <point x="507" y="561"/>
      <point x="481" y="527"/>
      <point x="432" y="527" type="curve" smooth="yes"/>
      <point x="384" y="527"/>
      <point x="358" y="561"/>
    </contour>
    <contour>
      <point x="133" y="597" type="curve" smooth="yes"/>
      <point x="133" y="633"/>
      <point x="159" y="667"/>
      <point x="207" y="667" type="curve" smooth="yes"/>
      <point x="256" y="667"/>
      <point x="281" y="633"/>
      <point x="281" y="597" type="curve" smooth="yes"/>
      <point x="281" y="561"/>
      <point x="256" y="527"/>
      <point x="207" y="527" type="curve" smooth="yes"/>
      <point x="159" y="527"/>
      <point x="133" y="561"/>
    </contour>
  </outline>
</glyph>
<glyph name="copyright" format="2">
  <advance width="774"/>
  <unicode hex="00A9"/>
  <outline>
    <contour>
      <point x="118" y="325" type="curve" smooth="yes"/>
      <point x="118" y="513"/>
      <point x="272" y="665"/>
      <point x="461" y="665" type="curve" smooth="yes"/>
      <point x="650" y="665"/>
      <point x="803" y="513"/>
      <point x="803" y="325" type="curve" smooth="yes"/>
      <point x="803" y="137"/>
      <point x="650" y="-14"/>
      <point x="461" y="-14" type="curve" smooth="yes"/>
      <point x="272" y="-14"/>
      <point x="118" y="137"/>
    </contour>
    <contour>
      <point x="196" y="325" type="curve" smooth="yes"/>
      <point x="196" y="167"/>
      <point x="315" y="45"/>
      <point x="461" y="45" type="curve" smooth="yes"/>
      <point x="607" y="45"/>
      <point x="725" y="167"/>
      <point x="725" y="325" type="curve" smooth="yes"/>
      <point x="725" y="483"/>
      <point x="607" y="605"/>
      <point x="461" y="605" type="curve" smooth="yes"/>
      <point x="315" y="605"/>
      <point x="196" y="483"/>
    </contour>
    <contour>
      <point x="279" y="327" type="curve" smooth="yes"/>
      <point x="279" y="430"/>
      <point x="338" y="515"/>
      <point x="479" y="515" type="curve" smooth="yes"/>
      <point x="531" y="515"/>
      <point x="579" y="506"/>
      <point x="609" y="488" type="curve"/>
      <point x="609" y="390" type="line"/>
      <point x="584" y="390" type="line"/>
      <point x="570" y="434"/>
      <point x="542" y="485"/>
      <point x="486" y="485" type="curve" smooth="yes"/>
      <point x="421" y="485"/>
      <point x="392" y="417"/>
      <point x="392" y="333" type="curve" smooth="yes"/>
      <point x="392" y="247"/>
      <point x="420" y="172"/>
      <point x="492" y="172" type="curve" smooth="yes"/>
      <point x="546" y="172"/>
      <point x="572" y="224"/>
      <point x="593" y="273" type="curve"/>
      <point x="619" y="273" type="line"/>
      <point x="608" y="171" type="line"/>
      <point x="578" y="152"/>
      <point x="527" y="142"/>
      <point x="478" y="142" type="curve" smooth="yes"/>
      <point x="331" y="142"/>
      <point x="279" y="222"/>
    </contour>
  </outline>
</glyph>
<glyph name="ordfeminine" format="2">
  <advance width="417"/>
  <unicode hex="00AA"/>
  <outline>
    <contour>
      <point x="91" y="321" type="curve" smooth="yes"/>
      <point x="91" y="399"/>
      <point x="162" y="555"/>
      <point x="318" y="555" type="curve" smooth="yes"/>
      <point x="336" y="555"/>
      <point x="356" y="551"/>
      <point x="368" y="544" type="curve"/>
      <point x="369" y="550" type="line"/>
      <point x="467" y="550" type="line"/>
      <point x="405" y="332" type="line"/>
      <point x="403" y="326"/>
      <point x="402" y="320"/>
      <point x="402" y="315" type="curve" smooth="yes"/>
      <point x="402" y="308"/>
      <point x="404" y="304"/>
      <point x="410" y="304" type="curve" smooth="yes"/>
      <point x="424" y="304"/>
      <point x="449" y="337"/>
      <point x="465" y="362" type="curve"/>
      <point x="486" y="351" type="line"/>
      <point x="459" y="298"/>
      <point x="420" y="249"/>
      <point x="350" y="249" type="curve" smooth="yes"/>
      <point x="324" y="249"/>
      <point x="306" y="263"/>
      <point x="306" y="293" type="curve" smooth="yes"/>
      <point x="306" y="303"/>
      <point x="308" y="314"/>
      <point x="312" y="327" type="curve" smooth="yes"/>
      <point x="326" y="373" type="line"/>
      <point x="322" y="374" type="line"/>
      <point x="286" y="317"/>
      <point x="242" y="249"/>
      <point x="158" y="249" type="curve" smooth="yes"/>
      <point x="115" y="249"/>
      <point x="91" y="281"/>
    </contour>
    <contour>
      <point x="195" y="329" type="curve" smooth="yes"/>
      <point x="195" y="312"/>
      <point x="202" y="304"/>
      <point x="212" y="304" type="curve"/>
      <point x="270" y="304"/>
      <point x="331" y="470"/>
      <point x="345" y="514" type="curve"/>
      <point x="337" y="521"/>
      <point x="326" y="523"/>
      <point x="316" y="523" type="curve" smooth="yes"/>
      <point x="253" y="523"/>
      <point x="195" y="387"/>
    </contour>
  </outline>
</glyph>
<glyph name="guillemotleft" format="2">
  <advance width="526"/>
  <unicode hex="00AB"/>
  <outline>
    <contour>
      <point x="312" y="217" type="line"/>
      <point x="308" y="223"/>
      <point x="306" y="227"/>
      <point x="306" y="232" type="curve" smooth="yes"/>
      <point x="306" y="239"/>
      <point x="311" y="246"/>
      <point x="319" y="254" type="curve"/>
      <point x="511" y="436" type="line"/>
      <point x="534" y="416" type="line"/>
      <point x="431" y="256" type="line"/>
      <point x="425" y="246"/>
      <point x="421" y="237"/>
      <point x="421" y="228" type="curve" smooth="yes"/>
      <point x="421" y="225"/>
      <point x="422" y="221"/>
      <point x="423" y="218" type="curve"/>
      <point x="467" y="51" type="line"/>
      <point x="441" y="35" type="line"/>
    </contour>
    <contour>
      <point x="124" y="217" type="line"/>
      <point x="120" y="223"/>
      <point x="118" y="227"/>
      <point x="118" y="232" type="curve" smooth="yes"/>
      <point x="118" y="239"/>
      <point x="123" y="246"/>
      <point x="131" y="254" type="curve"/>
      <point x="323" y="436" type="line"/>
      <point x="346" y="416" type="line"/>
      <point x="243" y="256" type="line"/>
      <point x="237" y="246"/>
      <point x="233" y="237"/>
      <point x="233" y="228" type="curve" smooth="yes"/>
      <point x="233" y="225"/>
      <point x="234" y="221"/>
      <point x="235" y="218" type="curve"/>
      <point x="279" y="51" type="line"/>
      <point x="253" y="35" type="line"/>
    </contour>
  </outline>
</glyph>
<glyph name="logicalnot" format="2">
  <advance width="564"/>
  <unicode hex="00AC"/>
  <outline>
    <contour>
      <point x="111" y="298" type="line"/>
      <point x="111" y="373" type="line"/>
      <point x="566" y="373" type="line"/>
      <point x="566" y="89" type="line"/>
      <point x="476" y="89" type="line"/>
      <point x="476" y="298" type="line"/>
    </contour>
  </outline>
</glyph>
<glyph name="registered" format="2">
  <advance width="774"/>
  <unicode hex="00AE"/>
  <outline>
    <contour>
      <point x="118" y="325" type="curve" smooth="yes"/>
      <point x="118" y="513"/>
      <point x="272" y="665"/>
      <point x="461" y="665" type="curve" smooth="yes"/>
      <point x="650" y="665"/>
      <point x="803" y="513"/>
      <point x="803" y="325" type="curve" smooth="yes"/>
      <point x="803" y="137"/>
      <point x="650" y="-14"/>
      <point x="461" y="-14" type="curve" smooth="yes"/>
      <point x="272" y="-14"/>
      <point x="118" y="137"/>
    </contour>
    <contour>
      <point x="196" y="325" type="curve" smooth="yes"/>
      <point x="196" y="167"/>
      <point x="315" y="45"/>
      <point x="461" y="45" type="curve" smooth="yes"/>
      <point x="607" y="45"/>
      <point x="725" y="167"/>
      <point x="725" y="325" type="curve" smooth="yes"/>
      <point x="725" y="483"/>
      <point x="607" y="605"/>
      <point x="461" y="605" type="curve" smooth="yes"/>
      <point x="315" y="605"/>
      <point x="196" y="483"/>
    </contour>
    <contour>
      <point x="292" y="149" type="line"/>
      <point x="292" y="174" type="line"/>
      <point x="318" y="178" type="line" smooth="yes"/>
      <point x="333" y="180"/>
      <point x="336" y="189"/>
      <point x="336" y="206" type="curve" smooth="yes"/>
      <point x="336" y="452" type="line" smooth="yes"/>
      <point x="336" y="468"/>
      <point x="333" y="477"/>
      <point x="318" y="479" type="curve" smooth="yes"/>
      <point x="292" y="483" type="line"/>
      <point x="292" y="508" type="line"/>
      <point x="488" y="508" type="line" smooth="yes"/>
      <point x="581" y="508"/>
      <point x="612" y="470"/>
      <point x="612" y="421" type="curve" smooth="yes"/>
      <point x="612" y="372"/>
      <point x="578" y="339"/>
      <point x="528" y="330" type="curve"/>
      <point x="528" y="327" type="line"/>
      <point x="576" y="314"/>
      <point x="586" y="279"/>
      <point x="596" y="238" type="curve" smooth="yes"/>
      <point x="602" y="214"/>
      <point x="610" y="192"/>
      <point x="621" y="184" type="curve"/>
      <point x="627" y="179"/>
      <point x="633" y="176"/>
      <point x="644" y="174" type="curve"/>
      <point x="644" y="149" type="line"/>
      <point x="592" y="149" type="line"/>
      <point x="514" y="149"/>
      <point x="506" y="184"/>
      <point x="493" y="249" type="curve" smooth="yes"/>
      <point x="487" y="277"/>
      <point x="478" y="311"/>
      <point x="446" y="311" type="curve" smooth="yes"/>
      <point x="430" y="311" type="line"/>
      <point x="430" y="206" type="line" smooth="yes"/>
      <point x="430" y="189"/>
      <point x="433" y="180"/>
      <point x="448" y="178" type="curve" smooth="yes"/>
      <point x="474" y="174" type="line"/>
      <point x="474" y="149" type="line"/>
    </contour>
    <contour>
      <point x="430" y="341" type="line"/>
      <point x="452" y="341" type="line" smooth="yes"/>
      <point x="498" y="341"/>
      <point x="513" y="369"/>
      <point x="513" y="411" type="curve" smooth="yes"/>
      <point x="513" y="459"/>
      <point x="488" y="478"/>
      <point x="459" y="478" type="curve" smooth="yes"/>
      <point x="434" y="478"/>
      <point x="430" y="473"/>
      <point x="430" y="459" type="curve" smooth="yes"/>
    </contour>
  </outline>
</glyph>
<glyph name="macron" format="2">
  <advance width="376"/>
  <unicode hex="00AF"/>
  <outline>
    <contour>
      <point x="158" y="556" type="line"/>
      <point x="172" y="624" type="line"/>
      <point x="464" y="624" type="line"/>
      <point x="450" y="556" type="line"/>
    </contour>
  </outline>
</glyph>
<glyph name="degree" format="2">
  <advance width="352"/>
  <unicode hex="00B0"/>
  <outline>
    <contour>
      <point x="120" y="488" type="curve" smooth="yes"/>
      <point x="120" y="573"/>
      <point x="190" y="639"/>
      <point x="276" y="639" type="curve" smooth="yes"/>
      <point x="362" y="639"/>
      <point x="432" y="573"/>
      <point x="432" y="488" type="curve" smooth="yes"/>
      <point x="432" y="403"/>
      <point x="362" y="338"/>
      <point x="276" y="338" type="curve" smooth="yes"/>
      <point x="190" y="338"/>
      <point x="120" y="403"/>
    </contour>
    <contour>
      <point x="193" y="489" type="curve" smooth="yes"/>
      <point x="193" y="434"/>
      <point x="230" y="393"/>
      <point x="276" y="393" type="curve" smooth="yes"/>
      <point x="322" y="393"/>
      <point x="360" y="434"/>
      <point x="360" y="489" type="curve" smooth="yes"/>
      <point x="360" y="544"/>
      <point x="322" y="585"/>
      <point x="276" y="585" type="curve" smooth="yes"/>
      <point x="230" y="585"/>
      <point x="193" y="544"/>
    </contour>
  </outline>
</glyph>
<glyph name="plusminus" format="2">
  <advance width="564"/>
  <unicode hex="00B1"/>
  <outline>
    <contour>
      <point x="111" y="280" type="line"/>
      <point x="111" y="355" type="line"/>
      <point x="294" y="355" type="line"/>
      <point x="294" y="516" type="line"/>
      <point x="384" y="516" type="line"/>
      <point x="384" y="355" type="line"/>
      <point x="566" y="355" type="line"/>
      <point x="566" y="280" type="line"/>
      <point x="384" y="280" type="line"/>
      <point x="384" y="121" type="line"/>
      <point x="294" y="121" type="line"/>
      <point x="294" y="280" type="line"/>
    </contour>
    <contour>
      <point x="111" y="0" type="line"/>
      <point x="111" y="75" type="line"/>
      <point x="566" y="75" type="line"/>
      <point x="566" y="0" type="line"/>
    </contour>
  </outline>
</glyph>
<glyph name="uni00B2" format="2">
  <advance width="377"/>
  <unicode hex="00B2"/>
  <outline>
    <contour>
      <point x="60" y="365" type="line"/>
      <point x="63" y="409"/>
      <point x="120" y="463"/>
      <point x="211" y="516" type="curve" smooth="yes"/>
      <point x="281" y="557"/>
      <point x="313" y="616"/>
      <point x="313" y="658" type="curve" smooth="yes"/>
      <point x="313" y="684"/>
      <point x="307" y="703"/>
      <point x="287" y="703" type="curve" smooth="yes"/>
      <point x="265" y="703"/>
      <point x="242" y="679"/>
      <point x="218" y="627" type="curve" smooth="yes"/>
      <point x="212" y="614"/>
      <point x="204" y="599"/>
      <point x="180" y="599" type="curve" smooth="yes"/>
      <point x="156" y="599"/>
      <point x="127" y="618"/>
      <point x="127" y="644" type="curve" smooth="yes"/>
      <point x="127" y="688"/>
      <point x="185" y="739"/>
      <point x="282" y="739" type="curve" smooth="yes"/>
      <point x="394" y="739"/>
      <point x="431" y="687"/>
      <point x="431" y="632" type="curve" smooth="yes"/>
      <point x="431" y="560"/>
      <point x="373" y="528"/>
      <point x="301" y="503" type="curve" smooth="yes"/>
      <point x="239" y="481"/>
      <point x="202" y="458"/>
      <point x="183" y="433" type="curve"/>
      <point x="325" y="433" type="line" smooth="yes"/>
      <point x="350" y="433"/>
      <point x="361" y="438"/>
      <point x="380" y="464" type="curve"/>
      <point x="406" y="456" type="line"/>
      <point x="362" y="356" type="line"/>
      <point x="70" y="356" type="line"/>
    </contour>
  </outline>
</glyph>
<glyph name="uni00B3" format="2">
  <advance width="377"/>
  <unicode hex="00B3"/>
  <outline>
    <contour>
      <point x="88" y="428" type="curve" smooth="yes"/>
      <point x="88" y="456"/>
      <point x="118" y="479"/>
      <point x="145" y="479" type="curve" smooth="yes"/>
      <point x="163" y="479"/>
      <point x="175" y="467"/>
      <point x="180" y="451" type="curve"/>
      <point x="196" y="405"/>
      <point x="210" y="385"/>
      <point x="235" y="385" type="curve" smooth="yes"/>
      <point x="258" y="385"/>
      <point x="289" y="413"/>
      <point x="289" y="484" type="curve" smooth="yes"/>
      <point x="289" y="531"/>
      <point x="268" y="540"/>
      <point x="250" y="540" type="curve" smooth="yes"/>
      <point x="229" y="540"/>
      <point x="205" y="530"/>
      <point x="192" y="530" type="curve" smooth="yes"/>
      <point x="180" y="530"/>
      <point x="173" y="538"/>
      <point x="173" y="552" type="curve" smooth="yes"/>
      <point x="173" y="570"/>
      <point x="181" y="586"/>
      <point x="194" y="586" type="curve" smooth="yes"/>
      <point x="209" y="586"/>
      <point x="234" y="573"/>
      <point x="258" y="573" type="curve" smooth="yes"/>
      <point x="295" y="573"/>
      <point x="315" y="628"/>
      <point x="315" y="663" type="curve" smooth="yes"/>
      <point x="315" y="686"/>
      <point x="306" y="703"/>
      <point x="285" y="703" type="curve" smooth="yes"/>
      <point x="267" y="703"/>
      <point x="249" y="685"/>
      <point x="225" y="643" type="curve" smooth="yes"/>
      <point x="216" y="627"/>
      <point x="207" y="615"/>
      <point x="186" y="615" type="curve" smooth="yes"/>
      <point x="166" y="615"/>
      <point x="140" y="631"/>
      <point x="140" y="657" type="curve" smooth="yes"/>
      <point x="140" y="695"/>
      <point x="194" y="739"/>
      <point x="288" y="739" type="curve" smooth="yes"/>
      <point x="363" y="739"/>
      <point x="429" y="702"/>
      <point x="429" y="644" type="curve" smooth="yes"/>
      <point x="429" y="582"/>
      <point x="368" y="564"/>
      <point x="324" y="558" type="curve"/>
      <point x="323" y="556" type="line"/>
      <point x="371" y="546"/>
      <point x="409" y="515"/>
      <point x="409" y="467" type="curve" smooth="yes"/>
      <point x="409" y="394"/>
      <point x="344" y="349"/>
      <point x="235" y="349" type="curve" smooth="yes"/>
      <point x="143" y="349"/>
      <point x="88" y="386"/>
    </contour>
  </outline>
</glyph>
<glyph name="acute" format="2">
  <advance width="376"/>
  <unicode hex="00B4"/>
  <outline>
    <contour>
      <point x="208" y="509" type="line"/>
      <point x="344" y="649" type="line" smooth="yes"/>
      <point x="379" y="685"/>
      <point x="395" y="696"/>
      <point x="414" y="696" type="curve" smooth="yes"/>
      <point x="437" y="696"/>
      <point x="463" y="663"/>
      <point x="463" y="639" type="curve" smooth="yes"/>
      <point x="463" y="615"/>
      <point x="434" y="596"/>
      <point x="400" y="577" type="curve" smooth="yes"/>
      <point x="227" y="480" type="line"/>
    </contour>
  </outline>
</glyph>
